<mxfile host="Electron" modified="2023-11-16T04:16:16.505Z" agent="Mozilla/5.0 (Windows NT 10.0; Win64; x64) AppleWebKit/537.36 (KHTML, like Gecko) draw.io/22.0.3 Chrome/114.0.5735.289 Electron/25.8.4 Safari/537.36" etag="mT1KOrw_b77PO99YK-j-" version="22.0.3" type="device">
  <diagram id="ByptkKLLbe-6zWDqu6p5" name="Page-1">
    <mxGraphModel dx="2960" dy="2567" grid="1" gridSize="10" guides="1" tooltips="1" connect="1" arrows="1" fold="1" page="0" pageScale="1" pageWidth="3300" pageHeight="4681" math="1" shadow="0">
      <root>
        <mxCell id="0" />
        <mxCell id="1" parent="0" />
        <object label="" placeholders="1" class_name="BWDEulerInt" id="875Q7cJ9eMsRLrqoedVQ-80">
          <mxCell style="rounded=0;whiteSpace=wrap;html=1;fillColor=#fff2cc;strokeColor=#d6b656;container=0;connectable=0;allowArrows=0;treeFolding=0;moveCells=0;treeMoving=0;comic=0;rotatable=0;expand=1;autosize=1;resizeWidth=1;resizeHeight=1;metaEdit=1;fontSize=16;" parent="1" vertex="1">
            <mxGeometry x="1280" y="-480" width="1040" height="480" as="geometry">
              <mxRectangle x="40" y="400" width="50" height="40" as="alternateBounds" />
            </mxGeometry>
          </mxCell>
        </object>
        <object label="BWDEulerInt" placeholders="1" id="875Q7cJ9eMsRLrqoedVQ-81">
          <mxCell style="rounded=0;whiteSpace=wrap;html=1;fillColor=#ffffff;fontSize=18;connectable=0;allowArrows=0;rotatable=0;cloneable=0;deletable=0;" parent="875Q7cJ9eMsRLrqoedVQ-80" vertex="1">
            <mxGeometry x="15.757575757575761" y="26.67076923076923" width="1008.4848484848487" height="53.329230769230755" as="geometry" />
          </mxCell>
        </object>
        <mxCell id="875Q7cJ9eMsRLrqoedVQ-82" value="" style="rounded=0;whiteSpace=wrap;html=1;fillColor=#ffffff;connectable=0;allowArrows=0;container=1;collapsible=0;portConstraintRotation=0;rotatable=0;cloneable=0;deletable=0;recursiveResize=0;fontSize=16;" parent="875Q7cJ9eMsRLrqoedVQ-80" vertex="1">
          <mxGeometry x="15.757575757575761" y="93.32923076923076" width="1008.4848484848487" height="360" as="geometry">
            <mxRectangle x="10" y="70" width="50" height="40" as="alternateBounds" />
          </mxGeometry>
        </mxCell>
        <object label="%value%" placeholders="1" value="0" block_name="zeroCt" class_name="ConstantBlock" id="sGnxYjfqu2Hk1xVGTKnI-189">
          <mxCell style="ellipse;whiteSpace=wrap;html=1;comic=0;fillColor=#ffffff;fontSize=24;align=center;allowArrows=0;connectable=0;container=1;collapsible=0;recursiveResize=1;direction=west;resizable=0;metaEdit=1;" vertex="1" parent="875Q7cJ9eMsRLrqoedVQ-82">
            <mxGeometry x="222.41242424242432" y="35.000769230769265" width="80" height="80" as="geometry" />
          </mxCell>
        </object>
        <object label="%name%" placeholders="1" name="OUT1" class_name="OutputPort" id="sGnxYjfqu2Hk1xVGTKnI-190">
          <mxCell style="triangle;fillColor=#ffffff;fontSize=14;points=[[1,0.5]];allowArrows=0;verticalAlign=middle;horizontal=1;spacingTop=0;align=left;spacingLeft=4;spacingRight=0;html=1;comic=0;treeFolding=0;treeMoving=0;movable=1;resizable=0;rotatable=1;deletable=1;editable=1;connectable=1;movableLabel=1;spacing=2;aspect=fixed;metaEdit=1;" vertex="1" parent="sGnxYjfqu2Hk1xVGTKnI-189">
            <mxGeometry x="70" y="32.5" width="10" height="15" as="geometry">
              <mxPoint x="6" y="-7" as="offset" />
            </mxGeometry>
          </mxCell>
        </object>
        <object label="%symbol%" placeholders="1" block_name="deltaT" class_name="ConstantBlock" symbol="&amp;#916;t" id="sGnxYjfqu2Hk1xVGTKnI-191">
          <mxCell style="ellipse;whiteSpace=wrap;html=1;comic=0;fillColor=#ffffff;fontSize=24;align=center;allowArrows=0;connectable=0;container=1;collapsible=0;recursiveResize=1;direction=west;resizable=0;metaEdit=1;" vertex="1" parent="875Q7cJ9eMsRLrqoedVQ-82">
            <mxGeometry x="366.0724242424243" y="35.000769230769265" width="80" height="80" as="geometry" />
          </mxCell>
        </object>
        <object label="%name%" placeholders="1" name="OUT1" class_name="OutputPort" id="sGnxYjfqu2Hk1xVGTKnI-192">
          <mxCell style="triangle;fillColor=#ffffff;fontSize=14;points=[[1,0.5]];allowArrows=0;verticalAlign=middle;horizontal=1;spacingTop=0;align=left;spacingLeft=4;spacingRight=0;html=1;comic=0;treeFolding=0;treeMoving=0;movable=1;resizable=0;rotatable=1;deletable=1;editable=1;connectable=1;movableLabel=1;spacing=2;aspect=fixed;metaEdit=1;" vertex="1" parent="sGnxYjfqu2Hk1xVGTKnI-191">
            <mxGeometry x="70" y="32.5" width="10" height="15" as="geometry">
              <mxPoint x="6" y="-7" as="offset" />
            </mxGeometry>
          </mxCell>
        </object>
        <object label="%symbol%" placeholders="1" symbol="D" class_name="DelayBlock" block_name="delay1" id="sGnxYjfqu2Hk1xVGTKnI-193">
          <mxCell style="whiteSpace=wrap;html=1;aspect=fixed;comic=0;fillColor=#FFFFFF;fontSize=36;align=center;resizable=0;container=1;collapsible=0;points=[];allowArrows=0;metaEdit=1;connectable=0;" vertex="1" parent="875Q7cJ9eMsRLrqoedVQ-82">
            <mxGeometry x="346.0724242424243" y="125.00076923076927" width="80" height="80" as="geometry" />
          </mxCell>
        </object>
        <object label="%name%" placeholders="1" name="OUT1" class_name="OutputPort" id="sGnxYjfqu2Hk1xVGTKnI-194">
          <mxCell style="triangle;fillColor=#ffffff;fontSize=14;points=[[1,0.5]];allowArrows=0;verticalAlign=middle;horizontal=1;spacingTop=0;align=left;spacingLeft=4;spacingRight=0;html=1;comic=0;treeFolding=0;treeMoving=0;movable=1;resizable=0;rotatable=1;deletable=1;editable=1;connectable=1;movableLabel=1;spacing=2;aspect=fixed;metaEdit=1;" vertex="1" parent="sGnxYjfqu2Hk1xVGTKnI-193">
            <mxGeometry x="70" y="32.5" width="10" height="15" as="geometry">
              <mxPoint x="5" y="-7" as="offset" />
            </mxGeometry>
          </mxCell>
        </object>
        <object label="%name%" placeholders="1" name="IC" class_name="InputPort" id="sGnxYjfqu2Hk1xVGTKnI-195">
          <mxCell style="triangle;fontSize=14;points=[[0,0.5]];allowArrows=0;verticalAlign=middle;horizontal=1;spacingTop=0;align=right;spacingLeft=0;spacingRight=8;html=1;comic=0;treeFolding=0;treeMoving=0;resizable=0;movableLabel=1;spacing=2;aspect=fixed;fillColor=#000000;metaEdit=1;" vertex="1" parent="sGnxYjfqu2Hk1xVGTKnI-193">
            <mxGeometry y="17.5" width="10" height="15" as="geometry">
              <mxPoint x="-14" y="-7" as="offset" />
            </mxGeometry>
          </mxCell>
        </object>
        <object label="%name%" placeholders="1" name="IN1" class_name="InputPort" id="sGnxYjfqu2Hk1xVGTKnI-196">
          <mxCell style="triangle;fontSize=14;points=[[0,0.5]];allowArrows=0;verticalAlign=middle;horizontal=1;spacingTop=0;align=right;spacingLeft=0;spacingRight=8;html=1;comic=0;treeFolding=0;treeMoving=0;resizable=0;movableLabel=1;spacing=2;aspect=fixed;fillColor=#000000;metaEdit=1;" vertex="1" parent="sGnxYjfqu2Hk1xVGTKnI-193">
            <mxGeometry y="47.5" width="10" height="15" as="geometry">
              <mxPoint x="-13" y="-8" as="offset" />
            </mxGeometry>
          </mxCell>
        </object>
        <object label="%symbol%" placeholders="1" symbol="&amp;prod;" class_name="ProductBlock" block_name="prod" numberOfInputs="2" id="sGnxYjfqu2Hk1xVGTKnI-197">
          <mxCell style="whiteSpace=wrap;html=1;aspect=fixed;comic=0;fillColor=#FFFFFF;fontSize=36;align=center;resizable=0;container=1;collapsible=0;points=[];allowArrows=0;spacingTop=-6;metaEdit=1;connectable=0;" vertex="1" parent="875Q7cJ9eMsRLrqoedVQ-82">
            <mxGeometry x="496.0724242424243" y="110.00076923076927" width="80" height="80" as="geometry" />
          </mxCell>
        </object>
        <object label="%name%" placeholders="1" name="OUT1" class_name="OutputPort" id="sGnxYjfqu2Hk1xVGTKnI-198">
          <mxCell style="triangle;fillColor=#ffffff;fontSize=14;points=[[1,0.5]];allowArrows=0;verticalAlign=middle;horizontal=1;spacingTop=0;align=left;spacingLeft=4;spacingRight=0;html=1;comic=0;treeFolding=0;treeMoving=0;movable=1;resizable=0;rotatable=1;deletable=1;editable=1;connectable=1;movableLabel=1;spacing=2;aspect=fixed;metaEdit=1;" vertex="1" parent="sGnxYjfqu2Hk1xVGTKnI-197">
            <mxGeometry x="70" y="32.5" width="10" height="15" as="geometry">
              <mxPoint x="5" y="-7" as="offset" />
            </mxGeometry>
          </mxCell>
        </object>
        <object label="%name%" placeholders="1" name="IN1" class_name="InputPort" id="sGnxYjfqu2Hk1xVGTKnI-199">
          <mxCell style="triangle;fontSize=14;points=[[0,0.5]];allowArrows=0;verticalAlign=middle;horizontal=1;spacingTop=0;align=right;spacingLeft=0;spacingRight=8;html=1;comic=0;treeFolding=0;treeMoving=0;resizable=0;movableLabel=1;spacing=2;aspect=fixed;fillColor=#000000;metaEdit=1;" vertex="1" parent="sGnxYjfqu2Hk1xVGTKnI-197">
            <mxGeometry y="17.5" width="10" height="15" as="geometry">
              <mxPoint x="-14" y="-7" as="offset" />
            </mxGeometry>
          </mxCell>
        </object>
        <object label="%name%" placeholders="1" name="IN2" class_name="InputPort" id="sGnxYjfqu2Hk1xVGTKnI-200">
          <mxCell style="triangle;fontSize=14;points=[[0,0.5]];allowArrows=0;verticalAlign=middle;horizontal=1;spacingTop=0;align=right;spacingLeft=0;spacingRight=8;html=1;comic=0;treeFolding=0;treeMoving=0;resizable=0;movableLabel=1;spacing=2;aspect=fixed;fillColor=#000000;metaEdit=1;" vertex="1" parent="sGnxYjfqu2Hk1xVGTKnI-197">
            <mxGeometry y="47.5" width="10" height="15" as="geometry">
              <mxPoint x="-13" y="8" as="offset" />
            </mxGeometry>
          </mxCell>
        </object>
        <object label="%symbol%" placeholders="1" symbol="D" class_name="DelayBlock" block_name="delay2" id="sGnxYjfqu2Hk1xVGTKnI-201">
          <mxCell style="whiteSpace=wrap;html=1;aspect=fixed;comic=0;fillColor=#FFFFFF;fontSize=36;align=center;resizable=0;container=1;collapsible=0;points=[];allowArrows=0;metaEdit=1;connectable=0;" vertex="1" parent="875Q7cJ9eMsRLrqoedVQ-82">
            <mxGeometry x="346.0724242424243" y="230.00076923076927" width="80" height="80" as="geometry" />
          </mxCell>
        </object>
        <object label="%name%" placeholders="1" name="OUT1" class_name="OutputPort" id="sGnxYjfqu2Hk1xVGTKnI-202">
          <mxCell style="triangle;fillColor=#ffffff;fontSize=14;points=[[1,0.5]];allowArrows=0;verticalAlign=middle;horizontal=1;spacingTop=0;align=left;spacingLeft=4;spacingRight=0;html=1;comic=0;treeFolding=0;treeMoving=0;movable=1;resizable=0;rotatable=1;deletable=1;editable=1;connectable=1;movableLabel=1;spacing=2;aspect=fixed;metaEdit=1;" vertex="1" parent="sGnxYjfqu2Hk1xVGTKnI-201">
            <mxGeometry x="70" y="32.5" width="10" height="15" as="geometry">
              <mxPoint x="5" y="-7" as="offset" />
            </mxGeometry>
          </mxCell>
        </object>
        <object label="%name%" placeholders="1" name="IC" class_name="InputPort" id="sGnxYjfqu2Hk1xVGTKnI-203">
          <mxCell style="triangle;fontSize=14;points=[[0,0.5]];allowArrows=0;verticalAlign=middle;horizontal=1;spacingTop=0;align=right;spacingLeft=0;spacingRight=8;html=1;comic=0;treeFolding=0;treeMoving=0;resizable=0;movableLabel=1;spacing=2;aspect=fixed;fillColor=#000000;metaEdit=1;" vertex="1" parent="sGnxYjfqu2Hk1xVGTKnI-201">
            <mxGeometry y="17.5" width="10" height="15" as="geometry">
              <mxPoint x="-14" y="-7" as="offset" />
            </mxGeometry>
          </mxCell>
        </object>
        <object label="%name%" placeholders="1" name="IN1" class_name="InputPort" id="sGnxYjfqu2Hk1xVGTKnI-204">
          <mxCell style="triangle;fontSize=14;points=[[0,0.5]];allowArrows=0;verticalAlign=middle;horizontal=1;spacingTop=0;align=right;spacingLeft=0;spacingRight=8;html=1;comic=0;treeFolding=0;treeMoving=0;resizable=0;movableLabel=1;spacing=2;aspect=fixed;fillColor=#000000;metaEdit=1;" vertex="1" parent="sGnxYjfqu2Hk1xVGTKnI-201">
            <mxGeometry y="47.5" width="10" height="15" as="geometry">
              <mxPoint x="-11" y="-7" as="offset" />
            </mxGeometry>
          </mxCell>
        </object>
        <object label="%symbol%" placeholders="1" symbol="&amp;sum;" class_name="AdderBlock" block_name="sum" numberOfInputs="2" id="sGnxYjfqu2Hk1xVGTKnI-205">
          <mxCell style="whiteSpace=wrap;html=1;aspect=fixed;comic=0;fillColor=#FFFFFF;fontSize=36;align=center;resizable=0;container=1;collapsible=0;points=[];allowArrows=0;spacingTop=-6;metaEdit=1;connectable=0;" vertex="1" parent="875Q7cJ9eMsRLrqoedVQ-82">
            <mxGeometry x="636.0724242424243" y="215.00076923076927" width="80" height="80" as="geometry" />
          </mxCell>
        </object>
        <object label="%name%" placeholders="1" name="OUT1" class_name="OutputPort" id="sGnxYjfqu2Hk1xVGTKnI-206">
          <mxCell style="triangle;fillColor=#ffffff;fontSize=14;points=[[1,0.5]];allowArrows=0;verticalAlign=middle;horizontal=1;spacingTop=0;align=left;spacingLeft=4;spacingRight=0;html=1;comic=0;treeFolding=0;treeMoving=0;movable=1;resizable=0;rotatable=1;deletable=1;editable=1;connectable=1;movableLabel=1;spacing=2;aspect=fixed;metaEdit=1;" vertex="1" parent="sGnxYjfqu2Hk1xVGTKnI-205">
            <mxGeometry x="70" y="32.5" width="10" height="15" as="geometry">
              <mxPoint x="5" y="-7" as="offset" />
            </mxGeometry>
          </mxCell>
        </object>
        <object label="%name%" placeholders="1" name="IN1" class_name="InputPort" id="sGnxYjfqu2Hk1xVGTKnI-207">
          <mxCell style="triangle;fontSize=14;points=[[0,0.5]];allowArrows=0;verticalAlign=middle;horizontal=1;spacingTop=0;align=right;spacingLeft=0;spacingRight=8;html=1;comic=0;treeFolding=0;treeMoving=0;resizable=0;movableLabel=1;spacing=2;aspect=fixed;fillColor=#000000;metaEdit=1;" vertex="1" parent="sGnxYjfqu2Hk1xVGTKnI-205">
            <mxGeometry y="17.5" width="10" height="15" as="geometry">
              <mxPoint x="-13" y="-6" as="offset" />
            </mxGeometry>
          </mxCell>
        </object>
        <object label="%name%" placeholders="1" name="IN2" class_name="InputPort" id="sGnxYjfqu2Hk1xVGTKnI-208">
          <mxCell style="triangle;fontSize=14;points=[[0,0.5]];allowArrows=0;verticalAlign=middle;horizontal=1;spacingTop=0;align=right;spacingLeft=0;spacingRight=8;html=1;comic=0;treeFolding=0;treeMoving=0;resizable=0;movableLabel=1;spacing=2;aspect=fixed;fillColor=#000000;metaEdit=1;" vertex="1" parent="sGnxYjfqu2Hk1xVGTKnI-205">
            <mxGeometry y="47.5" width="10" height="15" as="geometry">
              <mxPoint x="-13" y="-6" as="offset" />
            </mxGeometry>
          </mxCell>
        </object>
        <mxCell id="sGnxYjfqu2Hk1xVGTKnI-209" style="edgeStyle=none;curved=1;rounded=0;orthogonalLoop=1;jettySize=auto;html=1;exitX=1;exitY=0.5;exitDx=0;exitDy=0;entryX=0;entryY=0.5;entryDx=0;entryDy=0;fontSize=12;startSize=8;endSize=8;" edge="1" parent="875Q7cJ9eMsRLrqoedVQ-82" source="sGnxYjfqu2Hk1xVGTKnI-210" target="sGnxYjfqu2Hk1xVGTKnI-196">
          <mxGeometry relative="1" as="geometry" />
        </mxCell>
        <object label="%name%" placeholders="1" name="IN1" class_name="InputPort" id="sGnxYjfqu2Hk1xVGTKnI-210">
          <mxCell style="triangle;fontSize=14;points=[[0,0.5],[1,0.5]];allowArrows=0;verticalAlign=middle;horizontal=1;spacingTop=0;align=right;spacingLeft=0;spacingRight=8;html=1;comic=0;treeFolding=0;treeMoving=0;resizable=0;movableLabel=1;spacing=2;aspect=fixed;fillColor=#000000;metaEdit=1;" vertex="1" parent="875Q7cJ9eMsRLrqoedVQ-82">
            <mxGeometry x="226.0724242424243" y="172.50076923076927" width="10" height="15" as="geometry">
              <mxPoint x="-4" y="-8" as="offset" />
            </mxGeometry>
          </mxCell>
        </object>
        <mxCell id="sGnxYjfqu2Hk1xVGTKnI-211" style="edgeStyle=none;curved=1;rounded=0;orthogonalLoop=1;jettySize=auto;html=1;exitX=1;exitY=0.5;exitDx=0;exitDy=0;entryX=0;entryY=0.5;entryDx=0;entryDy=0;fontSize=12;startSize=8;endSize=8;" edge="1" parent="875Q7cJ9eMsRLrqoedVQ-82" source="sGnxYjfqu2Hk1xVGTKnI-212" target="sGnxYjfqu2Hk1xVGTKnI-203">
          <mxGeometry relative="1" as="geometry" />
        </mxCell>
        <object label="%name%" placeholders="1" name="IC" class_name="InputPort" id="sGnxYjfqu2Hk1xVGTKnI-212">
          <mxCell style="triangle;fontSize=14;points=[[0,0.5],[1,0.5]];allowArrows=0;verticalAlign=middle;horizontal=1;spacingTop=0;align=right;spacingLeft=0;spacingRight=8;html=1;comic=0;treeFolding=0;treeMoving=0;resizable=0;movableLabel=1;spacing=2;aspect=fixed;fillColor=#000000;metaEdit=1;" vertex="1" parent="875Q7cJ9eMsRLrqoedVQ-82">
            <mxGeometry x="226.0724242424243" y="247.50076923076927" width="10" height="15" as="geometry">
              <mxPoint x="-4" y="-8" as="offset" />
            </mxGeometry>
          </mxCell>
        </object>
        <object label="%name%" placeholders="1" name="OUT1" class_name="OutputPort" id="sGnxYjfqu2Hk1xVGTKnI-213">
          <mxCell style="triangle;fillColor=#ffffff;fontSize=14;points=[[0,0.5],[1,0.5]];allowArrows=0;verticalAlign=middle;horizontal=1;spacingTop=0;align=left;spacingLeft=4;spacingRight=0;html=1;comic=0;treeFolding=0;treeMoving=0;movable=1;resizable=0;rotatable=1;deletable=1;editable=1;connectable=1;movableLabel=1;spacing=2;aspect=fixed;metaEdit=1;" vertex="1" parent="875Q7cJ9eMsRLrqoedVQ-82">
            <mxGeometry x="776.0724242424243" y="247.50076923076927" width="10" height="15" as="geometry">
              <mxPoint x="5" y="-7" as="offset" />
            </mxGeometry>
          </mxCell>
        </object>
        <mxCell id="sGnxYjfqu2Hk1xVGTKnI-214" style="edgeStyle=orthogonalEdgeStyle;rounded=1;orthogonalLoop=1;jettySize=auto;html=1;exitX=1;exitY=0.5;exitDx=0;exitDy=0;entryX=0;entryY=0.5;entryDx=0;entryDy=0;fontSize=12;startSize=8;endSize=8;" edge="1" parent="875Q7cJ9eMsRLrqoedVQ-82" source="sGnxYjfqu2Hk1xVGTKnI-190" target="sGnxYjfqu2Hk1xVGTKnI-195">
          <mxGeometry relative="1" as="geometry">
            <Array as="points">
              <mxPoint x="312.72015151515166" y="75.02999999999997" />
              <mxPoint x="312.72015151515166" y="150.02999999999997" />
            </Array>
          </mxGeometry>
        </mxCell>
        <mxCell id="sGnxYjfqu2Hk1xVGTKnI-215" style="edgeStyle=orthogonalEdgeStyle;rounded=1;orthogonalLoop=1;jettySize=auto;html=1;exitX=1;exitY=0.5;exitDx=0;exitDy=0;entryX=0;entryY=0.5;entryDx=0;entryDy=0;fontSize=12;startSize=8;endSize=8;" edge="1" parent="875Q7cJ9eMsRLrqoedVQ-82" source="sGnxYjfqu2Hk1xVGTKnI-198" target="sGnxYjfqu2Hk1xVGTKnI-207">
          <mxGeometry relative="1" as="geometry">
            <Array as="points">
              <mxPoint x="576.0724242424243" y="151.00076923076927" />
              <mxPoint x="596.0724242424243" y="151.00076923076927" />
              <mxPoint x="596.0724242424243" y="240.00076923076927" />
            </Array>
          </mxGeometry>
        </mxCell>
        <mxCell id="sGnxYjfqu2Hk1xVGTKnI-216" style="edgeStyle=none;curved=1;rounded=0;orthogonalLoop=1;jettySize=auto;html=1;exitX=1;exitY=0.5;exitDx=0;exitDy=0;entryX=0;entryY=0.5;entryDx=0;entryDy=0;fontSize=12;startSize=8;endSize=8;" edge="1" parent="875Q7cJ9eMsRLrqoedVQ-82" source="sGnxYjfqu2Hk1xVGTKnI-202" target="sGnxYjfqu2Hk1xVGTKnI-208">
          <mxGeometry relative="1" as="geometry" />
        </mxCell>
        <mxCell id="sGnxYjfqu2Hk1xVGTKnI-217" style="edgeStyle=orthogonalEdgeStyle;rounded=1;orthogonalLoop=1;jettySize=auto;html=1;exitX=1;exitY=0.5;exitDx=0;exitDy=0;entryX=0;entryY=0.5;entryDx=0;entryDy=0;fontSize=12;startSize=8;endSize=8;" edge="1" parent="875Q7cJ9eMsRLrqoedVQ-82" source="sGnxYjfqu2Hk1xVGTKnI-206" target="sGnxYjfqu2Hk1xVGTKnI-204">
          <mxGeometry relative="1" as="geometry">
            <Array as="points">
              <mxPoint x="742.7201515151515" y="255.02999999999997" />
              <mxPoint x="742.7201515151515" y="325.0300000000001" />
              <mxPoint x="322.72015151515154" y="325.0300000000001" />
              <mxPoint x="322.72015151515154" y="285.03" />
            </Array>
          </mxGeometry>
        </mxCell>
        <mxCell id="sGnxYjfqu2Hk1xVGTKnI-218" style="edgeStyle=none;curved=1;rounded=0;orthogonalLoop=1;jettySize=auto;html=1;exitX=1;exitY=0.5;exitDx=0;exitDy=0;entryX=0;entryY=0.5;entryDx=0;entryDy=0;fontSize=12;startSize=8;endSize=8;" edge="1" parent="875Q7cJ9eMsRLrqoedVQ-82" source="sGnxYjfqu2Hk1xVGTKnI-206" target="sGnxYjfqu2Hk1xVGTKnI-213">
          <mxGeometry relative="1" as="geometry" />
        </mxCell>
        <mxCell id="sGnxYjfqu2Hk1xVGTKnI-219" style="edgeStyle=none;curved=1;rounded=0;orthogonalLoop=1;jettySize=auto;html=1;exitX=1;exitY=0.5;exitDx=0;exitDy=0;entryX=0;entryY=0.5;entryDx=0;entryDy=0;fontSize=12;startSize=8;endSize=8;" edge="1" parent="875Q7cJ9eMsRLrqoedVQ-82" source="sGnxYjfqu2Hk1xVGTKnI-194" target="sGnxYjfqu2Hk1xVGTKnI-200">
          <mxGeometry relative="1" as="geometry" />
        </mxCell>
        <mxCell id="sGnxYjfqu2Hk1xVGTKnI-220" style="edgeStyle=orthogonalEdgeStyle;rounded=1;orthogonalLoop=1;jettySize=auto;html=1;exitX=1;exitY=0.5;exitDx=0;exitDy=0;entryX=0;entryY=0.5;entryDx=0;entryDy=0;fontSize=12;startSize=8;endSize=8;" edge="1" parent="875Q7cJ9eMsRLrqoedVQ-82" source="sGnxYjfqu2Hk1xVGTKnI-192" target="sGnxYjfqu2Hk1xVGTKnI-199">
          <mxGeometry relative="1" as="geometry">
            <Array as="points">
              <mxPoint x="456.0724242424243" y="75.00076923076927" />
              <mxPoint x="456.0724242424243" y="135.00076923076927" />
            </Array>
          </mxGeometry>
        </mxCell>
        <object label="" placeholders="1" class_name="FWDEulerInt" id="875Q7cJ9eMsRLrqoedVQ-152">
          <mxCell style="rounded=0;whiteSpace=wrap;html=1;fillColor=#fff2cc;strokeColor=#d6b656;container=0;connectable=0;allowArrows=0;treeFolding=0;moveCells=0;treeMoving=0;comic=0;rotatable=0;expand=1;autosize=1;resizeWidth=1;resizeHeight=1;metaEdit=1;fontSize=16;" parent="1" vertex="1">
            <mxGeometry x="-880" y="-480" width="1040" height="480" as="geometry">
              <mxRectangle x="40" y="400" width="50" height="40" as="alternateBounds" />
            </mxGeometry>
          </mxCell>
        </object>
        <object label="FWDEulerInt" placeholders="1" id="875Q7cJ9eMsRLrqoedVQ-153">
          <mxCell style="rounded=0;whiteSpace=wrap;html=1;fillColor=#ffffff;fontSize=18;connectable=0;allowArrows=0;rotatable=0;cloneable=0;deletable=0;" parent="875Q7cJ9eMsRLrqoedVQ-152" vertex="1">
            <mxGeometry x="15.75757575757576" y="26.67076923076923" width="1008.4848484848486" height="53.32923076923076" as="geometry" />
          </mxCell>
        </object>
        <mxCell id="875Q7cJ9eMsRLrqoedVQ-154" value="" style="rounded=0;whiteSpace=wrap;html=1;fillColor=#ffffff;connectable=0;allowArrows=0;container=1;collapsible=0;portConstraintRotation=0;rotatable=0;cloneable=0;deletable=0;recursiveResize=0;fontSize=16;" parent="875Q7cJ9eMsRLrqoedVQ-152" vertex="1">
          <mxGeometry x="15.75757575757576" y="93.32923076923076" width="1008.4848484848486" height="360" as="geometry">
            <mxRectangle x="10" y="70" width="50" height="40" as="alternateBounds" />
          </mxGeometry>
        </mxCell>
        <object label="%value%" placeholders="1" value="0" block_name="zeroCt" class_name="ConstantBlock" id="875Q7cJ9eMsRLrqoedVQ-187">
          <mxCell style="ellipse;whiteSpace=wrap;html=1;comic=0;fillColor=#ffffff;fontSize=24;align=center;allowArrows=0;connectable=0;container=1;collapsible=0;recursiveResize=1;direction=west;resizable=0;metaEdit=1;" parent="875Q7cJ9eMsRLrqoedVQ-154" vertex="1">
            <mxGeometry x="206.74242424242425" y="62.445463108320276" width="80" height="80" as="geometry" />
          </mxCell>
        </object>
        <object label="%name%" placeholders="1" name="OUT1" class_name="OutputPort" id="875Q7cJ9eMsRLrqoedVQ-188">
          <mxCell style="triangle;fillColor=#ffffff;fontSize=14;points=[[1,0.5]];allowArrows=0;verticalAlign=middle;horizontal=1;spacingTop=0;align=left;spacingLeft=4;spacingRight=0;html=1;comic=0;treeFolding=0;treeMoving=0;movable=1;resizable=0;rotatable=1;deletable=1;editable=1;connectable=1;movableLabel=1;spacing=2;aspect=fixed;metaEdit=1;" parent="875Q7cJ9eMsRLrqoedVQ-187" vertex="1">
            <mxGeometry x="70" y="32.5" width="10" height="15" as="geometry">
              <mxPoint x="6" y="-7" as="offset" />
            </mxGeometry>
          </mxCell>
        </object>
        <object label="%symbol%" placeholders="1" block_name="deltaT" class_name="ConstantBlock" symbol="&amp;#916;t" id="875Q7cJ9eMsRLrqoedVQ-189">
          <mxCell style="ellipse;whiteSpace=wrap;html=1;comic=0;fillColor=#ffffff;fontSize=24;align=center;allowArrows=0;connectable=0;container=1;collapsible=0;recursiveResize=1;direction=west;resizable=0;metaEdit=1;" parent="875Q7cJ9eMsRLrqoedVQ-154" vertex="1">
            <mxGeometry x="206.74242424242425" y="145.71076923076924" width="80" height="80" as="geometry" />
          </mxCell>
        </object>
        <object label="%name%" placeholders="1" name="OUT1" class_name="OutputPort" id="875Q7cJ9eMsRLrqoedVQ-190">
          <mxCell style="triangle;fillColor=#ffffff;fontSize=14;points=[[1,0.5]];allowArrows=0;verticalAlign=middle;horizontal=1;spacingTop=0;align=left;spacingLeft=4;spacingRight=0;html=1;comic=0;treeFolding=0;treeMoving=0;movable=1;resizable=0;rotatable=1;deletable=1;editable=1;connectable=1;movableLabel=1;spacing=2;aspect=fixed;metaEdit=1;" parent="875Q7cJ9eMsRLrqoedVQ-189" vertex="1">
            <mxGeometry x="70" y="32.5" width="10" height="15" as="geometry">
              <mxPoint x="6" y="-7" as="offset" />
            </mxGeometry>
          </mxCell>
        </object>
        <object label="%symbol%" placeholders="1" symbol="D" class_name="DelayBlock" block_name="delay1" id="875Q7cJ9eMsRLrqoedVQ-191">
          <mxCell style="whiteSpace=wrap;html=1;aspect=fixed;comic=0;fillColor=#FFFFFF;fontSize=36;align=center;resizable=0;container=1;collapsible=0;points=[];allowArrows=0;metaEdit=1;connectable=0;" parent="875Q7cJ9eMsRLrqoedVQ-154" vertex="1">
            <mxGeometry x="361.74242424242425" y="131.01689167974885" width="80" height="80" as="geometry" />
          </mxCell>
        </object>
        <object label="%name%" placeholders="1" name="OUT1" class_name="OutputPort" id="875Q7cJ9eMsRLrqoedVQ-192">
          <mxCell style="triangle;fillColor=#ffffff;fontSize=14;points=[[1,0.5]];allowArrows=0;verticalAlign=middle;horizontal=1;spacingTop=0;align=left;spacingLeft=4;spacingRight=0;html=1;comic=0;treeFolding=0;treeMoving=0;movable=1;resizable=0;rotatable=1;deletable=1;editable=1;connectable=1;movableLabel=1;spacing=2;aspect=fixed;metaEdit=1;" parent="875Q7cJ9eMsRLrqoedVQ-191" vertex="1">
            <mxGeometry x="70" y="32.5" width="10" height="15" as="geometry">
              <mxPoint x="5" y="-7" as="offset" />
            </mxGeometry>
          </mxCell>
        </object>
        <object label="%name%" placeholders="1" name="IC" class_name="InputPort" id="875Q7cJ9eMsRLrqoedVQ-193">
          <mxCell style="triangle;fontSize=14;points=[[0,0.5]];allowArrows=0;verticalAlign=middle;horizontal=1;spacingTop=0;align=right;spacingLeft=0;spacingRight=8;html=1;comic=0;treeFolding=0;treeMoving=0;resizable=0;movableLabel=1;spacing=2;aspect=fixed;fillColor=#000000;metaEdit=1;" parent="875Q7cJ9eMsRLrqoedVQ-191" vertex="1">
            <mxGeometry y="17.5" width="10" height="15" as="geometry">
              <mxPoint x="-17" y="-7" as="offset" />
            </mxGeometry>
          </mxCell>
        </object>
        <object label="%name%" placeholders="1" name="IN1" class_name="InputPort" id="875Q7cJ9eMsRLrqoedVQ-194">
          <mxCell style="triangle;fontSize=14;points=[[0,0.5]];allowArrows=0;verticalAlign=middle;horizontal=1;spacingTop=0;align=right;spacingLeft=0;spacingRight=8;html=1;comic=0;treeFolding=0;treeMoving=0;resizable=0;movableLabel=1;spacing=2;aspect=fixed;fillColor=#000000;metaEdit=1;" parent="875Q7cJ9eMsRLrqoedVQ-191" vertex="1">
            <mxGeometry y="47.5" width="10" height="15" as="geometry">
              <mxPoint x="-15" y="7" as="offset" />
            </mxGeometry>
          </mxCell>
        </object>
        <object label="%symbol%" placeholders="1" symbol="&amp;prod;" class_name="ProductBlock" block_name="prod" numberOfInputs="2" id="875Q7cJ9eMsRLrqoedVQ-195">
          <mxCell style="whiteSpace=wrap;html=1;aspect=fixed;comic=0;fillColor=#FFFFFF;fontSize=36;align=center;resizable=0;container=1;collapsible=0;points=[];allowArrows=0;spacingTop=-6;metaEdit=1;connectable=0;" parent="875Q7cJ9eMsRLrqoedVQ-154" vertex="1">
            <mxGeometry x="511.74242424242425" y="116.32301412872845" width="80" height="80" as="geometry" />
          </mxCell>
        </object>
        <object label="%name%" placeholders="1" name="OUT1" class_name="OutputPort" id="875Q7cJ9eMsRLrqoedVQ-196">
          <mxCell style="triangle;fillColor=#ffffff;fontSize=14;points=[[1,0.5]];allowArrows=0;verticalAlign=middle;horizontal=1;spacingTop=0;align=left;spacingLeft=4;spacingRight=0;html=1;comic=0;treeFolding=0;treeMoving=0;movable=1;resizable=0;rotatable=1;deletable=1;editable=1;connectable=1;movableLabel=1;spacing=2;aspect=fixed;metaEdit=1;" parent="875Q7cJ9eMsRLrqoedVQ-195" vertex="1">
            <mxGeometry x="70" y="32.5" width="10" height="15" as="geometry">
              <mxPoint x="5" y="-7" as="offset" />
            </mxGeometry>
          </mxCell>
        </object>
        <object label="%name%" placeholders="1" name="IN1" class_name="InputPort" id="875Q7cJ9eMsRLrqoedVQ-197">
          <mxCell style="triangle;fontSize=14;points=[[0,0.5]];allowArrows=0;verticalAlign=middle;horizontal=1;spacingTop=0;align=right;spacingLeft=0;spacingRight=8;html=1;comic=0;treeFolding=0;treeMoving=0;resizable=0;movableLabel=1;spacing=2;aspect=fixed;fillColor=#000000;metaEdit=1;" parent="875Q7cJ9eMsRLrqoedVQ-195" vertex="1">
            <mxGeometry y="17.5" width="10" height="15" as="geometry">
              <mxPoint x="-14" y="-7" as="offset" />
            </mxGeometry>
          </mxCell>
        </object>
        <object label="%name%" placeholders="1" name="IN2" class_name="InputPort" id="875Q7cJ9eMsRLrqoedVQ-198">
          <mxCell style="triangle;fontSize=14;points=[[0,0.5]];allowArrows=0;verticalAlign=middle;horizontal=1;spacingTop=0;align=right;spacingLeft=0;spacingRight=8;html=1;comic=0;treeFolding=0;treeMoving=0;resizable=0;movableLabel=1;spacing=2;aspect=fixed;fillColor=#000000;metaEdit=1;" parent="875Q7cJ9eMsRLrqoedVQ-195" vertex="1">
            <mxGeometry y="47.5" width="10" height="15" as="geometry">
              <mxPoint x="-14" y="6" as="offset" />
            </mxGeometry>
          </mxCell>
        </object>
        <object label="%symbol%" placeholders="1" symbol="D" class_name="DelayBlock" block_name="delay2" id="875Q7cJ9eMsRLrqoedVQ-199">
          <mxCell style="whiteSpace=wrap;html=1;aspect=fixed;comic=0;fillColor=#FFFFFF;fontSize=36;align=center;resizable=0;container=1;collapsible=0;points=[];allowArrows=0;metaEdit=1;connectable=0;" parent="875Q7cJ9eMsRLrqoedVQ-154" vertex="1">
            <mxGeometry x="361.74242424242425" y="233.8740345368917" width="80" height="80" as="geometry" />
          </mxCell>
        </object>
        <object label="%name%" placeholders="1" name="OUT1" class_name="OutputPort" id="875Q7cJ9eMsRLrqoedVQ-200">
          <mxCell style="triangle;fillColor=#ffffff;fontSize=14;points=[[1,0.5]];allowArrows=0;verticalAlign=middle;horizontal=1;spacingTop=0;align=left;spacingLeft=4;spacingRight=0;html=1;comic=0;treeFolding=0;treeMoving=0;movable=1;resizable=0;rotatable=1;deletable=1;editable=1;connectable=1;movableLabel=1;spacing=2;aspect=fixed;metaEdit=1;" parent="875Q7cJ9eMsRLrqoedVQ-199" vertex="1">
            <mxGeometry x="70" y="32.5" width="10" height="15" as="geometry">
              <mxPoint x="5" y="-7" as="offset" />
            </mxGeometry>
          </mxCell>
        </object>
        <object label="%name%" placeholders="1" name="IC" class_name="InputPort" id="875Q7cJ9eMsRLrqoedVQ-201">
          <mxCell style="triangle;fontSize=14;points=[[0,0.5]];allowArrows=0;verticalAlign=middle;horizontal=1;spacingTop=0;align=right;spacingLeft=0;spacingRight=8;html=1;comic=0;treeFolding=0;treeMoving=0;resizable=0;movableLabel=1;spacing=2;aspect=fixed;fillColor=#000000;metaEdit=1;" parent="875Q7cJ9eMsRLrqoedVQ-199" vertex="1">
            <mxGeometry y="17.5" width="10" height="15" as="geometry">
              <mxPoint x="-14" y="-7" as="offset" />
            </mxGeometry>
          </mxCell>
        </object>
        <object label="%name%" placeholders="1" name="IN1" class_name="InputPort" id="875Q7cJ9eMsRLrqoedVQ-202">
          <mxCell style="triangle;fontSize=14;points=[[0,0.5]];allowArrows=0;verticalAlign=middle;horizontal=1;spacingTop=0;align=right;spacingLeft=0;spacingRight=8;html=1;comic=0;treeFolding=0;treeMoving=0;resizable=0;movableLabel=1;spacing=2;aspect=fixed;fillColor=#000000;metaEdit=1;" parent="875Q7cJ9eMsRLrqoedVQ-199" vertex="1">
            <mxGeometry y="47.5" width="10" height="15" as="geometry">
              <mxPoint x="-11" y="-7" as="offset" />
            </mxGeometry>
          </mxCell>
        </object>
        <object label="%symbol%" placeholders="1" symbol="&amp;sum;" class_name="AdderBlock" block_name="sum" numberOfInputs="2" id="875Q7cJ9eMsRLrqoedVQ-203">
          <mxCell style="whiteSpace=wrap;html=1;aspect=fixed;comic=0;fillColor=#FFFFFF;fontSize=36;align=center;resizable=0;container=1;collapsible=0;points=[];allowArrows=0;spacingTop=-6;metaEdit=1;connectable=0;" parent="875Q7cJ9eMsRLrqoedVQ-154" vertex="1">
            <mxGeometry x="651.7424242424242" y="219.1801569858713" width="80" height="80" as="geometry" />
          </mxCell>
        </object>
        <object label="%name%" placeholders="1" name="OUT1" class_name="OutputPort" id="875Q7cJ9eMsRLrqoedVQ-204">
          <mxCell style="triangle;fillColor=#ffffff;fontSize=14;points=[[1,0.5]];allowArrows=0;verticalAlign=middle;horizontal=1;spacingTop=0;align=left;spacingLeft=4;spacingRight=0;html=1;comic=0;treeFolding=0;treeMoving=0;movable=1;resizable=0;rotatable=1;deletable=1;editable=1;connectable=1;movableLabel=1;spacing=2;aspect=fixed;metaEdit=1;" parent="875Q7cJ9eMsRLrqoedVQ-203" vertex="1">
            <mxGeometry x="70" y="32.5" width="10" height="15" as="geometry">
              <mxPoint x="5" y="-7" as="offset" />
            </mxGeometry>
          </mxCell>
        </object>
        <object label="%name%" placeholders="1" name="IN1" class_name="InputPort" id="875Q7cJ9eMsRLrqoedVQ-205">
          <mxCell style="triangle;fontSize=14;points=[[0,0.5]];allowArrows=0;verticalAlign=middle;horizontal=1;spacingTop=0;align=right;spacingLeft=0;spacingRight=8;html=1;comic=0;treeFolding=0;treeMoving=0;resizable=0;movableLabel=1;spacing=2;aspect=fixed;fillColor=#000000;metaEdit=1;" parent="875Q7cJ9eMsRLrqoedVQ-203" vertex="1">
            <mxGeometry y="17.5" width="10" height="15" as="geometry">
              <mxPoint x="-13" y="-6" as="offset" />
            </mxGeometry>
          </mxCell>
        </object>
        <object label="%name%" placeholders="1" name="IN2" class_name="InputPort" id="875Q7cJ9eMsRLrqoedVQ-206">
          <mxCell style="triangle;fontSize=14;points=[[0,0.5]];allowArrows=0;verticalAlign=middle;horizontal=1;spacingTop=0;align=right;spacingLeft=0;spacingRight=8;html=1;comic=0;treeFolding=0;treeMoving=0;resizable=0;movableLabel=1;spacing=2;aspect=fixed;fillColor=#000000;metaEdit=1;" parent="875Q7cJ9eMsRLrqoedVQ-203" vertex="1">
            <mxGeometry y="47.5" width="10" height="15" as="geometry">
              <mxPoint x="-13" y="-6" as="offset" />
            </mxGeometry>
          </mxCell>
        </object>
        <mxCell id="875Q7cJ9eMsRLrqoedVQ-207" style="edgeStyle=orthogonalEdgeStyle;rounded=1;orthogonalLoop=1;jettySize=auto;html=1;exitX=1;exitY=0.5;exitDx=0;exitDy=0;entryX=0;entryY=0.5;entryDx=0;entryDy=0;fontSize=12;startSize=8;endSize=8;" parent="875Q7cJ9eMsRLrqoedVQ-154" source="875Q7cJ9eMsRLrqoedVQ-208" target="875Q7cJ9eMsRLrqoedVQ-197" edge="1">
          <mxGeometry relative="1" as="geometry">
            <Array as="points">
              <mxPoint x="466.74242424242425" y="40.89444270015696" />
              <mxPoint x="466.74242424242425" y="140.81281004709578" />
            </Array>
          </mxGeometry>
        </mxCell>
        <object label="%name%" placeholders="1" name="IN1" class_name="InputPort" id="875Q7cJ9eMsRLrqoedVQ-208">
          <mxCell style="triangle;fontSize=14;points=[[0,0.5],[1,0.5]];allowArrows=0;verticalAlign=middle;horizontal=1;spacingTop=0;align=right;spacingLeft=0;spacingRight=8;html=1;comic=0;treeFolding=0;treeMoving=0;resizable=0;movableLabel=1;spacing=2;aspect=fixed;fillColor=#000000;metaEdit=1;" parent="875Q7cJ9eMsRLrqoedVQ-154" vertex="1">
            <mxGeometry x="241.74242424242425" y="33.057708006279405" width="10" height="15" as="geometry">
              <mxPoint x="-4" y="-8" as="offset" />
            </mxGeometry>
          </mxCell>
        </object>
        <mxCell id="875Q7cJ9eMsRLrqoedVQ-209" style="edgeStyle=none;curved=1;rounded=0;orthogonalLoop=1;jettySize=auto;html=1;exitX=1;exitY=0.5;exitDx=0;exitDy=0;entryX=0;entryY=0.5;entryDx=0;entryDy=0;fontSize=12;startSize=8;endSize=8;" parent="875Q7cJ9eMsRLrqoedVQ-154" source="875Q7cJ9eMsRLrqoedVQ-210" target="875Q7cJ9eMsRLrqoedVQ-201" edge="1">
          <mxGeometry relative="1" as="geometry" />
        </mxCell>
        <object label="%name%" placeholders="1" name="IC" class_name="InputPort" id="875Q7cJ9eMsRLrqoedVQ-210">
          <mxCell style="triangle;fontSize=14;points=[[0,0.5],[1,0.5]];allowArrows=0;verticalAlign=middle;horizontal=1;spacingTop=0;align=right;spacingLeft=0;spacingRight=8;html=1;comic=0;treeFolding=0;treeMoving=0;resizable=0;movableLabel=1;spacing=2;aspect=fixed;fillColor=#000000;metaEdit=1;" parent="875Q7cJ9eMsRLrqoedVQ-154" vertex="1">
            <mxGeometry x="241.74242424242425" y="251.01689167974885" width="10" height="15" as="geometry">
              <mxPoint x="-4" y="-8" as="offset" />
            </mxGeometry>
          </mxCell>
        </object>
        <object label="%name%" placeholders="1" name="OUT1" class_name="OutputPort" id="875Q7cJ9eMsRLrqoedVQ-211">
          <mxCell style="triangle;fillColor=#ffffff;fontSize=14;points=[[0,0.5],[1,0.5]];allowArrows=0;verticalAlign=middle;horizontal=1;spacingTop=0;align=left;spacingLeft=4;spacingRight=0;html=1;comic=0;treeFolding=0;treeMoving=0;movable=1;resizable=0;rotatable=1;deletable=1;editable=1;connectable=1;movableLabel=1;spacing=2;aspect=fixed;metaEdit=1;" parent="875Q7cJ9eMsRLrqoedVQ-154" vertex="1">
            <mxGeometry x="791.7424242424242" y="251.01689167974885" width="10" height="15" as="geometry">
              <mxPoint x="5" y="-7" as="offset" />
            </mxGeometry>
          </mxCell>
        </object>
        <mxCell id="875Q7cJ9eMsRLrqoedVQ-212" style="edgeStyle=orthogonalEdgeStyle;rounded=1;orthogonalLoop=1;jettySize=auto;html=1;exitX=1;exitY=0.5;exitDx=0;exitDy=0;entryX=0;entryY=0.5;entryDx=0;entryDy=0;fontSize=12;startSize=8;endSize=8;" parent="875Q7cJ9eMsRLrqoedVQ-154" source="875Q7cJ9eMsRLrqoedVQ-196" target="875Q7cJ9eMsRLrqoedVQ-205" edge="1">
          <mxGeometry relative="1" as="geometry">
            <Array as="points">
              <mxPoint x="591.7424242424242" y="156.4862794348509" />
              <mxPoint x="611.7424242424242" y="156.4862794348509" />
              <mxPoint x="611.7424242424242" y="243.66995290423864" />
            </Array>
          </mxGeometry>
        </mxCell>
        <mxCell id="875Q7cJ9eMsRLrqoedVQ-213" style="edgeStyle=none;curved=1;rounded=0;orthogonalLoop=1;jettySize=auto;html=1;exitX=1;exitY=0.5;exitDx=0;exitDy=0;entryX=0;entryY=0.5;entryDx=0;entryDy=0;fontSize=12;startSize=8;endSize=8;" parent="875Q7cJ9eMsRLrqoedVQ-154" source="875Q7cJ9eMsRLrqoedVQ-200" target="875Q7cJ9eMsRLrqoedVQ-206" edge="1">
          <mxGeometry relative="1" as="geometry" />
        </mxCell>
        <mxCell id="875Q7cJ9eMsRLrqoedVQ-214" style="edgeStyle=orthogonalEdgeStyle;rounded=1;orthogonalLoop=1;jettySize=auto;html=1;exitX=1;exitY=0.5;exitDx=0;exitDy=0;entryX=0;entryY=0.5;entryDx=0;entryDy=0;fontSize=12;startSize=8;endSize=8;" parent="875Q7cJ9eMsRLrqoedVQ-154" source="875Q7cJ9eMsRLrqoedVQ-204" target="875Q7cJ9eMsRLrqoedVQ-202" edge="1">
          <mxGeometry relative="1" as="geometry">
            <Array as="points">
              <mxPoint x="742" y="259" />
              <mxPoint x="742" y="327" />
              <mxPoint x="344" y="327" />
              <mxPoint x="344" y="289" />
              <mxPoint x="354" y="289" />
            </Array>
          </mxGeometry>
        </mxCell>
        <mxCell id="875Q7cJ9eMsRLrqoedVQ-215" style="edgeStyle=none;curved=1;rounded=0;orthogonalLoop=1;jettySize=auto;html=1;exitX=1;exitY=0.5;exitDx=0;exitDy=0;entryX=0;entryY=0.5;entryDx=0;entryDy=0;fontSize=12;startSize=8;endSize=8;" parent="875Q7cJ9eMsRLrqoedVQ-154" source="875Q7cJ9eMsRLrqoedVQ-204" target="875Q7cJ9eMsRLrqoedVQ-211" edge="1">
          <mxGeometry relative="1" as="geometry" />
        </mxCell>
        <mxCell id="875Q7cJ9eMsRLrqoedVQ-216" style="edgeStyle=none;curved=1;rounded=0;orthogonalLoop=1;jettySize=auto;html=1;exitX=1;exitY=0.5;exitDx=0;exitDy=0;entryX=0;entryY=0.5;entryDx=0;entryDy=0;fontSize=12;startSize=8;endSize=8;" parent="875Q7cJ9eMsRLrqoedVQ-154" source="875Q7cJ9eMsRLrqoedVQ-190" target="875Q7cJ9eMsRLrqoedVQ-194" edge="1">
          <mxGeometry relative="1" as="geometry" />
        </mxCell>
        <mxCell id="875Q7cJ9eMsRLrqoedVQ-217" style="edgeStyle=orthogonalEdgeStyle;rounded=1;orthogonalLoop=1;jettySize=auto;html=1;exitX=1;exitY=0.5;exitDx=0;exitDy=0;entryX=0;entryY=0.5;entryDx=0;entryDy=0;fontSize=12;startSize=8;endSize=8;" parent="875Q7cJ9eMsRLrqoedVQ-154" source="875Q7cJ9eMsRLrqoedVQ-188" target="875Q7cJ9eMsRLrqoedVQ-193" edge="1">
          <mxGeometry relative="1" as="geometry">
            <Array as="points">
              <mxPoint x="326.74242424242425" y="101.62913657770804" />
              <mxPoint x="326.74242424242425" y="155.5066875981162" />
            </Array>
          </mxGeometry>
        </mxCell>
        <mxCell id="875Q7cJ9eMsRLrqoedVQ-218" style="edgeStyle=none;curved=1;rounded=0;orthogonalLoop=1;jettySize=auto;html=1;exitX=1;exitY=0.5;exitDx=0;exitDy=0;entryX=0;entryY=0.5;entryDx=0;entryDy=0;fontSize=12;startSize=8;endSize=8;" parent="875Q7cJ9eMsRLrqoedVQ-154" source="875Q7cJ9eMsRLrqoedVQ-192" target="875Q7cJ9eMsRLrqoedVQ-198" edge="1">
          <mxGeometry relative="1" as="geometry" />
        </mxCell>
        <object label="" placeholders="1" class_name="TrapezoidInt" id="875Q7cJ9eMsRLrqoedVQ-276">
          <mxCell style="rounded=0;whiteSpace=wrap;html=1;fillColor=#fff2cc;strokeColor=#d6b656;container=0;connectable=0;allowArrows=0;treeFolding=0;moveCells=0;treeMoving=0;comic=0;rotatable=0;expand=1;autosize=1;resizeWidth=1;resizeHeight=1;metaEdit=1;fontSize=16;" parent="1" vertex="1">
            <mxGeometry x="200" y="-480" width="1040" height="480.03" as="geometry">
              <mxRectangle x="40" y="400" width="50" height="40" as="alternateBounds" />
            </mxGeometry>
          </mxCell>
        </object>
        <object label="TrapezoidInt" placeholders="1" id="875Q7cJ9eMsRLrqoedVQ-277">
          <mxCell style="rounded=0;whiteSpace=wrap;html=1;fillColor=#ffffff;fontSize=18;connectable=0;allowArrows=0;rotatable=0;cloneable=0;deletable=0;" parent="875Q7cJ9eMsRLrqoedVQ-276" vertex="1">
            <mxGeometry x="15.757575757575761" y="26.672436153846153" width="1008.4848484848487" height="53.33256384615384" as="geometry" />
          </mxCell>
        </object>
        <mxCell id="875Q7cJ9eMsRLrqoedVQ-278" value="" style="rounded=0;whiteSpace=wrap;html=1;fillColor=#ffffff;connectable=0;allowArrows=0;container=1;collapsible=0;portConstraintRotation=0;rotatable=0;cloneable=0;deletable=0;recursiveResize=0;fontSize=16;" parent="875Q7cJ9eMsRLrqoedVQ-276" vertex="1">
          <mxGeometry x="15.757575757575761" y="93.33506384615383" width="1008.4848484848487" height="360.0224999999999" as="geometry">
            <mxRectangle x="10" y="70" width="50" height="40" as="alternateBounds" />
          </mxGeometry>
        </mxCell>
        <object label="%value%" placeholders="1" value="0" block_name="zeroCt" class_name="ConstantBlock" id="875Q7cJ9eMsRLrqoedVQ-120">
          <mxCell style="ellipse;whiteSpace=wrap;html=1;comic=0;fillColor=#ffffff;fontSize=24;align=center;allowArrows=0;connectable=0;container=1;collapsible=0;recursiveResize=1;direction=west;resizable=0;metaEdit=1;" parent="875Q7cJ9eMsRLrqoedVQ-278" vertex="1">
            <mxGeometry x="29.192493022548383" y="11.052235903335646" width="80" height="80" as="geometry" />
          </mxCell>
        </object>
        <object label="%name%" placeholders="1" name="OUT1" class_name="OutputPort" id="875Q7cJ9eMsRLrqoedVQ-121">
          <mxCell style="triangle;fillColor=#ffffff;fontSize=14;points=[[1,0.5]];allowArrows=0;verticalAlign=middle;horizontal=1;spacingTop=0;align=left;spacingLeft=4;spacingRight=0;html=1;comic=0;treeFolding=0;treeMoving=0;movable=1;resizable=0;rotatable=1;deletable=1;editable=1;connectable=1;movableLabel=1;spacing=2;aspect=fixed;metaEdit=1;" parent="875Q7cJ9eMsRLrqoedVQ-120" vertex="1">
            <mxGeometry x="70" y="32.5" width="10" height="15" as="geometry">
              <mxPoint x="6" y="-7" as="offset" />
            </mxGeometry>
          </mxCell>
        </object>
        <object label="%symbol%" placeholders="1" block_name="deltaT" class_name="ConstantBlock" symbol="&amp;#916;t" id="875Q7cJ9eMsRLrqoedVQ-122">
          <mxCell style="ellipse;whiteSpace=wrap;html=1;comic=0;fillColor=#ffffff;fontSize=24;align=center;allowArrows=0;connectable=0;container=1;collapsible=0;recursiveResize=1;direction=west;resizable=0;metaEdit=1;" parent="875Q7cJ9eMsRLrqoedVQ-278" vertex="1">
            <mxGeometry x="515.1686982498378" y="11.052235903335646" width="80" height="80" as="geometry" />
          </mxCell>
        </object>
        <object label="%name%" placeholders="1" name="OUT1" class_name="OutputPort" id="875Q7cJ9eMsRLrqoedVQ-123">
          <mxCell style="triangle;fillColor=#ffffff;fontSize=14;points=[[1,0.5]];allowArrows=0;verticalAlign=middle;horizontal=1;spacingTop=0;align=left;spacingLeft=4;spacingRight=0;html=1;comic=0;treeFolding=0;treeMoving=0;movable=1;resizable=0;rotatable=1;deletable=1;editable=1;connectable=1;movableLabel=1;spacing=2;aspect=fixed;metaEdit=1;" parent="875Q7cJ9eMsRLrqoedVQ-122" vertex="1">
            <mxGeometry x="70" y="32.5" width="10" height="15" as="geometry">
              <mxPoint x="6" y="-7" as="offset" />
            </mxGeometry>
          </mxCell>
        </object>
        <object label="%symbol%" placeholders="1" symbol="D" class_name="DelayBlock" block_name="delay1" id="875Q7cJ9eMsRLrqoedVQ-124">
          <mxCell style="whiteSpace=wrap;html=1;aspect=fixed;comic=0;fillColor=#FFFFFF;fontSize=36;align=center;resizable=0;container=1;collapsible=0;points=[];allowArrows=0;metaEdit=1;connectable=0;" parent="875Q7cJ9eMsRLrqoedVQ-278" vertex="1">
            <mxGeometry x="198.46510383205373" y="122.2100575146023" width="80" height="80" as="geometry" />
          </mxCell>
        </object>
        <object label="%name%" placeholders="1" name="OUT1" class_name="OutputPort" id="875Q7cJ9eMsRLrqoedVQ-125">
          <mxCell style="triangle;fillColor=#ffffff;fontSize=14;points=[[1,0.5]];allowArrows=0;verticalAlign=middle;horizontal=1;spacingTop=0;align=left;spacingLeft=4;spacingRight=0;html=1;comic=0;treeFolding=0;treeMoving=0;movable=1;resizable=0;rotatable=1;deletable=1;editable=1;connectable=1;movableLabel=1;spacing=2;aspect=fixed;metaEdit=1;" parent="875Q7cJ9eMsRLrqoedVQ-124" vertex="1">
            <mxGeometry x="70" y="32.5" width="10" height="15" as="geometry">
              <mxPoint x="5" y="-7" as="offset" />
            </mxGeometry>
          </mxCell>
        </object>
        <object label="%name%" placeholders="1" name="IC" class_name="InputPort" id="875Q7cJ9eMsRLrqoedVQ-126">
          <mxCell style="triangle;fontSize=14;points=[[0,0.5]];allowArrows=0;verticalAlign=middle;horizontal=1;spacingTop=0;align=right;spacingLeft=0;spacingRight=8;html=1;comic=0;treeFolding=0;treeMoving=0;resizable=0;movableLabel=1;spacing=2;aspect=fixed;fillColor=#000000;metaEdit=1;" parent="875Q7cJ9eMsRLrqoedVQ-124" vertex="1">
            <mxGeometry y="17.5" width="10" height="15" as="geometry">
              <mxPoint x="-17" y="-7" as="offset" />
            </mxGeometry>
          </mxCell>
        </object>
        <object label="%name%" placeholders="1" name="IN1" class_name="InputPort" id="875Q7cJ9eMsRLrqoedVQ-127">
          <mxCell style="triangle;fontSize=14;points=[[0,0.5]];allowArrows=0;verticalAlign=middle;horizontal=1;spacingTop=0;align=right;spacingLeft=0;spacingRight=8;html=1;comic=0;treeFolding=0;treeMoving=0;resizable=0;movableLabel=1;spacing=2;aspect=fixed;fillColor=#000000;metaEdit=1;" parent="875Q7cJ9eMsRLrqoedVQ-124" vertex="1">
            <mxGeometry y="47.5" width="10" height="15" as="geometry">
              <mxPoint x="-15" y="7" as="offset" />
            </mxGeometry>
          </mxCell>
        </object>
        <object label="%symbol%" placeholders="1" symbol="&amp;prod;" class_name="ProductBlock" block_name="prod2" numberOfInputs="2" id="875Q7cJ9eMsRLrqoedVQ-128">
          <mxCell style="whiteSpace=wrap;html=1;aspect=fixed;comic=0;fillColor=#FFFFFF;fontSize=36;align=center;resizable=0;container=1;collapsible=0;points=[];allowArrows=0;spacingTop=-6;metaEdit=1;connectable=0;" parent="875Q7cJ9eMsRLrqoedVQ-278" vertex="1">
            <mxGeometry x="672.4284140986687" y="107.05217274942957" width="80" height="80" as="geometry" />
          </mxCell>
        </object>
        <object label="%name%" placeholders="1" name="OUT1" class_name="OutputPort" id="875Q7cJ9eMsRLrqoedVQ-129">
          <mxCell style="triangle;fillColor=#ffffff;fontSize=14;points=[[1,0.5]];allowArrows=0;verticalAlign=middle;horizontal=1;spacingTop=0;align=left;spacingLeft=4;spacingRight=0;html=1;comic=0;treeFolding=0;treeMoving=0;movable=1;resizable=0;rotatable=1;deletable=1;editable=1;connectable=1;movableLabel=1;spacing=2;aspect=fixed;metaEdit=1;" parent="875Q7cJ9eMsRLrqoedVQ-128" vertex="1">
            <mxGeometry x="70" y="32.5" width="10" height="15" as="geometry">
              <mxPoint x="5" y="-7" as="offset" />
            </mxGeometry>
          </mxCell>
        </object>
        <object label="%name%" placeholders="1" name="IN1" class_name="InputPort" id="875Q7cJ9eMsRLrqoedVQ-130">
          <mxCell style="triangle;fontSize=14;points=[[0,0.5]];allowArrows=0;verticalAlign=middle;horizontal=1;spacingTop=0;align=right;spacingLeft=0;spacingRight=8;html=1;comic=0;treeFolding=0;treeMoving=0;resizable=0;movableLabel=1;spacing=2;aspect=fixed;fillColor=#000000;metaEdit=1;" parent="875Q7cJ9eMsRLrqoedVQ-128" vertex="1">
            <mxGeometry y="17.5" width="10" height="15" as="geometry">
              <mxPoint x="-14" y="-7" as="offset" />
            </mxGeometry>
          </mxCell>
        </object>
        <object label="%name%" placeholders="1" name="IN2" class_name="InputPort" id="875Q7cJ9eMsRLrqoedVQ-131">
          <mxCell style="triangle;fontSize=14;points=[[0,0.5]];allowArrows=0;verticalAlign=middle;horizontal=1;spacingTop=0;align=right;spacingLeft=0;spacingRight=8;html=1;comic=0;treeFolding=0;treeMoving=0;resizable=0;movableLabel=1;spacing=2;aspect=fixed;fillColor=#000000;metaEdit=1;" parent="875Q7cJ9eMsRLrqoedVQ-128" vertex="1">
            <mxGeometry y="47.5" width="10" height="15" as="geometry">
              <mxPoint x="-14" y="6" as="offset" />
            </mxGeometry>
          </mxCell>
        </object>
        <object label="%symbol%" placeholders="1" symbol="D" class_name="DelayBlock" block_name="delay2" id="875Q7cJ9eMsRLrqoedVQ-132">
          <mxCell style="whiteSpace=wrap;html=1;aspect=fixed;comic=0;fillColor=#FFFFFF;fontSize=36;align=center;resizable=0;container=1;collapsible=0;points=[];allowArrows=0;metaEdit=1;connectable=0;" parent="875Q7cJ9eMsRLrqoedVQ-278" vertex="1">
            <mxGeometry x="198.46510383205373" y="233.36787912586897" width="80" height="80" as="geometry" />
          </mxCell>
        </object>
        <object label="%name%" placeholders="1" name="OUT1" class_name="OutputPort" id="875Q7cJ9eMsRLrqoedVQ-133">
          <mxCell style="triangle;fillColor=#ffffff;fontSize=14;points=[[1,0.5]];allowArrows=0;verticalAlign=middle;horizontal=1;spacingTop=0;align=left;spacingLeft=4;spacingRight=0;html=1;comic=0;treeFolding=0;treeMoving=0;movable=1;resizable=0;rotatable=1;deletable=1;editable=1;connectable=1;movableLabel=1;spacing=2;aspect=fixed;metaEdit=1;" parent="875Q7cJ9eMsRLrqoedVQ-132" vertex="1">
            <mxGeometry x="70" y="32.5" width="10" height="15" as="geometry">
              <mxPoint x="5" y="-7" as="offset" />
            </mxGeometry>
          </mxCell>
        </object>
        <object label="%name%" placeholders="1" name="IC" class_name="InputPort" id="875Q7cJ9eMsRLrqoedVQ-134">
          <mxCell style="triangle;fontSize=14;points=[[0,0.5]];allowArrows=0;verticalAlign=middle;horizontal=1;spacingTop=0;align=right;spacingLeft=0;spacingRight=8;html=1;comic=0;treeFolding=0;treeMoving=0;resizable=0;movableLabel=1;spacing=2;aspect=fixed;fillColor=#000000;metaEdit=1;" parent="875Q7cJ9eMsRLrqoedVQ-132" vertex="1">
            <mxGeometry y="17.5" width="10" height="15" as="geometry">
              <mxPoint x="-14" y="-7" as="offset" />
            </mxGeometry>
          </mxCell>
        </object>
        <object label="%name%" placeholders="1" name="IN1" class_name="InputPort" id="875Q7cJ9eMsRLrqoedVQ-135">
          <mxCell style="triangle;fontSize=14;points=[[0,0.5]];allowArrows=0;verticalAlign=middle;horizontal=1;spacingTop=0;align=right;spacingLeft=0;spacingRight=8;html=1;comic=0;treeFolding=0;treeMoving=0;resizable=0;movableLabel=1;spacing=2;aspect=fixed;fillColor=#000000;metaEdit=1;" parent="875Q7cJ9eMsRLrqoedVQ-132" vertex="1">
            <mxGeometry y="47.5" width="10" height="15" as="geometry">
              <mxPoint x="-11" y="-7" as="offset" />
            </mxGeometry>
          </mxCell>
        </object>
        <object label="%symbol%" placeholders="1" symbol="&amp;sum;" class_name="AdderBlock" block_name="sum2" numberOfInputs="2" id="875Q7cJ9eMsRLrqoedVQ-136">
          <mxCell style="whiteSpace=wrap;html=1;aspect=fixed;comic=0;fillColor=#FFFFFF;fontSize=36;align=center;resizable=0;container=1;collapsible=0;points=[];allowArrows=0;spacingTop=-6;metaEdit=1;connectable=0;" parent="875Q7cJ9eMsRLrqoedVQ-278" vertex="1">
            <mxGeometry x="815.491072266702" y="218.20999436069621" width="80" height="80" as="geometry" />
          </mxCell>
        </object>
        <object label="%name%" placeholders="1" name="OUT1" class_name="OutputPort" id="875Q7cJ9eMsRLrqoedVQ-137">
          <mxCell style="triangle;fillColor=#ffffff;fontSize=14;points=[[1,0.5]];allowArrows=0;verticalAlign=middle;horizontal=1;spacingTop=0;align=left;spacingLeft=4;spacingRight=0;html=1;comic=0;treeFolding=0;treeMoving=0;movable=1;resizable=0;rotatable=1;deletable=1;editable=1;connectable=1;movableLabel=1;spacing=2;aspect=fixed;metaEdit=1;" parent="875Q7cJ9eMsRLrqoedVQ-136" vertex="1">
            <mxGeometry x="70" y="32.5" width="10" height="15" as="geometry">
              <mxPoint x="5" y="-7" as="offset" />
            </mxGeometry>
          </mxCell>
        </object>
        <object label="%name%" placeholders="1" name="IN1" class_name="InputPort" id="875Q7cJ9eMsRLrqoedVQ-138">
          <mxCell style="triangle;fontSize=14;points=[[0,0.5]];allowArrows=0;verticalAlign=middle;horizontal=1;spacingTop=0;align=right;spacingLeft=0;spacingRight=8;html=1;comic=0;treeFolding=0;treeMoving=0;resizable=0;movableLabel=1;spacing=2;aspect=fixed;fillColor=#000000;metaEdit=1;" parent="875Q7cJ9eMsRLrqoedVQ-136" vertex="1">
            <mxGeometry y="17.5" width="10" height="15" as="geometry">
              <mxPoint x="-13" y="-6" as="offset" />
            </mxGeometry>
          </mxCell>
        </object>
        <object label="%name%" placeholders="1" name="IN2" class_name="InputPort" id="875Q7cJ9eMsRLrqoedVQ-139">
          <mxCell style="triangle;fontSize=14;points=[[0,0.5]];allowArrows=0;verticalAlign=middle;horizontal=1;spacingTop=0;align=right;spacingLeft=0;spacingRight=8;html=1;comic=0;treeFolding=0;treeMoving=0;resizable=0;movableLabel=1;spacing=2;aspect=fixed;fillColor=#000000;metaEdit=1;" parent="875Q7cJ9eMsRLrqoedVQ-136" vertex="1">
            <mxGeometry y="47.5" width="10" height="15" as="geometry">
              <mxPoint x="-13" y="-6" as="offset" />
            </mxGeometry>
          </mxCell>
        </object>
        <mxCell id="875Q7cJ9eMsRLrqoedVQ-251" style="edgeStyle=none;curved=1;rounded=0;orthogonalLoop=1;jettySize=auto;html=1;exitX=1;exitY=0.5;exitDx=0;exitDy=0;entryX=0;entryY=0.5;entryDx=0;entryDy=0;fontSize=12;startSize=8;endSize=8;" parent="875Q7cJ9eMsRLrqoedVQ-278" source="875Q7cJ9eMsRLrqoedVQ-141" target="875Q7cJ9eMsRLrqoedVQ-127" edge="1">
          <mxGeometry relative="1" as="geometry" />
        </mxCell>
        <object label="%name%" placeholders="1" name="IN1" class_name="InputPort" id="875Q7cJ9eMsRLrqoedVQ-141">
          <mxCell style="triangle;fontSize=14;points=[[0,0.5],[1,0.5]];allowArrows=0;verticalAlign=middle;horizontal=1;spacingTop=0;align=right;spacingLeft=0;spacingRight=8;html=1;comic=0;treeFolding=0;treeMoving=0;resizable=0;movableLabel=1;spacing=2;aspect=fixed;fillColor=#000000;metaEdit=1;" parent="875Q7cJ9eMsRLrqoedVQ-278" vertex="1">
            <mxGeometry x="67.41534062469474" y="170.21002593764928" width="10" height="15" as="geometry">
              <mxPoint x="-4" y="-8" as="offset" />
            </mxGeometry>
          </mxCell>
        </object>
        <mxCell id="875Q7cJ9eMsRLrqoedVQ-142" style="edgeStyle=none;curved=1;rounded=0;orthogonalLoop=1;jettySize=auto;html=1;exitX=1;exitY=0.5;exitDx=0;exitDy=0;entryX=0;entryY=0.5;entryDx=0;entryDy=0;fontSize=12;startSize=8;endSize=8;" parent="875Q7cJ9eMsRLrqoedVQ-278" source="875Q7cJ9eMsRLrqoedVQ-143" target="875Q7cJ9eMsRLrqoedVQ-134" edge="1">
          <mxGeometry relative="1" as="geometry" />
        </mxCell>
        <object label="%name%" placeholders="1" name="IC" class_name="InputPort" id="875Q7cJ9eMsRLrqoedVQ-143">
          <mxCell style="triangle;fontSize=14;points=[[0,0.5],[1,0.5]];allowArrows=0;verticalAlign=middle;horizontal=1;spacingTop=0;align=right;spacingLeft=0;spacingRight=8;html=1;comic=0;treeFolding=0;treeMoving=0;resizable=0;movableLabel=1;spacing=2;aspect=fixed;fillColor=#000000;metaEdit=1;" parent="875Q7cJ9eMsRLrqoedVQ-278" vertex="1">
            <mxGeometry x="67.41534062469474" y="251.05207801857048" width="10" height="15" as="geometry">
              <mxPoint x="-4" y="-8" as="offset" />
            </mxGeometry>
          </mxCell>
        </object>
        <object label="%name%" placeholders="1" name="OUT1" class_name="OutputPort" id="875Q7cJ9eMsRLrqoedVQ-144">
          <mxCell style="triangle;fillColor=#ffffff;fontSize=14;points=[[0,0.5],[1,0.5]];allowArrows=0;verticalAlign=middle;horizontal=1;spacingTop=0;align=left;spacingLeft=4;spacingRight=0;html=1;comic=0;treeFolding=0;treeMoving=0;movable=1;resizable=0;rotatable=1;deletable=1;editable=1;connectable=1;movableLabel=1;spacing=2;aspect=fixed;metaEdit=1;" parent="875Q7cJ9eMsRLrqoedVQ-278" vertex="1">
            <mxGeometry x="954.2424626752875" y="250.71207801857048" width="10" height="15" as="geometry">
              <mxPoint x="5" y="-7" as="offset" />
            </mxGeometry>
          </mxCell>
        </object>
        <mxCell id="875Q7cJ9eMsRLrqoedVQ-146" style="edgeStyle=none;curved=1;rounded=0;orthogonalLoop=1;jettySize=auto;html=1;exitX=1;exitY=0.5;exitDx=0;exitDy=0;entryX=0;entryY=0.5;entryDx=0;entryDy=0;fontSize=12;startSize=8;endSize=8;" parent="875Q7cJ9eMsRLrqoedVQ-278" source="875Q7cJ9eMsRLrqoedVQ-133" target="875Q7cJ9eMsRLrqoedVQ-139" edge="1">
          <mxGeometry relative="1" as="geometry" />
        </mxCell>
        <mxCell id="875Q7cJ9eMsRLrqoedVQ-147" style="edgeStyle=orthogonalEdgeStyle;rounded=1;orthogonalLoop=1;jettySize=auto;html=1;exitX=1;exitY=0.5;exitDx=0;exitDy=0;entryX=0;entryY=0.5;entryDx=0;entryDy=0;fontSize=12;startSize=8;endSize=8;" parent="875Q7cJ9eMsRLrqoedVQ-278" source="875Q7cJ9eMsRLrqoedVQ-137" target="875Q7cJ9eMsRLrqoedVQ-135" edge="1">
          <mxGeometry relative="1" as="geometry">
            <Array as="points">
              <mxPoint x="935.6200218734477" y="258.66133617068715" />
              <mxPoint x="935.6200218734477" y="334.4507599965508" />
              <mxPoint x="176.6234766308272" y="334.4507599965508" />
              <mxPoint x="176.6234766308272" y="288.9771057010326" />
            </Array>
          </mxGeometry>
        </mxCell>
        <mxCell id="875Q7cJ9eMsRLrqoedVQ-148" style="edgeStyle=none;curved=1;rounded=0;orthogonalLoop=1;jettySize=auto;html=1;exitX=1;exitY=0.5;exitDx=0;exitDy=0;entryX=0;entryY=0.5;entryDx=0;entryDy=0;fontSize=12;startSize=8;endSize=8;" parent="875Q7cJ9eMsRLrqoedVQ-278" source="875Q7cJ9eMsRLrqoedVQ-137" target="875Q7cJ9eMsRLrqoedVQ-144" edge="1">
          <mxGeometry relative="1" as="geometry" />
        </mxCell>
        <mxCell id="875Q7cJ9eMsRLrqoedVQ-252" style="edgeStyle=orthogonalEdgeStyle;rounded=1;orthogonalLoop=1;jettySize=auto;html=1;exitX=1;exitY=0.5;exitDx=0;exitDy=0;entryX=0;entryY=0.5;entryDx=0;entryDy=0;fontSize=12;startSize=8;endSize=8;" parent="875Q7cJ9eMsRLrqoedVQ-278" source="875Q7cJ9eMsRLrqoedVQ-121" target="875Q7cJ9eMsRLrqoedVQ-126" edge="1">
          <mxGeometry relative="1" as="geometry">
            <Array as="points">
              <mxPoint x="160.24225622990735" y="51.473261943796246" />
              <mxPoint x="160.24225622990735" y="147.47319878989018" />
            </Array>
          </mxGeometry>
        </mxCell>
        <object label="%symbol%" placeholders="1" symbol="&amp;sum;" class_name="AdderBlock" block_name="sum1" numberOfInputs="2" id="875Q7cJ9eMsRLrqoedVQ-253">
          <mxCell style="whiteSpace=wrap;html=1;aspect=fixed;comic=0;fillColor=#FFFFFF;fontSize=36;align=center;resizable=0;container=1;collapsible=0;points=[];allowArrows=0;spacingTop=-6;metaEdit=1;connectable=0;" parent="875Q7cJ9eMsRLrqoedVQ-278" vertex="1">
            <mxGeometry x="356.81690104094577" y="137.36794227977504" width="80" height="80" as="geometry" />
          </mxCell>
        </object>
        <object label="%name%" placeholders="1" name="OUT1" class_name="OutputPort" id="875Q7cJ9eMsRLrqoedVQ-254">
          <mxCell style="triangle;fillColor=#ffffff;fontSize=14;points=[[1,0.5]];allowArrows=0;verticalAlign=middle;horizontal=1;spacingTop=0;align=left;spacingLeft=4;spacingRight=0;html=1;comic=0;treeFolding=0;treeMoving=0;movable=1;resizable=0;rotatable=1;deletable=1;editable=1;connectable=1;movableLabel=1;spacing=2;aspect=fixed;metaEdit=1;" parent="875Q7cJ9eMsRLrqoedVQ-253" vertex="1">
            <mxGeometry x="70" y="32.5" width="10" height="15" as="geometry">
              <mxPoint x="5" y="-7" as="offset" />
            </mxGeometry>
          </mxCell>
        </object>
        <object label="%name%" placeholders="1" name="IN1" class_name="InputPort" id="875Q7cJ9eMsRLrqoedVQ-255">
          <mxCell style="triangle;fontSize=14;points=[[0,0.5]];allowArrows=0;verticalAlign=middle;horizontal=1;spacingTop=0;align=right;spacingLeft=0;spacingRight=8;html=1;comic=0;treeFolding=0;treeMoving=0;resizable=0;movableLabel=1;spacing=2;aspect=fixed;fillColor=#000000;metaEdit=1;" parent="875Q7cJ9eMsRLrqoedVQ-253" vertex="1">
            <mxGeometry y="17.5" width="10" height="15" as="geometry">
              <mxPoint x="-13" y="7" as="offset" />
            </mxGeometry>
          </mxCell>
        </object>
        <object label="%name%" placeholders="1" name="IN2" class_name="InputPort" id="875Q7cJ9eMsRLrqoedVQ-256">
          <mxCell style="triangle;fontSize=14;points=[[0,0.5]];allowArrows=0;verticalAlign=middle;horizontal=1;spacingTop=0;align=right;spacingLeft=0;spacingRight=8;html=1;comic=0;treeFolding=0;treeMoving=0;resizable=0;movableLabel=1;spacing=2;aspect=fixed;fillColor=#000000;metaEdit=1;" parent="875Q7cJ9eMsRLrqoedVQ-253" vertex="1">
            <mxGeometry y="47.5" width="10" height="15" as="geometry">
              <mxPoint x="-13" y="7" as="offset" />
            </mxGeometry>
          </mxCell>
        </object>
        <mxCell id="875Q7cJ9eMsRLrqoedVQ-258" style="edgeStyle=none;curved=1;rounded=0;orthogonalLoop=1;jettySize=auto;html=1;exitX=1;exitY=0.5;exitDx=0;exitDy=0;entryX=0;entryY=0.5;entryDx=0;entryDy=0;fontSize=12;startSize=8;endSize=8;" parent="875Q7cJ9eMsRLrqoedVQ-278" source="875Q7cJ9eMsRLrqoedVQ-125" target="875Q7cJ9eMsRLrqoedVQ-255" edge="1">
          <mxGeometry relative="1" as="geometry" />
        </mxCell>
        <object label="%symbol%" placeholders="1" symbol="&amp;prod;" class_name="ProductBlock" block_name="prod1" numberOfInputs="2" id="875Q7cJ9eMsRLrqoedVQ-261">
          <mxCell style="whiteSpace=wrap;html=1;aspect=fixed;comic=0;fillColor=#FFFFFF;fontSize=36;align=center;resizable=0;container=1;collapsible=0;points=[];allowArrows=0;spacingTop=-6;metaEdit=1;connectable=0;" parent="875Q7cJ9eMsRLrqoedVQ-278" vertex="1">
            <mxGeometry x="515.1686982498378" y="122.2100575146023" width="80" height="80" as="geometry" />
          </mxCell>
        </object>
        <object label="%name%" placeholders="1" name="OUT1" class_name="OutputPort" id="875Q7cJ9eMsRLrqoedVQ-262">
          <mxCell style="triangle;fillColor=#ffffff;fontSize=14;points=[[1,0.5]];allowArrows=0;verticalAlign=middle;horizontal=1;spacingTop=0;align=left;spacingLeft=4;spacingRight=0;html=1;comic=0;treeFolding=0;treeMoving=0;movable=1;resizable=0;rotatable=1;deletable=1;editable=1;connectable=1;movableLabel=1;spacing=2;aspect=fixed;metaEdit=1;" parent="875Q7cJ9eMsRLrqoedVQ-261" vertex="1">
            <mxGeometry x="70" y="32.5" width="10" height="15" as="geometry">
              <mxPoint x="5" y="-7" as="offset" />
            </mxGeometry>
          </mxCell>
        </object>
        <object label="%name%" placeholders="1" name="IN1" class_name="InputPort" id="875Q7cJ9eMsRLrqoedVQ-263">
          <mxCell style="triangle;fontSize=14;points=[[0,0.5]];allowArrows=0;verticalAlign=middle;horizontal=1;spacingTop=0;align=right;spacingLeft=0;spacingRight=8;html=1;comic=0;treeFolding=0;treeMoving=0;resizable=0;movableLabel=1;spacing=2;aspect=fixed;fillColor=#000000;metaEdit=1;" parent="875Q7cJ9eMsRLrqoedVQ-261" vertex="1">
            <mxGeometry y="17.5" width="10" height="15" as="geometry">
              <mxPoint x="-11" y="-8" as="offset" />
            </mxGeometry>
          </mxCell>
        </object>
        <object label="%name%" placeholders="1" name="IN2" class_name="InputPort" id="875Q7cJ9eMsRLrqoedVQ-264">
          <mxCell style="triangle;fontSize=14;points=[[0,0.5]];allowArrows=0;verticalAlign=middle;horizontal=1;spacingTop=0;align=right;spacingLeft=0;spacingRight=8;html=1;comic=0;treeFolding=0;treeMoving=0;resizable=0;movableLabel=1;spacing=2;aspect=fixed;fillColor=#000000;metaEdit=1;" parent="875Q7cJ9eMsRLrqoedVQ-261" vertex="1">
            <mxGeometry y="47.5" width="10" height="15" as="geometry">
              <mxPoint x="-13" y="8" as="offset" />
            </mxGeometry>
          </mxCell>
        </object>
        <object label="%value%" placeholders="1" value="2" block_name="twoCt" class_name="ConstantBlock" id="875Q7cJ9eMsRLrqoedVQ-265">
          <mxCell style="ellipse;whiteSpace=wrap;html=1;comic=0;fillColor=#ffffff;fontSize=24;align=center;allowArrows=0;connectable=0;container=1;collapsible=0;recursiveResize=1;direction=west;resizable=0;metaEdit=1;" parent="875Q7cJ9eMsRLrqoedVQ-278" vertex="1">
            <mxGeometry x="198.46510383205373" y="11.052235903335646" width="80" height="80" as="geometry" />
          </mxCell>
        </object>
        <object label="%name%" placeholders="1" name="OUT1" class_name="OutputPort" id="875Q7cJ9eMsRLrqoedVQ-266">
          <mxCell style="triangle;fillColor=#ffffff;fontSize=14;points=[[1,0.5]];allowArrows=0;verticalAlign=middle;horizontal=1;spacingTop=0;align=left;spacingLeft=4;spacingRight=0;html=1;comic=0;treeFolding=0;treeMoving=0;movable=1;resizable=0;rotatable=1;deletable=1;editable=1;connectable=1;movableLabel=1;spacing=2;aspect=fixed;metaEdit=1;" parent="875Q7cJ9eMsRLrqoedVQ-265" vertex="1">
            <mxGeometry x="70" y="32.5" width="10" height="15" as="geometry">
              <mxPoint x="6" y="-7" as="offset" />
            </mxGeometry>
          </mxCell>
        </object>
        <object label="%symbol%" placeholders="1" symbol="&amp;#8543;" class_name="InverterBlock" block_name="inv" id="875Q7cJ9eMsRLrqoedVQ-267">
          <mxCell style="whiteSpace=wrap;html=1;aspect=fixed;comic=0;fillColor=#FFFFFF;fontSize=36;align=center;resizable=0;container=1;collapsible=0;points=[];allowArrows=0;metaEdit=1;connectable=0;" parent="875Q7cJ9eMsRLrqoedVQ-278" vertex="1">
            <mxGeometry x="356.81690104094577" y="11.052235903335646" width="80" height="80" as="geometry" />
          </mxCell>
        </object>
        <object label="%name%" placeholders="1" name="OUT1" class_name="OutputPort" id="875Q7cJ9eMsRLrqoedVQ-268">
          <mxCell style="triangle;fillColor=#ffffff;fontSize=14;points=[[1,0.5]];allowArrows=0;verticalAlign=middle;horizontal=1;spacingTop=0;align=left;spacingLeft=4;spacingRight=0;html=1;comic=0;treeFolding=0;treeMoving=0;movable=1;resizable=0;rotatable=1;deletable=1;editable=1;connectable=1;movableLabel=1;spacing=2;aspect=fixed;metaEdit=1;" parent="875Q7cJ9eMsRLrqoedVQ-267" vertex="1">
            <mxGeometry x="70" y="32.5" width="10" height="15" as="geometry">
              <mxPoint x="5" y="-7" as="offset" />
            </mxGeometry>
          </mxCell>
        </object>
        <object label="%name%" placeholders="1" name="IN1" class_name="InputPort" id="875Q7cJ9eMsRLrqoedVQ-269">
          <mxCell style="triangle;fontSize=14;points=[[0,0.5]];allowArrows=0;verticalAlign=middle;horizontal=1;spacingTop=0;align=right;spacingLeft=0;spacingRight=8;html=1;comic=0;treeFolding=0;treeMoving=0;resizable=0;movableLabel=1;spacing=2;aspect=fixed;fillColor=#000000;metaEdit=1;" parent="875Q7cJ9eMsRLrqoedVQ-267" vertex="1">
            <mxGeometry y="32.5" width="10" height="15" as="geometry">
              <mxPoint x="-13" y="7" as="offset" />
            </mxGeometry>
          </mxCell>
        </object>
        <mxCell id="875Q7cJ9eMsRLrqoedVQ-270" style="edgeStyle=none;curved=1;rounded=0;orthogonalLoop=1;jettySize=auto;html=1;exitX=1;exitY=0.5;exitDx=0;exitDy=0;entryX=0;entryY=0.5;entryDx=0;entryDy=0;fontSize=12;startSize=8;endSize=8;" parent="875Q7cJ9eMsRLrqoedVQ-278" source="875Q7cJ9eMsRLrqoedVQ-266" target="875Q7cJ9eMsRLrqoedVQ-269" edge="1">
          <mxGeometry relative="1" as="geometry" />
        </mxCell>
        <mxCell id="875Q7cJ9eMsRLrqoedVQ-271" style="edgeStyle=none;curved=1;rounded=0;orthogonalLoop=1;jettySize=auto;html=1;exitX=1;exitY=0.5;exitDx=0;exitDy=0;entryX=0;entryY=0.5;entryDx=0;entryDy=0;fontSize=12;startSize=8;endSize=8;" parent="875Q7cJ9eMsRLrqoedVQ-278" source="875Q7cJ9eMsRLrqoedVQ-254" target="875Q7cJ9eMsRLrqoedVQ-264" edge="1">
          <mxGeometry relative="1" as="geometry" />
        </mxCell>
        <mxCell id="875Q7cJ9eMsRLrqoedVQ-272" style="edgeStyle=orthogonalEdgeStyle;rounded=1;orthogonalLoop=1;jettySize=auto;html=1;exitX=1;exitY=0.5;exitDx=0;exitDy=0;entryX=0;entryY=0.5;entryDx=0;entryDy=0;fontSize=12;startSize=8;endSize=8;" parent="875Q7cJ9eMsRLrqoedVQ-278" source="875Q7cJ9eMsRLrqoedVQ-268" target="875Q7cJ9eMsRLrqoedVQ-263" edge="1">
          <mxGeometry relative="1" as="geometry">
            <Array as="points">
              <mxPoint x="476.9458506476915" y="51.473261943796246" />
              <mxPoint x="476.9458506476915" y="147.47319878989018" />
            </Array>
          </mxGeometry>
        </mxCell>
        <mxCell id="875Q7cJ9eMsRLrqoedVQ-273" style="edgeStyle=orthogonalEdgeStyle;rounded=1;orthogonalLoop=1;jettySize=auto;html=1;exitX=1;exitY=0.5;exitDx=0;exitDy=0;entryX=0;entryY=0.5;entryDx=0;entryDy=0;fontSize=12;startSize=8;endSize=8;" parent="875Q7cJ9eMsRLrqoedVQ-278" source="875Q7cJ9eMsRLrqoedVQ-123" target="875Q7cJ9eMsRLrqoedVQ-130" edge="1">
          <mxGeometry relative="1" as="geometry">
            <Array as="points">
              <mxPoint x="629.837241056277" y="51.473261943796246" />
              <mxPoint x="629.837241056277" y="132.31531402471745" />
            </Array>
          </mxGeometry>
        </mxCell>
        <mxCell id="875Q7cJ9eMsRLrqoedVQ-274" style="edgeStyle=none;curved=1;rounded=0;orthogonalLoop=1;jettySize=auto;html=1;exitX=1;exitY=0.5;exitDx=0;exitDy=0;entryX=0;entryY=0.5;entryDx=0;entryDy=0;fontSize=12;startSize=8;endSize=8;" parent="875Q7cJ9eMsRLrqoedVQ-278" source="875Q7cJ9eMsRLrqoedVQ-262" target="875Q7cJ9eMsRLrqoedVQ-131" edge="1">
          <mxGeometry relative="1" as="geometry" />
        </mxCell>
        <mxCell id="875Q7cJ9eMsRLrqoedVQ-260" style="edgeStyle=orthogonalEdgeStyle;rounded=1;orthogonalLoop=1;jettySize=auto;html=1;exitX=1;exitY=0.5;exitDx=0;exitDy=0;entryX=0;entryY=0.5;entryDx=0;entryDy=0;fontSize=12;startSize=8;endSize=8;" parent="875Q7cJ9eMsRLrqoedVQ-278" source="875Q7cJ9eMsRLrqoedVQ-141" target="875Q7cJ9eMsRLrqoedVQ-256" edge="1">
          <mxGeometry relative="1" as="geometry">
            <Array as="points">
              <mxPoint x="149.3214426292941" y="177.78896832023563" />
              <mxPoint x="149.3214426292941" y="223.26262261575383" />
              <mxPoint x="302.21283303787953" y="223.26262261575383" />
              <mxPoint x="302.21283303787953" y="192.94685308540835" />
            </Array>
          </mxGeometry>
        </mxCell>
        <mxCell id="875Q7cJ9eMsRLrqoedVQ-275" style="edgeStyle=orthogonalEdgeStyle;rounded=1;orthogonalLoop=1;jettySize=auto;html=1;exitX=1;exitY=0.5;exitDx=0;exitDy=0;entryX=0;entryY=0.5;entryDx=0;entryDy=0;fontSize=12;startSize=8;endSize=8;" parent="875Q7cJ9eMsRLrqoedVQ-278" source="875Q7cJ9eMsRLrqoedVQ-129" target="875Q7cJ9eMsRLrqoedVQ-138" edge="1">
          <mxGeometry relative="1" as="geometry">
            <Array as="points">
              <mxPoint x="771.8078178642493" y="147.47319878989018" />
              <mxPoint x="771.8078178642493" y="243.4731356359841" />
            </Array>
          </mxGeometry>
        </mxCell>
        <object label="" placeholders="1" class_name="AnalyticFunc" id="875Q7cJ9eMsRLrqoedVQ-399">
          <mxCell style="rounded=0;whiteSpace=wrap;html=1;fillColor=#fff2cc;strokeColor=#d6b656;container=0;connectable=0;allowArrows=0;treeFolding=0;moveCells=0;treeMoving=0;comic=0;rotatable=0;expand=1;autosize=1;resizeWidth=1;resizeHeight=1;metaEdit=1;fontSize=16;" parent="1" vertex="1">
            <mxGeometry x="200" y="520" width="1040" height="480" as="geometry">
              <mxRectangle x="40" y="400" width="50" height="40" as="alternateBounds" />
            </mxGeometry>
          </mxCell>
        </object>
        <object label="AnalyticFunc" placeholders="1" id="875Q7cJ9eMsRLrqoedVQ-400">
          <mxCell style="rounded=0;whiteSpace=wrap;html=1;fillColor=#ffffff;fontSize=18;connectable=0;allowArrows=0;rotatable=0;cloneable=0;deletable=0;" parent="875Q7cJ9eMsRLrqoedVQ-399" vertex="1">
            <mxGeometry x="15.757575757575761" y="26.67076923076923" width="1008.4848484848487" height="53.32923076923076" as="geometry" />
          </mxCell>
        </object>
        <mxCell id="875Q7cJ9eMsRLrqoedVQ-401" value="" style="rounded=0;whiteSpace=wrap;html=1;fillColor=#ffffff;connectable=0;allowArrows=0;container=1;collapsible=0;portConstraintRotation=0;rotatable=0;cloneable=0;deletable=0;recursiveResize=0;fontSize=16;" parent="875Q7cJ9eMsRLrqoedVQ-399" vertex="1">
          <mxGeometry x="15.757575757575761" y="93.32923076923078" width="1008.4848484848487" height="360" as="geometry">
            <mxRectangle x="10" y="70" width="50" height="40" as="alternateBounds" />
          </mxGeometry>
        </mxCell>
        <object label="%value%" placeholders="1" value="1" block_name="oneCt" class_name="ConstantBlock" id="sGnxYjfqu2Hk1xVGTKnI-46">
          <mxCell style="ellipse;whiteSpace=wrap;html=1;comic=0;fillColor=#ffffff;fontSize=24;align=center;allowArrows=0;connectable=0;container=1;collapsible=0;recursiveResize=1;direction=west;resizable=0;metaEdit=1;" vertex="1" parent="875Q7cJ9eMsRLrqoedVQ-401">
            <mxGeometry x="129.97368637834649" y="213.60627943485085" width="80" height="80" as="geometry" />
          </mxCell>
        </object>
        <object label="%name%" placeholders="1" name="OUT1" class_name="OutputPort" id="sGnxYjfqu2Hk1xVGTKnI-47">
          <mxCell style="triangle;fillColor=#ffffff;fontSize=14;points=[[1,0.5]];allowArrows=0;verticalAlign=middle;horizontal=1;spacingTop=0;align=left;spacingLeft=4;spacingRight=0;html=1;comic=0;treeFolding=0;treeMoving=0;movable=1;resizable=0;rotatable=1;deletable=1;editable=1;connectable=1;movableLabel=1;spacing=2;aspect=fixed;metaEdit=1;" vertex="1" parent="sGnxYjfqu2Hk1xVGTKnI-46">
            <mxGeometry x="70" y="32.5" width="10" height="15" as="geometry">
              <mxPoint x="6" y="-7" as="offset" />
            </mxGeometry>
          </mxCell>
        </object>
        <object label="%symbol%" placeholders="1" symbol="-" class_name="NegatorBlock" block_name="neg" id="sGnxYjfqu2Hk1xVGTKnI-48">
          <mxCell style="triangle;whiteSpace=wrap;html=1;comic=0;fontSize=36;align=center;allowArrows=0;recursiveResize=0;resizable=0;fillColor=#FFFFFF;points=[];spacingLeft=-5;container=1;collapsible=0;spacingTop=-6;metaEdit=1;connectable=0;" vertex="1" parent="875Q7cJ9eMsRLrqoedVQ-401">
            <mxGeometry x="291.5270844365989" y="213.60627943485085" width="60" height="80" as="geometry" />
          </mxCell>
        </object>
        <object label="%name%" placeholders="1" name="OUT1" class_name="OutputPort" id="sGnxYjfqu2Hk1xVGTKnI-49">
          <mxCell style="triangle;fillColor=#ffffff;fontSize=14;points=[[1,0.5]];allowArrows=0;verticalAlign=middle;horizontal=1;spacingTop=0;align=left;spacingLeft=4;spacingRight=0;html=1;comic=0;treeFolding=0;treeMoving=0;movable=1;resizable=0;rotatable=1;deletable=1;editable=1;connectable=1;movableLabel=1;spacing=2;aspect=fixed;metaEdit=1;" vertex="1" parent="sGnxYjfqu2Hk1xVGTKnI-48">
            <mxGeometry x="50" y="32.5" width="10" height="15" as="geometry">
              <mxPoint x="5" y="-7" as="offset" />
            </mxGeometry>
          </mxCell>
        </object>
        <object label="%name%" placeholders="1" name="IN1" class_name="InputPort" id="sGnxYjfqu2Hk1xVGTKnI-50">
          <mxCell style="triangle;fontSize=14;points=[[0,0.5]];allowArrows=0;verticalAlign=middle;horizontal=1;spacingTop=0;align=right;spacingLeft=0;spacingRight=8;html=1;comic=0;treeFolding=0;treeMoving=0;resizable=0;movableLabel=1;spacing=2;aspect=fixed;fillColor=#000000;metaEdit=1;" vertex="1" parent="sGnxYjfqu2Hk1xVGTKnI-48">
            <mxGeometry y="32.5" width="10" height="15" as="geometry">
              <mxPoint x="-12" y="8" as="offset" />
            </mxGeometry>
          </mxCell>
        </object>
        <object label="%symbol%" placeholders="1" symbol="&amp;sum;" class_name="AdderBlock" block_name="sum2" numberOfInputs="2" id="sGnxYjfqu2Hk1xVGTKnI-51">
          <mxCell style="whiteSpace=wrap;html=1;aspect=fixed;comic=0;fillColor=#FFFFFF;fontSize=36;align=center;resizable=0;container=1;collapsible=0;points=[];allowArrows=0;spacingTop=-6;metaEdit=1;connectable=0;" vertex="1" parent="875Q7cJ9eMsRLrqoedVQ-401">
            <mxGeometry x="411.68242424242413" y="228.30015698587127" width="80" height="80" as="geometry" />
          </mxCell>
        </object>
        <object label="%name%" placeholders="1" name="OUT1" class_name="OutputPort" id="sGnxYjfqu2Hk1xVGTKnI-52">
          <mxCell style="triangle;fillColor=#ffffff;fontSize=14;points=[[1,0.5]];allowArrows=0;verticalAlign=middle;horizontal=1;spacingTop=0;align=left;spacingLeft=4;spacingRight=0;html=1;comic=0;treeFolding=0;treeMoving=0;movable=1;resizable=0;rotatable=1;deletable=1;editable=1;connectable=1;movableLabel=1;spacing=2;aspect=fixed;metaEdit=1;" vertex="1" parent="sGnxYjfqu2Hk1xVGTKnI-51">
            <mxGeometry x="70" y="32.5" width="10" height="15" as="geometry">
              <mxPoint x="5" y="-7" as="offset" />
            </mxGeometry>
          </mxCell>
        </object>
        <object label="%name%" placeholders="1" name="IN1" class_name="InputPort" id="sGnxYjfqu2Hk1xVGTKnI-53">
          <mxCell style="triangle;fontSize=14;points=[[0,0.5]];allowArrows=0;verticalAlign=middle;horizontal=1;spacingTop=0;align=right;spacingLeft=0;spacingRight=8;html=1;comic=0;treeFolding=0;treeMoving=0;resizable=0;movableLabel=1;spacing=2;aspect=fixed;fillColor=#000000;metaEdit=1;" vertex="1" parent="sGnxYjfqu2Hk1xVGTKnI-51">
            <mxGeometry y="17.5" width="10" height="15" as="geometry">
              <mxPoint x="-13" y="7" as="offset" />
            </mxGeometry>
          </mxCell>
        </object>
        <object label="%name%" placeholders="1" name="IN2" class_name="InputPort" id="sGnxYjfqu2Hk1xVGTKnI-54">
          <mxCell style="triangle;fontSize=14;points=[[0,0.5]];allowArrows=0;verticalAlign=middle;horizontal=1;spacingTop=0;align=right;spacingLeft=0;spacingRight=8;html=1;comic=0;treeFolding=0;treeMoving=0;resizable=0;movableLabel=1;spacing=2;aspect=fixed;fillColor=#000000;metaEdit=1;" vertex="1" parent="sGnxYjfqu2Hk1xVGTKnI-51">
            <mxGeometry y="47.5" width="10" height="15" as="geometry">
              <mxPoint x="-14" y="7" as="offset" />
            </mxGeometry>
          </mxCell>
        </object>
        <object label="%symbol%" placeholders="1" symbol="&amp;sum;" class_name="AdderBlock" block_name="sum1" numberOfInputs="2" id="sGnxYjfqu2Hk1xVGTKnI-55">
          <mxCell style="whiteSpace=wrap;html=1;aspect=fixed;comic=0;fillColor=#FFFFFF;fontSize=36;align=center;resizable=0;container=1;collapsible=0;points=[];allowArrows=0;spacingTop=-6;metaEdit=1;connectable=0;" vertex="1" parent="875Q7cJ9eMsRLrqoedVQ-401">
            <mxGeometry x="411.68242424242413" y="130.3409733124019" width="80" height="80" as="geometry" />
          </mxCell>
        </object>
        <object label="%name%" placeholders="1" name="OUT1" class_name="OutputPort" id="sGnxYjfqu2Hk1xVGTKnI-56">
          <mxCell style="triangle;fillColor=#ffffff;fontSize=14;points=[[1,0.5]];allowArrows=0;verticalAlign=middle;horizontal=1;spacingTop=0;align=left;spacingLeft=4;spacingRight=0;html=1;comic=0;treeFolding=0;treeMoving=0;movable=1;resizable=0;rotatable=1;deletable=1;editable=1;connectable=1;movableLabel=1;spacing=2;aspect=fixed;metaEdit=1;" vertex="1" parent="sGnxYjfqu2Hk1xVGTKnI-55">
            <mxGeometry x="70" y="32.5" width="10" height="15" as="geometry">
              <mxPoint x="5" y="-7" as="offset" />
            </mxGeometry>
          </mxCell>
        </object>
        <object label="%name%" placeholders="1" name="IN1" class_name="InputPort" id="sGnxYjfqu2Hk1xVGTKnI-57">
          <mxCell style="triangle;fontSize=14;points=[[0,0.5]];allowArrows=0;verticalAlign=middle;horizontal=1;spacingTop=0;align=right;spacingLeft=0;spacingRight=8;html=1;comic=0;treeFolding=0;treeMoving=0;resizable=0;movableLabel=1;spacing=2;aspect=fixed;fillColor=#000000;metaEdit=1;" vertex="1" parent="sGnxYjfqu2Hk1xVGTKnI-55">
            <mxGeometry y="17.5" width="10" height="15" as="geometry">
              <mxPoint x="-12" y="7" as="offset" />
            </mxGeometry>
          </mxCell>
        </object>
        <object label="%name%" placeholders="1" name="IN2" class_name="InputPort" id="sGnxYjfqu2Hk1xVGTKnI-58">
          <mxCell style="triangle;fontSize=14;points=[[0,0.5]];allowArrows=0;verticalAlign=middle;horizontal=1;spacingTop=0;align=right;spacingLeft=0;spacingRight=8;html=1;comic=0;treeFolding=0;treeMoving=0;resizable=0;movableLabel=1;spacing=2;aspect=fixed;fillColor=#000000;metaEdit=1;" vertex="1" parent="sGnxYjfqu2Hk1xVGTKnI-55">
            <mxGeometry y="47.5" width="10" height="15" as="geometry">
              <mxPoint x="-12" y="7" as="offset" />
            </mxGeometry>
          </mxCell>
        </object>
        <object label="%symbol%" placeholders="1" symbol="&amp;#8543;" class_name="InverterBlock" block_name="inv" id="sGnxYjfqu2Hk1xVGTKnI-59">
          <mxCell style="whiteSpace=wrap;html=1;aspect=fixed;comic=0;fillColor=#FFFFFF;fontSize=36;align=center;resizable=0;container=1;collapsible=0;points=[];allowArrows=0;metaEdit=1;connectable=0;" vertex="1" parent="875Q7cJ9eMsRLrqoedVQ-401">
            <mxGeometry x="695.41057958223" y="116.62668759811619" width="80" height="80" as="geometry" />
          </mxCell>
        </object>
        <object label="%name%" placeholders="1" name="OUT1" class_name="OutputPort" id="sGnxYjfqu2Hk1xVGTKnI-60">
          <mxCell style="triangle;fillColor=#ffffff;fontSize=14;points=[[1,0.5]];allowArrows=0;verticalAlign=middle;horizontal=1;spacingTop=0;align=left;spacingLeft=4;spacingRight=0;html=1;comic=0;treeFolding=0;treeMoving=0;movable=1;resizable=0;rotatable=1;deletable=1;editable=1;connectable=1;movableLabel=1;spacing=2;aspect=fixed;metaEdit=1;" vertex="1" parent="sGnxYjfqu2Hk1xVGTKnI-59">
            <mxGeometry x="70" y="32.5" width="10" height="15" as="geometry">
              <mxPoint x="8" y="-7" as="offset" />
            </mxGeometry>
          </mxCell>
        </object>
        <object label="%name%" placeholders="1" name="IN1" class_name="InputPort" id="sGnxYjfqu2Hk1xVGTKnI-61">
          <mxCell style="triangle;fontSize=14;points=[[0,0.5]];allowArrows=0;verticalAlign=middle;horizontal=1;spacingTop=0;align=right;spacingLeft=0;spacingRight=8;html=1;comic=0;treeFolding=0;treeMoving=0;resizable=0;movableLabel=1;spacing=2;aspect=fixed;fillColor=#000000;metaEdit=1;" vertex="1" parent="sGnxYjfqu2Hk1xVGTKnI-59">
            <mxGeometry y="32.5" width="10" height="15" as="geometry">
              <mxPoint x="-12" y="7" as="offset" />
            </mxGeometry>
          </mxCell>
        </object>
        <object label="%symbol%" placeholders="1" symbol="x&amp;#8319;" class_name="PowerBlock" block_name="power" id="sGnxYjfqu2Hk1xVGTKnI-62">
          <mxCell style="whiteSpace=wrap;html=1;aspect=fixed;comic=0;fillColor=#FFFFFF;fontSize=36;align=center;resizable=0;container=1;collapsible=0;points=[];allowArrows=0;spacingTop=-3;metaEdit=1;connectable=0;" vertex="1" parent="875Q7cJ9eMsRLrqoedVQ-401">
            <mxGeometry x="554.0513562812591" y="116.62668759811619" width="80" height="80" as="geometry" />
          </mxCell>
        </object>
        <object label="%name%" placeholders="1" name="OUT1" class_name="OutputPort" id="sGnxYjfqu2Hk1xVGTKnI-63">
          <mxCell style="triangle;fillColor=#ffffff;fontSize=14;points=[[1,0.5]];allowArrows=0;verticalAlign=middle;horizontal=1;spacingTop=0;align=left;spacingLeft=4;spacingRight=0;html=1;comic=0;treeFolding=0;treeMoving=0;movable=1;resizable=0;rotatable=1;deletable=1;editable=1;connectable=1;movableLabel=1;spacing=2;aspect=fixed;metaEdit=1;" vertex="1" parent="sGnxYjfqu2Hk1xVGTKnI-62">
            <mxGeometry x="70" y="32.5" width="10" height="15" as="geometry">
              <mxPoint x="5" y="-7" as="offset" />
            </mxGeometry>
          </mxCell>
        </object>
        <object label="%name%" placeholders="1" name="IN1" class_name="InputPort" id="sGnxYjfqu2Hk1xVGTKnI-64">
          <mxCell style="triangle;fontSize=14;points=[[0,0.5]];allowArrows=0;verticalAlign=middle;horizontal=1;spacingTop=0;align=right;spacingLeft=0;spacingRight=8;html=1;comic=0;treeFolding=0;treeMoving=0;resizable=0;movableLabel=1;spacing=2;aspect=fixed;fillColor=#000000;metaEdit=1;" vertex="1" parent="sGnxYjfqu2Hk1xVGTKnI-62">
            <mxGeometry y="17.5" width="10" height="15" as="geometry">
              <mxPoint x="-14" y="7" as="offset" />
            </mxGeometry>
          </mxCell>
        </object>
        <object label="%name%" placeholders="1" name="IN2" class_name="InputPort" id="sGnxYjfqu2Hk1xVGTKnI-65">
          <mxCell style="triangle;fontSize=14;points=[[0,0.5]];allowArrows=0;verticalAlign=middle;horizontal=1;spacingTop=0;align=right;spacingLeft=0;spacingRight=8;html=1;comic=0;treeFolding=0;treeMoving=0;resizable=0;movableLabel=1;spacing=2;aspect=fixed;fillColor=#000000;metaEdit=1;" vertex="1" parent="sGnxYjfqu2Hk1xVGTKnI-62">
            <mxGeometry y="47.5" width="10" height="15" as="geometry">
              <mxPoint x="-13" y="7" as="offset" />
            </mxGeometry>
          </mxCell>
        </object>
        <object label="%symbol%" placeholders="1" symbol="&amp;prod;" class_name="ProductBlock" block_name="prod1" numberOfInputs="2" id="sGnxYjfqu2Hk1xVGTKnI-66">
          <mxCell style="whiteSpace=wrap;html=1;aspect=fixed;comic=0;fillColor=#FFFFFF;fontSize=36;align=center;resizable=0;container=1;collapsible=0;points=[];allowArrows=0;spacingTop=-6;metaEdit=1;connectable=0;" vertex="1" parent="875Q7cJ9eMsRLrqoedVQ-401">
            <mxGeometry x="846.8668902618416" y="213.60627943485085" width="80" height="80" as="geometry" />
          </mxCell>
        </object>
        <object label="%name%" placeholders="1" name="OUT1" class_name="OutputPort" id="sGnxYjfqu2Hk1xVGTKnI-67">
          <mxCell style="triangle;fillColor=#ffffff;fontSize=14;points=[[1,0.5]];allowArrows=0;verticalAlign=middle;horizontal=1;spacingTop=0;align=left;spacingLeft=4;spacingRight=0;html=1;comic=0;treeFolding=0;treeMoving=0;movable=1;resizable=0;rotatable=1;deletable=1;editable=1;connectable=1;movableLabel=1;spacing=2;aspect=fixed;metaEdit=1;" vertex="1" parent="sGnxYjfqu2Hk1xVGTKnI-66">
            <mxGeometry x="70" y="32.5" width="10" height="15" as="geometry">
              <mxPoint x="5" y="-7" as="offset" />
            </mxGeometry>
          </mxCell>
        </object>
        <object label="%name%" placeholders="1" name="IN1" class_name="InputPort" id="sGnxYjfqu2Hk1xVGTKnI-68">
          <mxCell style="triangle;fontSize=14;points=[[0,0.5]];allowArrows=0;verticalAlign=middle;horizontal=1;spacingTop=0;align=right;spacingLeft=0;spacingRight=8;html=1;comic=0;treeFolding=0;treeMoving=0;resizable=0;movableLabel=1;spacing=2;aspect=fixed;fillColor=#000000;metaEdit=1;" vertex="1" parent="sGnxYjfqu2Hk1xVGTKnI-66">
            <mxGeometry y="17.5" width="10" height="15" as="geometry">
              <mxPoint x="-12" y="-7" as="offset" />
            </mxGeometry>
          </mxCell>
        </object>
        <object label="%name%" placeholders="1" name="IN2" class_name="InputPort" id="sGnxYjfqu2Hk1xVGTKnI-69">
          <mxCell style="triangle;fontSize=14;points=[[0,0.5]];allowArrows=0;verticalAlign=middle;horizontal=1;spacingTop=0;align=right;spacingLeft=0;spacingRight=8;html=1;comic=0;treeFolding=0;treeMoving=0;resizable=0;movableLabel=1;spacing=2;aspect=fixed;fillColor=#000000;metaEdit=1;" vertex="1" parent="sGnxYjfqu2Hk1xVGTKnI-66">
            <mxGeometry y="47.5" width="10" height="15" as="geometry">
              <mxPoint x="-13" y="-7" as="offset" />
            </mxGeometry>
          </mxCell>
        </object>
        <mxCell id="sGnxYjfqu2Hk1xVGTKnI-70" style="edgeStyle=orthogonalEdgeStyle;rounded=1;orthogonalLoop=1;jettySize=auto;html=1;exitX=1;exitY=0.5;exitDx=0;exitDy=0;entryX=0;entryY=0.5;entryDx=0;entryDy=0;fontSize=12;startSize=8;endSize=8;" edge="1" parent="875Q7cJ9eMsRLrqoedVQ-401" source="sGnxYjfqu2Hk1xVGTKnI-47" target="sGnxYjfqu2Hk1xVGTKnI-50">
          <mxGeometry relative="1" as="geometry" />
        </mxCell>
        <object label="%value%" placeholders="1" value="2" block_name="twoCt" class_name="ConstantBlock" id="sGnxYjfqu2Hk1xVGTKnI-71">
          <mxCell style="ellipse;whiteSpace=wrap;html=1;comic=0;fillColor=#ffffff;fontSize=24;align=center;allowArrows=0;connectable=0;container=1;collapsible=0;recursiveResize=1;direction=west;resizable=0;metaEdit=1;" vertex="1" parent="875Q7cJ9eMsRLrqoedVQ-401">
            <mxGeometry x="411.68242424242413" y="32.381789638932524" width="80" height="80" as="geometry" />
          </mxCell>
        </object>
        <object label="%name%" placeholders="1" name="OUT1" class_name="OutputPort" id="sGnxYjfqu2Hk1xVGTKnI-72">
          <mxCell style="triangle;fillColor=#ffffff;fontSize=14;points=[[1,0.5]];allowArrows=0;verticalAlign=middle;horizontal=1;spacingTop=0;align=left;spacingLeft=4;spacingRight=0;html=1;comic=0;treeFolding=0;treeMoving=0;movable=1;resizable=0;rotatable=1;deletable=1;editable=1;connectable=1;movableLabel=1;spacing=2;aspect=fixed;metaEdit=1;" vertex="1" parent="sGnxYjfqu2Hk1xVGTKnI-71">
            <mxGeometry x="70" y="32.5" width="10" height="15" as="geometry">
              <mxPoint x="6" y="-7" as="offset" />
            </mxGeometry>
          </mxCell>
        </object>
        <mxCell id="sGnxYjfqu2Hk1xVGTKnI-73" style="edgeStyle=none;curved=1;rounded=0;orthogonalLoop=1;jettySize=auto;html=1;exitX=1;exitY=0.5;exitDx=0;exitDy=0;entryX=0;entryY=0.5;entryDx=0;entryDy=0;fontSize=12;startSize=8;endSize=8;" edge="1" parent="875Q7cJ9eMsRLrqoedVQ-401" source="sGnxYjfqu2Hk1xVGTKnI-63" target="sGnxYjfqu2Hk1xVGTKnI-61">
          <mxGeometry relative="1" as="geometry" />
        </mxCell>
        <mxCell id="sGnxYjfqu2Hk1xVGTKnI-74" style="edgeStyle=orthogonalEdgeStyle;rounded=1;orthogonalLoop=1;jettySize=auto;html=1;exitX=1;exitY=0.5;exitDx=0;exitDy=0;entryX=0;entryY=0.5;entryDx=0;entryDy=0;fontSize=12;startSize=8;endSize=8;" edge="1" parent="875Q7cJ9eMsRLrqoedVQ-401" source="sGnxYjfqu2Hk1xVGTKnI-60" target="sGnxYjfqu2Hk1xVGTKnI-68">
          <mxGeometry relative="1" as="geometry">
            <Array as="points">
              <mxPoint x="806.4785407472785" y="155.81036106750395" />
              <mxPoint x="806.4785407472785" y="238.0960753532182" />
            </Array>
          </mxGeometry>
        </mxCell>
        <mxCell id="sGnxYjfqu2Hk1xVGTKnI-75" style="edgeStyle=none;curved=1;rounded=0;orthogonalLoop=1;jettySize=auto;html=1;exitX=1;exitY=0.5;exitDx=0;exitDy=0;entryX=0;entryY=0.5;entryDx=0;entryDy=0;fontSize=12;startSize=8;endSize=8;" edge="1" parent="875Q7cJ9eMsRLrqoedVQ-401" source="sGnxYjfqu2Hk1xVGTKnI-49" target="sGnxYjfqu2Hk1xVGTKnI-53">
          <mxGeometry relative="1" as="geometry" />
        </mxCell>
        <mxCell id="sGnxYjfqu2Hk1xVGTKnI-76" style="edgeStyle=orthogonalEdgeStyle;rounded=1;orthogonalLoop=1;jettySize=auto;html=1;exitX=1;exitY=0.5;exitDx=0;exitDy=0;entryX=0;entryY=0.5;entryDx=0;entryDy=0;fontSize=12;startSize=8;endSize=8;" edge="1" parent="875Q7cJ9eMsRLrqoedVQ-401" source="sGnxYjfqu2Hk1xVGTKnI-47" target="sGnxYjfqu2Hk1xVGTKnI-58">
          <mxGeometry relative="1" as="geometry">
            <Array as="points">
              <mxPoint x="261" y="254" />
              <mxPoint x="261" y="185" />
              <mxPoint x="412" y="185" />
            </Array>
          </mxGeometry>
        </mxCell>
        <mxCell id="sGnxYjfqu2Hk1xVGTKnI-77" style="edgeStyle=none;curved=1;rounded=0;orthogonalLoop=1;jettySize=auto;html=1;exitX=1;exitY=0.5;exitDx=0;exitDy=0;entryX=0;entryY=0.5;entryDx=0;entryDy=0;fontSize=12;startSize=8;endSize=8;" edge="1" parent="875Q7cJ9eMsRLrqoedVQ-401" source="sGnxYjfqu2Hk1xVGTKnI-291" target="sGnxYjfqu2Hk1xVGTKnI-57">
          <mxGeometry relative="1" as="geometry">
            <mxPoint x="88.80863783465725" y="157.12668759811606" as="sourcePoint" />
          </mxGeometry>
        </mxCell>
        <mxCell id="sGnxYjfqu2Hk1xVGTKnI-78" style="edgeStyle=orthogonalEdgeStyle;rounded=1;orthogonalLoop=1;jettySize=auto;html=1;exitX=1;exitY=0.5;exitDx=0;exitDy=0;entryX=0;entryY=0.5;entryDx=0;entryDy=0;fontSize=12;startSize=8;endSize=8;" edge="1" parent="875Q7cJ9eMsRLrqoedVQ-401" source="sGnxYjfqu2Hk1xVGTKnI-291" target="sGnxYjfqu2Hk1xVGTKnI-54">
          <mxGeometry relative="1" as="geometry">
            <Array as="points">
              <mxPoint x="110" y="157" />
              <mxPoint x="110" y="316" />
              <mxPoint x="342" y="316" />
              <mxPoint x="342" y="283" />
              <mxPoint x="412" y="283" />
            </Array>
            <mxPoint x="88.80863783465725" y="157.12668759811606" as="sourcePoint" />
          </mxGeometry>
        </mxCell>
        <mxCell id="sGnxYjfqu2Hk1xVGTKnI-79" style="edgeStyle=none;curved=1;rounded=0;orthogonalLoop=1;jettySize=auto;html=1;exitX=1;exitY=0.5;exitDx=0;exitDy=0;entryX=0;entryY=0.5;entryDx=0;entryDy=0;fontSize=12;startSize=8;endSize=8;" edge="1" parent="875Q7cJ9eMsRLrqoedVQ-401" source="sGnxYjfqu2Hk1xVGTKnI-52" target="sGnxYjfqu2Hk1xVGTKnI-69">
          <mxGeometry relative="1" as="geometry" />
        </mxCell>
        <mxCell id="sGnxYjfqu2Hk1xVGTKnI-80" style="edgeStyle=orthogonalEdgeStyle;rounded=1;orthogonalLoop=1;jettySize=auto;html=1;exitX=1;exitY=0.5;exitDx=0;exitDy=0;entryX=0;entryY=0.5;entryDx=0;entryDy=0;fontSize=12;startSize=8;endSize=8;" edge="1" parent="875Q7cJ9eMsRLrqoedVQ-401" source="sGnxYjfqu2Hk1xVGTKnI-72" target="sGnxYjfqu2Hk1xVGTKnI-64">
          <mxGeometry relative="1" as="geometry" />
        </mxCell>
        <mxCell id="sGnxYjfqu2Hk1xVGTKnI-81" style="edgeStyle=none;curved=1;rounded=0;orthogonalLoop=1;jettySize=auto;html=1;exitX=1;exitY=0.5;exitDx=0;exitDy=0;entryX=0;entryY=0.5;entryDx=0;entryDy=0;fontSize=12;startSize=8;endSize=8;" edge="1" parent="875Q7cJ9eMsRLrqoedVQ-401" source="sGnxYjfqu2Hk1xVGTKnI-56" target="sGnxYjfqu2Hk1xVGTKnI-65">
          <mxGeometry relative="1" as="geometry" />
        </mxCell>
        <object label="%name%" placeholders="1" name="gt" class_name="OutputPort" id="sGnxYjfqu2Hk1xVGTKnI-82">
          <mxCell style="triangle;fillColor=#ffffff;fontSize=14;points=[[0,0.5],[1,0.5]];allowArrows=0;verticalAlign=middle;horizontal=1;spacingTop=0;align=left;spacingLeft=4;spacingRight=0;html=1;comic=0;treeFolding=0;treeMoving=0;movable=1;resizable=0;rotatable=1;deletable=1;editable=1;connectable=1;movableLabel=1;spacing=2;aspect=fixed;metaEdit=1;" vertex="1" parent="875Q7cJ9eMsRLrqoedVQ-401">
            <mxGeometry x="976.2391232715505" y="246.1030141287284" width="10" height="15" as="geometry">
              <mxPoint x="5" y="-7" as="offset" />
            </mxGeometry>
          </mxCell>
        </object>
        <mxCell id="sGnxYjfqu2Hk1xVGTKnI-83" style="edgeStyle=none;curved=1;rounded=0;orthogonalLoop=1;jettySize=auto;html=1;exitX=1;exitY=0.5;exitDx=0;exitDy=0;entryX=0;entryY=0.5;entryDx=0;entryDy=0;fontSize=12;startSize=8;endSize=8;" edge="1" parent="875Q7cJ9eMsRLrqoedVQ-401" source="sGnxYjfqu2Hk1xVGTKnI-67" target="sGnxYjfqu2Hk1xVGTKnI-82">
          <mxGeometry relative="1" as="geometry" />
        </mxCell>
        <object label="%name%" placeholders="1" name="t" class_name="InputPort" id="sGnxYjfqu2Hk1xVGTKnI-291">
          <mxCell style="triangle;fontSize=14;points=[[0,0.5],[1,0.5]];allowArrows=0;verticalAlign=middle;horizontal=1;spacingTop=0;align=right;spacingLeft=0;spacingRight=8;html=1;comic=0;treeFolding=0;treeMoving=0;resizable=0;movableLabel=1;spacing=2;aspect=fixed;fillColor=#000000;metaEdit=1;" vertex="1" parent="875Q7cJ9eMsRLrqoedVQ-401">
            <mxGeometry x="74.24242424242425" y="149.13076923076926" width="10" height="15" as="geometry">
              <mxPoint x="-4" y="-8" as="offset" />
            </mxGeometry>
          </mxCell>
        </object>
        <object label="" placeholders="1" class_name="AnalyticCalc" id="sGnxYjfqu2Hk1xVGTKnI-136">
          <mxCell style="rounded=0;whiteSpace=wrap;html=1;fillColor=#fff2cc;strokeColor=#d6b656;container=0;connectable=0;allowArrows=0;treeFolding=0;moveCells=0;treeMoving=0;comic=0;rotatable=0;expand=1;autosize=1;resizeWidth=1;resizeHeight=1;metaEdit=1;fontSize=16;" vertex="1" parent="1">
            <mxGeometry x="1320" y="520" width="1040" height="480" as="geometry">
              <mxRectangle x="40" y="400" width="50" height="40" as="alternateBounds" />
            </mxGeometry>
          </mxCell>
        </object>
        <object label="AnalyticCalc" placeholders="1" id="sGnxYjfqu2Hk1xVGTKnI-137">
          <mxCell style="rounded=0;whiteSpace=wrap;html=1;fillColor=#ffffff;fontSize=18;connectable=0;allowArrows=0;rotatable=0;cloneable=0;deletable=0;" vertex="1" parent="sGnxYjfqu2Hk1xVGTKnI-136">
            <mxGeometry x="15.757575757575761" y="26.67076923076923" width="1008.4848484848487" height="53.32923076923077" as="geometry" />
          </mxCell>
        </object>
        <mxCell id="sGnxYjfqu2Hk1xVGTKnI-138" value="" style="rounded=0;whiteSpace=wrap;html=1;fillColor=#ffffff;connectable=0;allowArrows=0;container=1;collapsible=0;portConstraintRotation=0;rotatable=0;cloneable=0;deletable=0;recursiveResize=0;fontSize=16;" vertex="1" parent="sGnxYjfqu2Hk1xVGTKnI-136">
          <mxGeometry x="15.757575757575761" y="93.32923076923076" width="1008.4848484848487" height="359.99999999999994" as="geometry">
            <mxRectangle x="10" y="70" width="50" height="40" as="alternateBounds" />
          </mxGeometry>
        </mxCell>
        <object label="%value%" placeholders="1" value="2" block_name="twoCt" class_name="ConstantBlock" id="sGnxYjfqu2Hk1xVGTKnI-84">
          <mxCell style="ellipse;whiteSpace=wrap;html=1;comic=0;fillColor=#ffffff;fontSize=24;align=center;allowArrows=0;connectable=0;container=1;collapsible=0;recursiveResize=1;direction=west;resizable=0;metaEdit=1;" vertex="1" parent="sGnxYjfqu2Hk1xVGTKnI-138">
            <mxGeometry x="355.1724242424242" y="38.53612510302991" width="80" height="80" as="geometry" />
          </mxCell>
        </object>
        <object label="%name%" placeholders="1" name="OUT1" class_name="OutputPort" id="sGnxYjfqu2Hk1xVGTKnI-85">
          <mxCell style="triangle;fillColor=#ffffff;fontSize=14;points=[[1,0.5]];allowArrows=0;verticalAlign=middle;horizontal=1;spacingTop=0;align=left;spacingLeft=4;spacingRight=0;html=1;comic=0;treeFolding=0;treeMoving=0;movable=1;resizable=0;rotatable=1;deletable=1;editable=1;connectable=1;movableLabel=1;spacing=2;aspect=fixed;metaEdit=1;" vertex="1" parent="sGnxYjfqu2Hk1xVGTKnI-84">
            <mxGeometry x="70" y="32.5" width="10" height="15" as="geometry">
              <mxPoint x="6" y="-7" as="offset" />
            </mxGeometry>
          </mxCell>
        </object>
        <object label="%symbol%" placeholders="1" symbol="&amp;sum;" class_name="AdderBlock" block_name="sum1" numberOfInputs="2" id="sGnxYjfqu2Hk1xVGTKnI-86">
          <mxCell style="whiteSpace=wrap;html=1;aspect=fixed;comic=0;fillColor=#FFFFFF;fontSize=36;align=center;resizable=0;container=1;collapsible=0;points=[];allowArrows=0;spacingTop=-6;metaEdit=1;connectable=0;" vertex="1" parent="sGnxYjfqu2Hk1xVGTKnI-138">
            <mxGeometry x="202.17242424242426" y="226.48214956464284" width="80" height="80" as="geometry" />
          </mxCell>
        </object>
        <object label="%name%" placeholders="1" name="OUT1" class_name="OutputPort" id="sGnxYjfqu2Hk1xVGTKnI-87">
          <mxCell style="triangle;fillColor=#ffffff;fontSize=14;points=[[1,0.5]];allowArrows=0;verticalAlign=middle;horizontal=1;spacingTop=0;align=left;spacingLeft=4;spacingRight=0;html=1;comic=0;treeFolding=0;treeMoving=0;movable=1;resizable=0;rotatable=1;deletable=1;editable=1;connectable=1;movableLabel=1;spacing=2;aspect=fixed;metaEdit=1;" vertex="1" parent="sGnxYjfqu2Hk1xVGTKnI-86">
            <mxGeometry x="70" y="32.5" width="10" height="15" as="geometry">
              <mxPoint x="5" y="-7" as="offset" />
            </mxGeometry>
          </mxCell>
        </object>
        <object label="%name%" placeholders="1" name="IN1" class_name="InputPort" id="sGnxYjfqu2Hk1xVGTKnI-88">
          <mxCell style="triangle;fontSize=14;points=[[0,0.5]];allowArrows=0;verticalAlign=middle;horizontal=1;spacingTop=0;align=right;spacingLeft=0;spacingRight=8;html=1;comic=0;treeFolding=0;treeMoving=0;resizable=0;movableLabel=1;spacing=2;aspect=fixed;fillColor=#000000;metaEdit=1;" vertex="1" parent="sGnxYjfqu2Hk1xVGTKnI-86">
            <mxGeometry y="17.5" width="10" height="15" as="geometry">
              <mxPoint x="-13" y="-8" as="offset" />
            </mxGeometry>
          </mxCell>
        </object>
        <object label="%name%" placeholders="1" name="IN2" class_name="InputPort" id="sGnxYjfqu2Hk1xVGTKnI-89">
          <mxCell style="triangle;fontSize=14;points=[[0,0.5]];allowArrows=0;verticalAlign=middle;horizontal=1;spacingTop=0;align=right;spacingLeft=0;spacingRight=8;html=1;comic=0;treeFolding=0;treeMoving=0;resizable=0;movableLabel=1;spacing=2;aspect=fixed;fillColor=#000000;metaEdit=1;" vertex="1" parent="sGnxYjfqu2Hk1xVGTKnI-86">
            <mxGeometry y="47.5" width="10" height="15" as="geometry">
              <mxPoint x="-14" y="7" as="offset" />
            </mxGeometry>
          </mxCell>
        </object>
        <object label="%value%" placeholders="1" value="1" block_name="oneCt" class_name="ConstantBlock" id="sGnxYjfqu2Hk1xVGTKnI-90">
          <mxCell style="ellipse;whiteSpace=wrap;html=1;comic=0;fillColor=#ffffff;fontSize=24;align=center;allowArrows=0;connectable=0;container=1;collapsible=0;recursiveResize=1;direction=west;resizable=0;metaEdit=1;" vertex="1" parent="sGnxYjfqu2Hk1xVGTKnI-138">
            <mxGeometry x="55.172424242424256" y="139.58237481357452" width="80" height="80" as="geometry" />
          </mxCell>
        </object>
        <object label="%name%" placeholders="1" name="OUT1" class_name="OutputPort" id="sGnxYjfqu2Hk1xVGTKnI-91">
          <mxCell style="triangle;fillColor=#ffffff;fontSize=14;points=[[1,0.5]];allowArrows=0;verticalAlign=middle;horizontal=1;spacingTop=0;align=left;spacingLeft=4;spacingRight=0;html=1;comic=0;treeFolding=0;treeMoving=0;movable=1;resizable=0;rotatable=1;deletable=1;editable=1;connectable=1;movableLabel=1;spacing=2;aspect=fixed;metaEdit=1;" vertex="1" parent="sGnxYjfqu2Hk1xVGTKnI-90">
            <mxGeometry x="70" y="32.5" width="10" height="15" as="geometry">
              <mxPoint x="6" y="-7" as="offset" />
            </mxGeometry>
          </mxCell>
        </object>
        <object label="%symbol%" placeholders="1" symbol="&amp;sum;" class_name="AdderBlock" block_name="sum2" numberOfInputs="2" id="sGnxYjfqu2Hk1xVGTKnI-96">
          <mxCell style="whiteSpace=wrap;html=1;aspect=fixed;comic=0;fillColor=#FFFFFF;fontSize=36;align=center;resizable=0;container=1;collapsible=0;points=[];allowArrows=0;spacingTop=-6;metaEdit=1;connectable=0;" vertex="1" parent="sGnxYjfqu2Hk1xVGTKnI-138">
            <mxGeometry x="656.1724242424242" y="211.32521210806115" width="80" height="80" as="geometry" />
          </mxCell>
        </object>
        <object label="%name%" placeholders="1" name="OUT1" class_name="OutputPort" id="sGnxYjfqu2Hk1xVGTKnI-97">
          <mxCell style="triangle;fillColor=#ffffff;fontSize=14;points=[[1,0.5]];allowArrows=0;verticalAlign=middle;horizontal=1;spacingTop=0;align=left;spacingLeft=4;spacingRight=0;html=1;comic=0;treeFolding=0;treeMoving=0;movable=1;resizable=0;rotatable=1;deletable=1;editable=1;connectable=1;movableLabel=1;spacing=2;aspect=fixed;metaEdit=1;" vertex="1" parent="sGnxYjfqu2Hk1xVGTKnI-96">
            <mxGeometry x="70" y="32.5" width="10" height="15" as="geometry">
              <mxPoint x="5" y="-7" as="offset" />
            </mxGeometry>
          </mxCell>
        </object>
        <object label="%name%" placeholders="1" name="IN1" class_name="InputPort" id="sGnxYjfqu2Hk1xVGTKnI-98">
          <mxCell style="triangle;fontSize=14;points=[[0,0.5]];allowArrows=0;verticalAlign=middle;horizontal=1;spacingTop=0;align=right;spacingLeft=0;spacingRight=8;html=1;comic=0;treeFolding=0;treeMoving=0;resizable=0;movableLabel=1;spacing=2;aspect=fixed;fillColor=#000000;metaEdit=1;" vertex="1" parent="sGnxYjfqu2Hk1xVGTKnI-96">
            <mxGeometry y="17.5" width="10" height="15" as="geometry">
              <mxPoint x="-12" y="7" as="offset" />
            </mxGeometry>
          </mxCell>
        </object>
        <object label="%name%" placeholders="1" name="IN2" class_name="InputPort" id="sGnxYjfqu2Hk1xVGTKnI-99">
          <mxCell style="triangle;fontSize=14;points=[[0,0.5]];allowArrows=0;verticalAlign=middle;horizontal=1;spacingTop=0;align=right;spacingLeft=0;spacingRight=8;html=1;comic=0;treeFolding=0;treeMoving=0;resizable=0;movableLabel=1;spacing=2;aspect=fixed;fillColor=#000000;metaEdit=1;" vertex="1" parent="sGnxYjfqu2Hk1xVGTKnI-96">
            <mxGeometry y="47.5" width="10" height="15" as="geometry">
              <mxPoint x="-13" y="7" as="offset" />
            </mxGeometry>
          </mxCell>
        </object>
        <object label="math:&lt;br style=&quot;font-size: 14px&quot;&gt;&lt;b&gt;%block_operator%&lt;/b&gt;" placeholders="1" class_name="GenericBlock" block_name="log" block_operator="&quot;log&quot;" id="sGnxYjfqu2Hk1xVGTKnI-100">
          <mxCell style="whiteSpace=wrap;html=1;aspect=fixed;comic=0;fillColor=#FFFFFF;fontSize=14;align=center;resizable=0;container=1;collapsible=0;points=[];allowArrows=0;metaEdit=1;connectable=0;" vertex="1" parent="sGnxYjfqu2Hk1xVGTKnI-138">
            <mxGeometry x="505.1724242424242" y="226.48214956464284" width="80" height="80" as="geometry" />
          </mxCell>
        </object>
        <object label="%name%" placeholders="1" name="OUT1" class_name="OutputPort" id="sGnxYjfqu2Hk1xVGTKnI-101">
          <mxCell style="triangle;fillColor=#ffffff;fontSize=14;points=[[1,0.5]];allowArrows=0;verticalAlign=middle;horizontal=1;spacingTop=0;align=left;spacingLeft=4;spacingRight=0;html=1;comic=0;treeFolding=0;treeMoving=0;movable=1;resizable=0;rotatable=1;deletable=1;editable=1;connectable=1;movableLabel=1;spacing=2;aspect=fixed;metaEdit=1;" vertex="1" parent="sGnxYjfqu2Hk1xVGTKnI-100">
            <mxGeometry x="70" y="32.5" width="10" height="15" as="geometry">
              <mxPoint x="5" y="-7" as="offset" />
            </mxGeometry>
          </mxCell>
        </object>
        <object label="%name%" placeholders="1" name="IN1" class_name="InputPort" id="sGnxYjfqu2Hk1xVGTKnI-102">
          <mxCell style="triangle;fontSize=14;points=[[0,0.5]];allowArrows=0;verticalAlign=middle;horizontal=1;spacingTop=0;align=right;spacingLeft=0;spacingRight=8;html=1;comic=0;treeFolding=0;treeMoving=0;resizable=0;movableLabel=1;spacing=2;aspect=fixed;fillColor=#000000;metaEdit=1;" vertex="1" parent="sGnxYjfqu2Hk1xVGTKnI-100">
            <mxGeometry y="32.5" width="10" height="15" as="geometry">
              <mxPoint x="-12" y="-8" as="offset" />
            </mxGeometry>
          </mxCell>
        </object>
        <mxCell id="sGnxYjfqu2Hk1xVGTKnI-103" style="edgeStyle=none;curved=1;rounded=0;orthogonalLoop=1;jettySize=auto;html=1;exitX=1;exitY=0.5;exitDx=0;exitDy=0;entryX=0;entryY=0.5;entryDx=0;entryDy=0;fontSize=12;startSize=8;endSize=8;" edge="1" parent="sGnxYjfqu2Hk1xVGTKnI-138" source="sGnxYjfqu2Hk1xVGTKnI-87" target="sGnxYjfqu2Hk1xVGTKnI-102">
          <mxGeometry relative="1" as="geometry" />
        </mxCell>
        <object label="%symbol%" placeholders="1" symbol="&amp;#8543;" class_name="InverterBlock" block_name="inv" id="sGnxYjfqu2Hk1xVGTKnI-105">
          <mxCell style="whiteSpace=wrap;html=1;aspect=fixed;comic=0;fillColor=#FFFFFF;fontSize=36;align=center;resizable=0;container=1;collapsible=0;points=[];allowArrows=0;metaEdit=1;connectable=0;" vertex="1" parent="sGnxYjfqu2Hk1xVGTKnI-138">
            <mxGeometry x="355.1724242424242" y="139.58237481357452" width="80" height="80" as="geometry" />
          </mxCell>
        </object>
        <object label="%name%" placeholders="1" name="OUT1" class_name="OutputPort" id="sGnxYjfqu2Hk1xVGTKnI-106">
          <mxCell style="triangle;fillColor=#ffffff;fontSize=14;points=[[1,0.5]];allowArrows=0;verticalAlign=middle;horizontal=1;spacingTop=0;align=left;spacingLeft=4;spacingRight=0;html=1;comic=0;treeFolding=0;treeMoving=0;movable=1;resizable=0;rotatable=1;deletable=1;editable=1;connectable=1;movableLabel=1;spacing=2;aspect=fixed;metaEdit=1;" vertex="1" parent="sGnxYjfqu2Hk1xVGTKnI-105">
            <mxGeometry x="70" y="32.5" width="10" height="15" as="geometry">
              <mxPoint x="5" y="-7" as="offset" />
            </mxGeometry>
          </mxCell>
        </object>
        <object label="%name%" placeholders="1" name="IN1" class_name="InputPort" id="sGnxYjfqu2Hk1xVGTKnI-107">
          <mxCell style="triangle;fontSize=14;points=[[0,0.5]];allowArrows=0;verticalAlign=middle;horizontal=1;spacingTop=0;align=right;spacingLeft=0;spacingRight=8;html=1;comic=0;treeFolding=0;treeMoving=0;resizable=0;movableLabel=1;spacing=2;aspect=fixed;fillColor=#000000;metaEdit=1;" vertex="1" parent="sGnxYjfqu2Hk1xVGTKnI-105">
            <mxGeometry y="32.5" width="10" height="15" as="geometry">
              <mxPoint x="-13" y="-7" as="offset" />
            </mxGeometry>
          </mxCell>
        </object>
        <object label="%symbol%" placeholders="1" symbol="&amp;prod;" class_name="ProductBlock" block_name="prod" numberOfInputs="2" id="sGnxYjfqu2Hk1xVGTKnI-108">
          <mxCell style="whiteSpace=wrap;html=1;aspect=fixed;comic=0;fillColor=#FFFFFF;fontSize=36;align=center;resizable=0;container=1;collapsible=0;points=[];allowArrows=0;spacingTop=-6;metaEdit=1;connectable=0;" vertex="1" parent="sGnxYjfqu2Hk1xVGTKnI-138">
            <mxGeometry x="505.1724242424242" y="124.42543735699282" width="80" height="80" as="geometry" />
          </mxCell>
        </object>
        <object label="%name%" placeholders="1" name="OUT1" class_name="OutputPort" id="sGnxYjfqu2Hk1xVGTKnI-109">
          <mxCell style="triangle;fillColor=#ffffff;fontSize=14;points=[[1,0.5]];allowArrows=0;verticalAlign=middle;horizontal=1;spacingTop=0;align=left;spacingLeft=4;spacingRight=0;html=1;comic=0;treeFolding=0;treeMoving=0;movable=1;resizable=0;rotatable=1;deletable=1;editable=1;connectable=1;movableLabel=1;spacing=2;aspect=fixed;metaEdit=1;" vertex="1" parent="sGnxYjfqu2Hk1xVGTKnI-108">
            <mxGeometry x="70" y="32.5" width="10" height="15" as="geometry">
              <mxPoint x="5" y="-7" as="offset" />
            </mxGeometry>
          </mxCell>
        </object>
        <object label="%name%" placeholders="1" name="IN1" class_name="InputPort" id="sGnxYjfqu2Hk1xVGTKnI-110">
          <mxCell style="triangle;fontSize=14;points=[[0,0.5]];allowArrows=0;verticalAlign=middle;horizontal=1;spacingTop=0;align=right;spacingLeft=0;spacingRight=8;html=1;comic=0;treeFolding=0;treeMoving=0;resizable=0;movableLabel=1;spacing=2;aspect=fixed;fillColor=#000000;metaEdit=1;" vertex="1" parent="sGnxYjfqu2Hk1xVGTKnI-108">
            <mxGeometry y="17.5" width="10" height="15" as="geometry">
              <mxPoint x="-13" y="-7" as="offset" />
            </mxGeometry>
          </mxCell>
        </object>
        <object label="%name%" placeholders="1" name="IN2" class_name="InputPort" id="sGnxYjfqu2Hk1xVGTKnI-111">
          <mxCell style="triangle;fontSize=14;points=[[0,0.5]];allowArrows=0;verticalAlign=middle;horizontal=1;spacingTop=0;align=right;spacingLeft=0;spacingRight=8;html=1;comic=0;treeFolding=0;treeMoving=0;resizable=0;movableLabel=1;spacing=2;aspect=fixed;fillColor=#000000;metaEdit=1;" vertex="1" parent="sGnxYjfqu2Hk1xVGTKnI-108">
            <mxGeometry y="47.5" width="10" height="15" as="geometry">
              <mxPoint x="-14" y="7" as="offset" />
            </mxGeometry>
          </mxCell>
        </object>
        <mxCell id="sGnxYjfqu2Hk1xVGTKnI-112" style="edgeStyle=orthogonalEdgeStyle;rounded=1;orthogonalLoop=1;jettySize=auto;html=1;exitX=1;exitY=0.5;exitDx=0;exitDy=0;entryX=0;entryY=0.5;entryDx=0;entryDy=0;fontSize=12;startSize=8;endSize=8;" edge="1" parent="sGnxYjfqu2Hk1xVGTKnI-138" source="sGnxYjfqu2Hk1xVGTKnI-87" target="sGnxYjfqu2Hk1xVGTKnI-107">
          <mxGeometry relative="1" as="geometry">
            <Array as="points">
              <mxPoint x="325.1724242424242" y="266.9006494488607" />
              <mxPoint x="325.1724242424242" y="180.00087469779234" />
            </Array>
          </mxGeometry>
        </mxCell>
        <mxCell id="sGnxYjfqu2Hk1xVGTKnI-114" style="edgeStyle=none;curved=1;rounded=0;orthogonalLoop=1;jettySize=auto;html=1;exitX=1;exitY=0.5;exitDx=0;exitDy=0;entryX=0;entryY=0.5;entryDx=0;entryDy=0;fontSize=12;startSize=8;endSize=8;" edge="1" parent="sGnxYjfqu2Hk1xVGTKnI-138" source="sGnxYjfqu2Hk1xVGTKnI-106" target="sGnxYjfqu2Hk1xVGTKnI-111">
          <mxGeometry relative="1" as="geometry" />
        </mxCell>
        <mxCell id="sGnxYjfqu2Hk1xVGTKnI-115" style="edgeStyle=orthogonalEdgeStyle;rounded=1;orthogonalLoop=1;jettySize=auto;html=1;exitX=1;exitY=0.5;exitDx=0;exitDy=0;entryX=0;entryY=0.5;entryDx=0;entryDy=0;fontSize=12;startSize=8;endSize=8;" edge="1" parent="sGnxYjfqu2Hk1xVGTKnI-138" source="sGnxYjfqu2Hk1xVGTKnI-85" target="sGnxYjfqu2Hk1xVGTKnI-110">
          <mxGeometry relative="1" as="geometry">
            <Array as="points">
              <mxPoint x="465.1724242424242" y="78.95462498724774" />
              <mxPoint x="465.1724242424242" y="149.68699978462897" />
            </Array>
          </mxGeometry>
        </mxCell>
        <mxCell id="sGnxYjfqu2Hk1xVGTKnI-116" style="edgeStyle=orthogonalEdgeStyle;rounded=1;orthogonalLoop=1;jettySize=auto;html=1;exitX=1;exitY=0.5;exitDx=0;exitDy=0;entryX=0;entryY=0.5;entryDx=0;entryDy=0;fontSize=12;startSize=8;endSize=8;" edge="1" parent="sGnxYjfqu2Hk1xVGTKnI-138" source="sGnxYjfqu2Hk1xVGTKnI-109" target="sGnxYjfqu2Hk1xVGTKnI-98">
          <mxGeometry relative="1" as="geometry" />
        </mxCell>
        <mxCell id="sGnxYjfqu2Hk1xVGTKnI-117" style="edgeStyle=none;curved=1;rounded=0;orthogonalLoop=1;jettySize=auto;html=1;exitX=1;exitY=0.5;exitDx=0;exitDy=0;entryX=0;entryY=0.5;entryDx=0;entryDy=0;fontSize=12;startSize=8;endSize=8;" edge="1" parent="sGnxYjfqu2Hk1xVGTKnI-138" source="sGnxYjfqu2Hk1xVGTKnI-101" target="sGnxYjfqu2Hk1xVGTKnI-99">
          <mxGeometry relative="1" as="geometry" />
        </mxCell>
        <object label="%symbol%" placeholders="1" symbol="&amp;sum;" class_name="AdderBlock" block_name="sum3" numberOfInputs="2" id="sGnxYjfqu2Hk1xVGTKnI-120">
          <mxCell style="whiteSpace=wrap;html=1;aspect=fixed;comic=0;fillColor=#FFFFFF;fontSize=36;align=center;resizable=0;container=1;collapsible=0;points=[];allowArrows=0;spacingTop=-6;metaEdit=1;connectable=0;" vertex="1" parent="sGnxYjfqu2Hk1xVGTKnI-138">
            <mxGeometry x="833.1724242424243" y="196.16827465147946" width="80" height="80" as="geometry" />
          </mxCell>
        </object>
        <object label="%name%" placeholders="1" name="OUT1" class_name="OutputPort" id="sGnxYjfqu2Hk1xVGTKnI-121">
          <mxCell style="triangle;fillColor=#ffffff;fontSize=14;points=[[1,0.5]];allowArrows=0;verticalAlign=middle;horizontal=1;spacingTop=0;align=left;spacingLeft=4;spacingRight=0;html=1;comic=0;treeFolding=0;treeMoving=0;movable=1;resizable=0;rotatable=1;deletable=1;editable=1;connectable=1;movableLabel=1;spacing=2;aspect=fixed;metaEdit=1;" vertex="1" parent="sGnxYjfqu2Hk1xVGTKnI-120">
            <mxGeometry x="70" y="32.5" width="10" height="15" as="geometry">
              <mxPoint x="5" y="-7" as="offset" />
            </mxGeometry>
          </mxCell>
        </object>
        <object label="%name%" placeholders="1" name="IN1" class_name="InputPort" id="sGnxYjfqu2Hk1xVGTKnI-122">
          <mxCell style="triangle;fontSize=14;points=[[0,0.5]];allowArrows=0;verticalAlign=middle;horizontal=1;spacingTop=0;align=right;spacingLeft=0;spacingRight=8;html=1;comic=0;treeFolding=0;treeMoving=0;resizable=0;movableLabel=1;spacing=2;aspect=fixed;fillColor=#000000;metaEdit=1;" vertex="1" parent="sGnxYjfqu2Hk1xVGTKnI-120">
            <mxGeometry y="17.5" width="10" height="15" as="geometry">
              <mxPoint x="-12" y="7" as="offset" />
            </mxGeometry>
          </mxCell>
        </object>
        <object label="%name%" placeholders="1" name="IN2" class_name="InputPort" id="sGnxYjfqu2Hk1xVGTKnI-123">
          <mxCell style="triangle;fontSize=14;points=[[0,0.5]];allowArrows=0;verticalAlign=middle;horizontal=1;spacingTop=0;align=right;spacingLeft=0;spacingRight=8;html=1;comic=0;treeFolding=0;treeMoving=0;resizable=0;movableLabel=1;spacing=2;aspect=fixed;fillColor=#000000;metaEdit=1;" vertex="1" parent="sGnxYjfqu2Hk1xVGTKnI-120">
            <mxGeometry y="47.5" width="10" height="15" as="geometry">
              <mxPoint x="-12" y="7" as="offset" />
            </mxGeometry>
          </mxCell>
        </object>
        <object label="%name%" placeholders="1" name="I" class_name="OutputPort" id="sGnxYjfqu2Hk1xVGTKnI-126">
          <mxCell style="triangle;fillColor=#ffffff;fontSize=14;points=[[0,0.5],[1,0.5]];allowArrows=0;verticalAlign=middle;horizontal=1;spacingTop=0;align=left;spacingLeft=4;spacingRight=0;html=1;comic=0;treeFolding=0;treeMoving=0;movable=1;resizable=0;rotatable=1;deletable=1;editable=1;connectable=1;movableLabel=1;spacing=2;aspect=fixed;metaEdit=1;" vertex="1" parent="sGnxYjfqu2Hk1xVGTKnI-138">
            <mxGeometry x="975.1724242424243" y="229.0083058074065" width="10" height="15" as="geometry">
              <mxPoint x="5" y="-7" as="offset" />
            </mxGeometry>
          </mxCell>
        </object>
        <mxCell id="sGnxYjfqu2Hk1xVGTKnI-127" style="edgeStyle=none;curved=1;rounded=0;orthogonalLoop=1;jettySize=auto;html=1;exitX=1;exitY=0.5;exitDx=0;exitDy=0;entryX=0;entryY=0.5;entryDx=0;entryDy=0;fontSize=12;startSize=8;endSize=8;" edge="1" parent="sGnxYjfqu2Hk1xVGTKnI-138" source="sGnxYjfqu2Hk1xVGTKnI-121" target="sGnxYjfqu2Hk1xVGTKnI-126">
          <mxGeometry relative="1" as="geometry" />
        </mxCell>
        <object label="&#x9;%symbol%" class_name="TimeBlock" block_name="clock" placeholders="1" symbol="&amp;#128336;" id="sGnxYjfqu2Hk1xVGTKnI-128">
          <mxCell style="whiteSpace=wrap;html=1;aspect=fixed;connectable=0;allowArrows=0;container=1;collapsible=0;resizable=0;fontSize=45;metaEdit=1;" vertex="1" parent="sGnxYjfqu2Hk1xVGTKnI-138">
            <mxGeometry x="55.172424242424256" y="240.6286245241191" width="80" height="80" as="geometry" />
          </mxCell>
        </object>
        <object label="%name%" placeholders="1" name="OUT1" class_name="OutputPort" id="sGnxYjfqu2Hk1xVGTKnI-129">
          <mxCell style="triangle;fillColor=#ffffff;fontSize=14;points=[[1,0.5]];allowArrows=0;verticalAlign=middle;horizontal=1;spacingTop=0;align=left;spacingLeft=4;spacingRight=0;html=1;comic=0;treeFolding=0;treeMoving=0;movable=1;resizable=0;rotatable=1;deletable=1;editable=1;connectable=1;movableLabel=1;spacing=2;aspect=fixed;metaEdit=1;" vertex="1" parent="sGnxYjfqu2Hk1xVGTKnI-128">
            <mxGeometry x="70" y="33" width="10" height="15" as="geometry">
              <mxPoint x="5" y="-7" as="offset" />
            </mxGeometry>
          </mxCell>
        </object>
        <mxCell id="sGnxYjfqu2Hk1xVGTKnI-130" style="edgeStyle=none;curved=1;rounded=0;orthogonalLoop=1;jettySize=auto;html=1;exitX=1;exitY=0.5;exitDx=0;exitDy=0;entryX=0;entryY=0.5;entryDx=0;entryDy=0;fontSize=12;startSize=8;endSize=8;" edge="1" parent="sGnxYjfqu2Hk1xVGTKnI-138" source="sGnxYjfqu2Hk1xVGTKnI-129" target="sGnxYjfqu2Hk1xVGTKnI-89">
          <mxGeometry relative="1" as="geometry" />
        </mxCell>
        <mxCell id="sGnxYjfqu2Hk1xVGTKnI-131" style="edgeStyle=orthogonalEdgeStyle;rounded=1;orthogonalLoop=1;jettySize=auto;html=1;exitX=1;exitY=0.5;exitDx=0;exitDy=0;entryX=0;entryY=0.5;entryDx=0;entryDy=0;fontSize=12;startSize=8;endSize=8;strokeColor=default;" edge="1" parent="sGnxYjfqu2Hk1xVGTKnI-138" source="sGnxYjfqu2Hk1xVGTKnI-91" target="sGnxYjfqu2Hk1xVGTKnI-88">
          <mxGeometry relative="1" as="geometry">
            <Array as="points">
              <mxPoint x="165.17242424242426" y="180.00087469779234" />
              <mxPoint x="165.17242424242426" y="251.743711992279" />
            </Array>
          </mxGeometry>
        </mxCell>
        <mxCell id="sGnxYjfqu2Hk1xVGTKnI-132" style="edgeStyle=none;curved=1;rounded=0;orthogonalLoop=1;jettySize=auto;html=1;exitX=1;exitY=0.5;exitDx=0;exitDy=0;entryX=0;entryY=0.5;entryDx=0;entryDy=0;fontSize=12;startSize=8;endSize=8;" edge="1" parent="sGnxYjfqu2Hk1xVGTKnI-138" source="sGnxYjfqu2Hk1xVGTKnI-97" target="sGnxYjfqu2Hk1xVGTKnI-123">
          <mxGeometry relative="1" as="geometry" />
        </mxCell>
        <object label="%symbol%" placeholders="1" symbol="-" class_name="NegatorBlock" block_name="" id="sGnxYjfqu2Hk1xVGTKnI-221">
          <mxCell style="triangle;whiteSpace=wrap;html=1;comic=0;fontSize=36;align=center;allowArrows=0;recursiveResize=0;resizable=0;fillColor=#FFFFFF;points=[];spacingLeft=-5;container=1;collapsible=0;spacingTop=-6;metaEdit=1;connectable=0;" vertex="1" parent="sGnxYjfqu2Hk1xVGTKnI-138">
            <mxGeometry x="656.1724242424242" y="38.54076923076923" width="60" height="80" as="geometry" />
          </mxCell>
        </object>
        <object label="%name%" placeholders="1" name="OUT1" class_name="OutputPort" id="sGnxYjfqu2Hk1xVGTKnI-222">
          <mxCell style="triangle;fillColor=#ffffff;fontSize=14;points=[[1,0.5]];allowArrows=0;verticalAlign=middle;horizontal=1;spacingTop=0;align=left;spacingLeft=4;spacingRight=0;html=1;comic=0;treeFolding=0;treeMoving=0;movable=1;resizable=0;rotatable=1;deletable=1;editable=1;connectable=1;movableLabel=1;spacing=2;aspect=fixed;metaEdit=1;" vertex="1" parent="sGnxYjfqu2Hk1xVGTKnI-221">
            <mxGeometry x="50" y="32.5" width="10" height="15" as="geometry">
              <mxPoint x="5" y="-7" as="offset" />
            </mxGeometry>
          </mxCell>
        </object>
        <object label="%name%" placeholders="1" name="IN1" class_name="InputPort" id="sGnxYjfqu2Hk1xVGTKnI-223">
          <mxCell style="triangle;fontSize=14;points=[[0,0.5]];allowArrows=0;verticalAlign=middle;horizontal=1;spacingTop=0;align=right;spacingLeft=0;spacingRight=8;html=1;comic=0;treeFolding=0;treeMoving=0;resizable=0;movableLabel=1;spacing=2;aspect=fixed;fillColor=#000000;metaEdit=1;" vertex="1" parent="sGnxYjfqu2Hk1xVGTKnI-221">
            <mxGeometry y="32.5" width="10" height="15" as="geometry">
              <mxPoint x="-13" y="7" as="offset" />
            </mxGeometry>
          </mxCell>
        </object>
        <mxCell id="sGnxYjfqu2Hk1xVGTKnI-224" style="edgeStyle=none;curved=1;rounded=0;orthogonalLoop=1;jettySize=auto;html=1;exitX=1;exitY=0.5;exitDx=0;exitDy=0;entryX=0;entryY=0.5;entryDx=0;entryDy=0;fontSize=12;startSize=8;endSize=8;" edge="1" parent="sGnxYjfqu2Hk1xVGTKnI-138" source="sGnxYjfqu2Hk1xVGTKnI-85" target="sGnxYjfqu2Hk1xVGTKnI-223">
          <mxGeometry relative="1" as="geometry" />
        </mxCell>
        <mxCell id="sGnxYjfqu2Hk1xVGTKnI-225" style="edgeStyle=orthogonalEdgeStyle;rounded=1;orthogonalLoop=1;jettySize=auto;html=1;exitX=1;exitY=0.5;exitDx=0;exitDy=0;entryX=0;entryY=0.5;entryDx=0;entryDy=0;fontSize=12;startSize=8;endSize=8;" edge="1" parent="sGnxYjfqu2Hk1xVGTKnI-138" source="sGnxYjfqu2Hk1xVGTKnI-222" target="sGnxYjfqu2Hk1xVGTKnI-122">
          <mxGeometry relative="1" as="geometry">
            <Array as="points">
              <mxPoint x="784" y="79" />
              <mxPoint x="784" y="221" />
            </Array>
          </mxGeometry>
        </mxCell>
        <object label="%symbol%" class_name="FWDEulerInt" block_name="fwdeulter" symbol="$$\ \int^{FE}$$" placeholders="1" id="sGnxYjfqu2Hk1xVGTKnI-226">
          <mxCell style="shape=stencil(7ZVNDoMgEIVPw95IF24b294DFSuRggGq7e3LjzYSS6NRdybGMM7jyzi8CQCmskINBnFUAXgBcZxE+qXDzg+RbHCu3LcWCYIyil1GKsFr3JFC9QTCKiyIMll4BdFZa8zzXcA054xpGuFMepKJEMS3kHakylBe3wV/suIfbVA3yBQ60f1UD3sevDUterkf7Fvy9iJd6lIqJWxEhftgEx972qncZCvuZticcomXbbWGC/jDd2XAciNRyQWeb8qSUOoGKVjxYeTDyOuOe6eDWd/AWXM3SOeOiYUGplAvbNrdfTbzAQ==);whiteSpace=wrap;html=1;aspect=fixed;resizable=0;container=1;collapsible=0;spacingLeft=5;connectable=0;allowArrows=0;fontSize=11;spacingTop=7;metaEdit=1;align=center;fontStyle=0" vertex="1" parent="1">
            <mxGeometry x="-400" y="-580" width="80" height="80" as="geometry" />
          </mxCell>
        </object>
        <object label="%name%" placeholders="1" name="OUT1" class_name="OutputPort" id="sGnxYjfqu2Hk1xVGTKnI-227">
          <mxCell style="triangle;fillColor=#ffffff;fontSize=14;points=[[1,0.5]];allowArrows=0;verticalAlign=middle;horizontal=1;spacingTop=0;align=left;spacingLeft=4;spacingRight=0;html=1;comic=0;treeFolding=0;treeMoving=0;movable=1;resizable=0;rotatable=1;deletable=1;editable=1;connectable=1;movableLabel=1;spacing=2;aspect=fixed;metaEdit=1;" vertex="1" parent="sGnxYjfqu2Hk1xVGTKnI-226">
            <mxGeometry x="70" y="32.75" width="10" height="15" as="geometry">
              <mxPoint x="5" y="-7" as="offset" />
            </mxGeometry>
          </mxCell>
        </object>
        <object label="%name%" placeholders="1" name="IC" class_name="InputPort" id="sGnxYjfqu2Hk1xVGTKnI-228">
          <mxCell style="triangle;fontSize=14;points=[[0,0.5]];allowArrows=0;verticalAlign=middle;horizontal=1;spacingTop=0;align=right;spacingLeft=0;spacingRight=8;html=1;comic=0;treeFolding=0;treeMoving=0;resizable=0;movableLabel=1;spacing=2;aspect=fixed;fillColor=#000000;metaEdit=1;" vertex="1" parent="sGnxYjfqu2Hk1xVGTKnI-226">
            <mxGeometry y="16.120000000000005" width="10" height="15" as="geometry">
              <mxPoint x="-4" y="-8" as="offset" />
            </mxGeometry>
          </mxCell>
        </object>
        <object label="%name%" placeholders="1" name="IN1" class_name="InputPort" id="sGnxYjfqu2Hk1xVGTKnI-229">
          <mxCell style="triangle;fontSize=14;points=[[0,0.5]];allowArrows=0;verticalAlign=middle;horizontal=1;spacingTop=0;align=right;spacingLeft=0;spacingRight=8;html=1;comic=0;treeFolding=0;treeMoving=0;resizable=0;movableLabel=1;spacing=2;aspect=fixed;fillColor=#000000;metaEdit=1;" vertex="1" parent="sGnxYjfqu2Hk1xVGTKnI-226">
            <mxGeometry y="48.870000000000005" width="10" height="15" as="geometry">
              <mxPoint x="-4" y="-8" as="offset" />
            </mxGeometry>
          </mxCell>
        </object>
        <object label="%symbol%" class_name="TrapezoidInt" block_name="trapezoid" symbol="$$\ \int^{TR}$$" placeholders="1" id="sGnxYjfqu2Hk1xVGTKnI-234">
          <mxCell style="shape=stencil(7ZVNDoMgEIVPw95IF24b294DFSuRggGq7e3LjzYSS6NRdybGMM7jyzi8CQCmskINBnFUAXgBcZxE+qXDzg+RbHCu3LcWCYIyil1GKsFr3JFC9QTCKiyIMll4BdFZa8zzXcA054xpGuFMepKJEMS3kHakylBe3wV/suIfbVA3yBQ60f1UD3sevDUterkf7Fvy9iJd6lIqJWxEhftgEx972qncZCvuZticcomXbbWGC/jDd2XAciNRyQWeb8qSUOoGKVjxYeTDyOuOe6eDWd/AWXM3SOeOiYUGplAvbNrdfTbzAQ==);whiteSpace=wrap;html=1;aspect=fixed;resizable=0;container=1;collapsible=0;spacingLeft=5;connectable=0;allowArrows=0;fontSize=11;spacingTop=7;metaEdit=1;align=center;fontStyle=0" vertex="1" parent="1">
            <mxGeometry x="680" y="-580" width="80" height="80" as="geometry" />
          </mxCell>
        </object>
        <object label="%name%" placeholders="1" name="OUT1" class_name="OutputPort" id="sGnxYjfqu2Hk1xVGTKnI-235">
          <mxCell style="triangle;fillColor=#ffffff;fontSize=14;points=[[1,0.5]];allowArrows=0;verticalAlign=middle;horizontal=1;spacingTop=0;align=left;spacingLeft=4;spacingRight=0;html=1;comic=0;treeFolding=0;treeMoving=0;movable=1;resizable=0;rotatable=1;deletable=1;editable=1;connectable=1;movableLabel=1;spacing=2;aspect=fixed;metaEdit=1;" vertex="1" parent="sGnxYjfqu2Hk1xVGTKnI-234">
            <mxGeometry x="70" y="32.75" width="10" height="15" as="geometry">
              <mxPoint x="5" y="-7" as="offset" />
            </mxGeometry>
          </mxCell>
        </object>
        <object label="%name%" placeholders="1" name="IC" class_name="InputPort" id="sGnxYjfqu2Hk1xVGTKnI-236">
          <mxCell style="triangle;fontSize=14;points=[[0,0.5]];allowArrows=0;verticalAlign=middle;horizontal=1;spacingTop=0;align=right;spacingLeft=0;spacingRight=8;html=1;comic=0;treeFolding=0;treeMoving=0;resizable=0;movableLabel=1;spacing=2;aspect=fixed;fillColor=#000000;metaEdit=1;" vertex="1" parent="sGnxYjfqu2Hk1xVGTKnI-234">
            <mxGeometry y="16.120000000000005" width="10" height="15" as="geometry">
              <mxPoint x="-4" y="-8" as="offset" />
            </mxGeometry>
          </mxCell>
        </object>
        <object label="%name%" placeholders="1" name="IN1" class_name="InputPort" id="sGnxYjfqu2Hk1xVGTKnI-237">
          <mxCell style="triangle;fontSize=14;points=[[0,0.5]];allowArrows=0;verticalAlign=middle;horizontal=1;spacingTop=0;align=right;spacingLeft=0;spacingRight=8;html=1;comic=0;treeFolding=0;treeMoving=0;resizable=0;movableLabel=1;spacing=2;aspect=fixed;fillColor=#000000;metaEdit=1;" vertex="1" parent="sGnxYjfqu2Hk1xVGTKnI-234">
            <mxGeometry y="48.870000000000005" width="10" height="15" as="geometry">
              <mxPoint x="-4" y="-8" as="offset" />
            </mxGeometry>
          </mxCell>
        </object>
        <object label="%symbol%" class_name="BWDEulerInt" block_name="bwdeuler" symbol="$$\ \int^{BW}$$" placeholders="1" id="sGnxYjfqu2Hk1xVGTKnI-238">
          <mxCell style="shape=stencil(7ZVNDoMgEIVPw95IF24b294DFSuRggGq7e3LjzYSS6NRdybGMM7jyzi8CQCmskINBnFUAXgBcZxE+qXDzg+RbHCu3LcWCYIyil1GKsFr3JFC9QTCKiyIMll4BdFZa8zzXcA054xpGuFMepKJEMS3kHakylBe3wV/suIfbVA3yBQ60f1UD3sevDUterkf7Fvy9iJd6lIqJWxEhftgEx972qncZCvuZticcomXbbWGC/jDd2XAciNRyQWeb8qSUOoGKVjxYeTDyOuOe6eDWd/AWXM3SOeOiYUGplAvbNrdfTbzAQ==);whiteSpace=wrap;html=1;aspect=fixed;resizable=0;container=1;collapsible=0;spacingLeft=5;connectable=0;allowArrows=0;fontSize=11;spacingTop=7;metaEdit=1;align=center;fontStyle=0" vertex="1" parent="1">
            <mxGeometry x="1760" y="-580" width="80" height="80" as="geometry" />
          </mxCell>
        </object>
        <object label="%name%" placeholders="1" name="OUT1" class_name="OutputPort" id="sGnxYjfqu2Hk1xVGTKnI-239">
          <mxCell style="triangle;fillColor=#ffffff;fontSize=14;points=[[1,0.5]];allowArrows=0;verticalAlign=middle;horizontal=1;spacingTop=0;align=left;spacingLeft=4;spacingRight=0;html=1;comic=0;treeFolding=0;treeMoving=0;movable=1;resizable=0;rotatable=1;deletable=1;editable=1;connectable=1;movableLabel=1;spacing=2;aspect=fixed;metaEdit=1;" vertex="1" parent="sGnxYjfqu2Hk1xVGTKnI-238">
            <mxGeometry x="70" y="32.75" width="10" height="15" as="geometry">
              <mxPoint x="5" y="-7" as="offset" />
            </mxGeometry>
          </mxCell>
        </object>
        <object label="%name%" placeholders="1" name="IC" class_name="InputPort" id="sGnxYjfqu2Hk1xVGTKnI-240">
          <mxCell style="triangle;fontSize=14;points=[[0,0.5]];allowArrows=0;verticalAlign=middle;horizontal=1;spacingTop=0;align=right;spacingLeft=0;spacingRight=8;html=1;comic=0;treeFolding=0;treeMoving=0;resizable=0;movableLabel=1;spacing=2;aspect=fixed;fillColor=#000000;metaEdit=1;" vertex="1" parent="sGnxYjfqu2Hk1xVGTKnI-238">
            <mxGeometry y="16.120000000000005" width="10" height="15" as="geometry">
              <mxPoint x="-4" y="-8" as="offset" />
            </mxGeometry>
          </mxCell>
        </object>
        <object label="%name%" placeholders="1" name="IN1" class_name="InputPort" id="sGnxYjfqu2Hk1xVGTKnI-241">
          <mxCell style="triangle;fontSize=14;points=[[0,0.5]];allowArrows=0;verticalAlign=middle;horizontal=1;spacingTop=0;align=right;spacingLeft=0;spacingRight=8;html=1;comic=0;treeFolding=0;treeMoving=0;resizable=0;movableLabel=1;spacing=2;aspect=fixed;fillColor=#000000;metaEdit=1;" vertex="1" parent="sGnxYjfqu2Hk1xVGTKnI-238">
            <mxGeometry y="48.870000000000005" width="10" height="15" as="geometry">
              <mxPoint x="-4" y="-8" as="offset" />
            </mxGeometry>
          </mxCell>
        </object>
        <object label="%symbol%" placeholders="1" symbol="$$g(t)$$" class_name="AnalyticFunc" block_name="gt" id="sGnxYjfqu2Hk1xVGTKnI-298">
          <mxCell style="whiteSpace=wrap;html=1;aspect=fixed;comic=0;fillColor=#FFFFFF;fontSize=22;align=center;resizable=0;container=1;collapsible=0;points=[];allowArrows=0;spacingTop=0;metaEdit=1;connectable=0;" vertex="1" parent="1">
            <mxGeometry x="80" y="520" width="80" height="80" as="geometry" />
          </mxCell>
        </object>
        <object label="%name%" placeholders="1" name="$$g(t)$$" class_name="OutputPort" id="sGnxYjfqu2Hk1xVGTKnI-299">
          <mxCell style="triangle;fillColor=#ffffff;fontSize=14;points=[[1,0.5]];allowArrows=0;verticalAlign=middle;horizontal=1;spacingTop=0;align=left;spacingLeft=4;spacingRight=0;html=1;comic=0;treeFolding=0;treeMoving=0;movable=1;resizable=0;rotatable=1;deletable=1;editable=1;connectable=1;movableLabel=1;spacing=2;aspect=fixed;metaEdit=1;" vertex="1" parent="sGnxYjfqu2Hk1xVGTKnI-298">
            <mxGeometry x="70" y="32.5" width="10" height="15" as="geometry">
              <mxPoint x="5" y="-7" as="offset" />
            </mxGeometry>
          </mxCell>
        </object>
        <object label="%name%" placeholders="1" name="t" class_name="InputPort" id="sGnxYjfqu2Hk1xVGTKnI-300">
          <mxCell style="triangle;fontSize=14;points=[[0,0.5]];allowArrows=0;verticalAlign=middle;horizontal=1;spacingTop=0;align=right;spacingLeft=0;spacingRight=8;html=1;comic=0;treeFolding=0;treeMoving=0;resizable=0;movableLabel=1;spacing=2;aspect=fixed;fillColor=#000000;metaEdit=1;" vertex="1" parent="sGnxYjfqu2Hk1xVGTKnI-298">
            <mxGeometry y="32.5" width="10" height="15" as="geometry">
              <mxPoint x="-4" y="-8" as="offset" />
            </mxGeometry>
          </mxCell>
        </object>
        <object label="" placeholders="1" class_name="FWDEulerCalc" IC="0" id="sGnxYjfqu2Hk1xVGTKnI-343">
          <mxCell style="rounded=0;whiteSpace=wrap;html=1;fillColor=#fff2cc;strokeColor=#d6b656;container=0;connectable=0;allowArrows=0;treeFolding=0;moveCells=0;treeMoving=0;comic=0;rotatable=0;expand=1;autosize=1;resizeWidth=1;resizeHeight=1;metaEdit=1;fontSize=16;" vertex="1" parent="1">
            <mxGeometry x="-740" y="90" width="760" height="360" as="geometry">
              <mxRectangle x="40" y="400" width="50" height="40" as="alternateBounds" />
            </mxGeometry>
          </mxCell>
        </object>
        <object label="FWDEulerCalc" placeholders="1" id="sGnxYjfqu2Hk1xVGTKnI-344">
          <mxCell style="rounded=0;whiteSpace=wrap;html=1;fillColor=#ffffff;fontSize=18;connectable=0;allowArrows=0;rotatable=0;cloneable=0;deletable=0;" vertex="1" parent="sGnxYjfqu2Hk1xVGTKnI-343">
            <mxGeometry x="11.515151515151516" y="20.003076923076918" width="736.969696969697" height="39.99692307692306" as="geometry" />
          </mxCell>
        </object>
        <mxCell id="sGnxYjfqu2Hk1xVGTKnI-345" value="" style="rounded=0;whiteSpace=wrap;html=1;fillColor=#ffffff;connectable=0;allowArrows=0;container=1;collapsible=0;portConstraintRotation=0;rotatable=0;cloneable=0;deletable=0;recursiveResize=0;fontSize=16;" vertex="1" parent="sGnxYjfqu2Hk1xVGTKnI-343">
          <mxGeometry x="11.515151515151516" y="69.99692307692305" width="736.969696969697" height="270" as="geometry">
            <mxRectangle x="10" y="70" width="50" height="40" as="alternateBounds" />
          </mxGeometry>
        </mxCell>
        <object label="%symbol%" class_name="FWDEulerInt" block_name="fwdeulter" symbol="$$\ \int^{FE}$$" placeholders="1" id="sGnxYjfqu2Hk1xVGTKnI-346">
          <mxCell style="shape=stencil(7ZVNDoMgEIVPw95IF24b294DFSuRggGq7e3LjzYSS6NRdybGMM7jyzi8CQCmskINBnFUAXgBcZxE+qXDzg+RbHCu3LcWCYIyil1GKsFr3JFC9QTCKiyIMll4BdFZa8zzXcA054xpGuFMepKJEMS3kHakylBe3wV/suIfbVA3yBQ60f1UD3sevDUterkf7Fvy9iJd6lIqJWxEhftgEx972qncZCvuZticcomXbbWGC/jDd2XAciNRyQWeb8qSUOoGKVjxYeTDyOuOe6eDWd/AWXM3SOeOiYUGplAvbNrdfTbzAQ==);whiteSpace=wrap;html=1;aspect=fixed;resizable=0;container=1;collapsible=0;spacingLeft=5;connectable=0;allowArrows=0;fontSize=11;spacingTop=7;metaEdit=1;align=center;fontStyle=0" vertex="1" parent="sGnxYjfqu2Hk1xVGTKnI-345">
            <mxGeometry x="448.4848484848485" y="126.50307692307695" width="80" height="80" as="geometry" />
          </mxCell>
        </object>
        <object label="%name%" placeholders="1" name="OUT1" class_name="OutputPort" id="sGnxYjfqu2Hk1xVGTKnI-347">
          <mxCell style="triangle;fillColor=#ffffff;fontSize=14;points=[[1,0.5]];allowArrows=0;verticalAlign=middle;horizontal=1;spacingTop=0;align=left;spacingLeft=4;spacingRight=0;html=1;comic=0;treeFolding=0;treeMoving=0;movable=1;resizable=0;rotatable=1;deletable=1;editable=1;connectable=1;movableLabel=1;spacing=2;aspect=fixed;metaEdit=1;" vertex="1" parent="sGnxYjfqu2Hk1xVGTKnI-346">
            <mxGeometry x="70" y="32.75" width="10" height="15" as="geometry">
              <mxPoint x="5" y="-7" as="offset" />
            </mxGeometry>
          </mxCell>
        </object>
        <object label="%name%" placeholders="1" name="IC" class_name="InputPort" id="sGnxYjfqu2Hk1xVGTKnI-348">
          <mxCell style="triangle;fontSize=14;points=[[0,0.5]];allowArrows=0;verticalAlign=middle;horizontal=1;spacingTop=0;align=right;spacingLeft=0;spacingRight=8;html=1;comic=0;treeFolding=0;treeMoving=0;resizable=0;movableLabel=1;spacing=2;aspect=fixed;fillColor=#000000;metaEdit=1;" vertex="1" parent="sGnxYjfqu2Hk1xVGTKnI-346">
            <mxGeometry y="16.120000000000005" width="10" height="15" as="geometry">
              <mxPoint x="-13" y="-7" as="offset" />
            </mxGeometry>
          </mxCell>
        </object>
        <object label="%name%" placeholders="1" name="IN1" class_name="InputPort" id="sGnxYjfqu2Hk1xVGTKnI-349">
          <mxCell style="triangle;fontSize=14;points=[[0,0.5]];allowArrows=0;verticalAlign=middle;horizontal=1;spacingTop=0;align=right;spacingLeft=0;spacingRight=8;html=1;comic=0;treeFolding=0;treeMoving=0;resizable=0;movableLabel=1;spacing=2;aspect=fixed;fillColor=#000000;metaEdit=1;" vertex="1" parent="sGnxYjfqu2Hk1xVGTKnI-346">
            <mxGeometry y="48.870000000000005" width="10" height="15" as="geometry">
              <mxPoint x="-12" y="-6" as="offset" />
            </mxGeometry>
          </mxCell>
        </object>
        <mxCell id="sGnxYjfqu2Hk1xVGTKnI-350" style="edgeStyle=none;curved=1;rounded=0;orthogonalLoop=1;jettySize=auto;html=1;exitX=1;exitY=0.5;exitDx=0;exitDy=0;fontSize=12;startSize=8;endSize=8;entryX=0;entryY=0.5;entryDx=0;entryDy=0;" edge="1" parent="sGnxYjfqu2Hk1xVGTKnI-345" source="sGnxYjfqu2Hk1xVGTKnI-355" target="sGnxYjfqu2Hk1xVGTKnI-349">
          <mxGeometry relative="1" as="geometry">
            <mxPoint x="368.4848484848485" y="183.50307692307695" as="sourcePoint" />
          </mxGeometry>
        </mxCell>
        <mxCell id="sGnxYjfqu2Hk1xVGTKnI-351" style="edgeStyle=orthogonalEdgeStyle;rounded=1;orthogonalLoop=1;jettySize=auto;html=1;exitX=1;exitY=0.5;exitDx=0;exitDy=0;entryX=0;entryY=0.5;entryDx=0;entryDy=0;fontSize=12;startSize=8;endSize=8;" edge="1" parent="sGnxYjfqu2Hk1xVGTKnI-345" source="sGnxYjfqu2Hk1xVGTKnI-410" target="sGnxYjfqu2Hk1xVGTKnI-348">
          <mxGeometry relative="1" as="geometry">
            <mxPoint x="368.4848484848485" y="87.50307692307695" as="sourcePoint" />
          </mxGeometry>
        </mxCell>
        <object label="%name%" placeholders="1" name="I" class_name="OutputPort" id="sGnxYjfqu2Hk1xVGTKnI-352">
          <mxCell style="triangle;fillColor=#ffffff;fontSize=14;points=[[0,0.5],[1,0.5]];allowArrows=0;verticalAlign=middle;horizontal=1;spacingTop=0;align=left;spacingLeft=4;spacingRight=0;html=1;comic=0;treeFolding=0;treeMoving=0;movable=1;resizable=0;rotatable=1;deletable=1;editable=1;connectable=1;movableLabel=1;spacing=2;aspect=fixed;metaEdit=1;" vertex="1" parent="sGnxYjfqu2Hk1xVGTKnI-345">
            <mxGeometry x="578.4848484848485" y="159.00307692307695" width="10" height="15" as="geometry">
              <mxPoint x="5" y="-7" as="offset" />
            </mxGeometry>
          </mxCell>
        </object>
        <mxCell id="sGnxYjfqu2Hk1xVGTKnI-353" style="edgeStyle=none;curved=1;rounded=0;orthogonalLoop=1;jettySize=auto;html=1;exitX=1;exitY=0.5;exitDx=0;exitDy=0;entryX=0;entryY=0.5;entryDx=0;entryDy=0;fontSize=12;startSize=8;endSize=8;" edge="1" parent="sGnxYjfqu2Hk1xVGTKnI-345" source="sGnxYjfqu2Hk1xVGTKnI-347" target="sGnxYjfqu2Hk1xVGTKnI-352">
          <mxGeometry relative="1" as="geometry" />
        </mxCell>
        <object label="%symbol%" placeholders="1" symbol="$$g(t)$$" class_name="AnalyticFunc" block_name="gt" id="sGnxYjfqu2Hk1xVGTKnI-354">
          <mxCell style="whiteSpace=wrap;html=1;aspect=fixed;comic=0;fillColor=#FFFFFF;fontSize=22;align=center;resizable=0;container=1;collapsible=0;points=[];allowArrows=0;spacingTop=0;metaEdit=1;connectable=0;" vertex="1" parent="sGnxYjfqu2Hk1xVGTKnI-345">
            <mxGeometry x="288.4848484848485" y="143.50307692307695" width="80" height="80" as="geometry" />
          </mxCell>
        </object>
        <object label="%name%" placeholders="1" name="gt" class_name="OutputPort" id="sGnxYjfqu2Hk1xVGTKnI-355">
          <mxCell style="triangle;fillColor=#ffffff;fontSize=14;points=[[1,0.5]];allowArrows=0;verticalAlign=middle;horizontal=1;spacingTop=0;align=left;spacingLeft=4;spacingRight=0;html=1;comic=0;treeFolding=0;treeMoving=0;movable=1;resizable=0;rotatable=1;deletable=1;editable=1;connectable=1;movableLabel=1;spacing=2;aspect=fixed;metaEdit=1;" vertex="1" parent="sGnxYjfqu2Hk1xVGTKnI-354">
            <mxGeometry x="70" y="32.5" width="10" height="15" as="geometry">
              <mxPoint x="7" y="-10" as="offset" />
            </mxGeometry>
          </mxCell>
        </object>
        <object label="%name%" placeholders="1" name="t" class_name="InputPort" id="sGnxYjfqu2Hk1xVGTKnI-356">
          <mxCell style="triangle;fontSize=14;points=[[0,0.5]];allowArrows=0;verticalAlign=middle;horizontal=1;spacingTop=0;align=right;spacingLeft=0;spacingRight=8;html=1;comic=0;treeFolding=0;treeMoving=0;resizable=0;movableLabel=1;spacing=2;aspect=fixed;fillColor=#000000;metaEdit=1;" vertex="1" parent="sGnxYjfqu2Hk1xVGTKnI-354">
            <mxGeometry y="32.5" width="10" height="15" as="geometry">
              <mxPoint x="-17" y="7" as="offset" />
            </mxGeometry>
          </mxCell>
        </object>
        <object label="&#x9;%symbol%" class_name="TimeBlock" block_name="time" placeholders="1" symbol="&amp;#128336;" id="sGnxYjfqu2Hk1xVGTKnI-357">
          <mxCell style="whiteSpace=wrap;html=1;aspect=fixed;connectable=0;allowArrows=0;container=1;collapsible=0;resizable=0;fontSize=45;metaEdit=1;" vertex="1" parent="sGnxYjfqu2Hk1xVGTKnI-345">
            <mxGeometry x="148.4848484848485" y="143.50307692307695" width="80" height="80" as="geometry" />
          </mxCell>
        </object>
        <object label="%name%" placeholders="1" name="OUT1" class_name="OutputPort" id="sGnxYjfqu2Hk1xVGTKnI-358">
          <mxCell style="triangle;fillColor=#ffffff;fontSize=14;points=[[1,0.5]];allowArrows=0;verticalAlign=middle;horizontal=1;spacingTop=0;align=left;spacingLeft=4;spacingRight=0;html=1;comic=0;treeFolding=0;treeMoving=0;movable=1;resizable=0;rotatable=1;deletable=1;editable=1;connectable=1;movableLabel=1;spacing=2;aspect=fixed;metaEdit=1;" vertex="1" parent="sGnxYjfqu2Hk1xVGTKnI-357">
            <mxGeometry x="70" y="33" width="10" height="15" as="geometry">
              <mxPoint x="5" y="-7" as="offset" />
            </mxGeometry>
          </mxCell>
        </object>
        <mxCell id="sGnxYjfqu2Hk1xVGTKnI-359" style="edgeStyle=none;curved=1;rounded=0;orthogonalLoop=1;jettySize=auto;html=1;exitX=1;exitY=0.5;exitDx=0;exitDy=0;entryX=0;entryY=0.5;entryDx=0;entryDy=0;fontSize=12;startSize=8;endSize=8;" edge="1" parent="sGnxYjfqu2Hk1xVGTKnI-345" source="sGnxYjfqu2Hk1xVGTKnI-358" target="sGnxYjfqu2Hk1xVGTKnI-356">
          <mxGeometry relative="1" as="geometry" />
        </mxCell>
        <object label="%value%" placeholders="1" value="0" block_name="zeroCt" class_name="ConstantBlock" id="sGnxYjfqu2Hk1xVGTKnI-409">
          <mxCell style="ellipse;whiteSpace=wrap;html=1;comic=0;fillColor=#ffffff;fontSize=24;align=center;allowArrows=0;connectable=0;container=1;collapsible=0;recursiveResize=1;direction=west;resizable=0;metaEdit=1;" vertex="1" parent="sGnxYjfqu2Hk1xVGTKnI-345">
            <mxGeometry x="288.4848484848485" y="46.50307692307695" width="80" height="80" as="geometry" />
          </mxCell>
        </object>
        <object label="%name%" placeholders="1" name="OUT1" class_name="OutputPort" id="sGnxYjfqu2Hk1xVGTKnI-410">
          <mxCell style="triangle;fillColor=#ffffff;fontSize=14;points=[[1,0.5]];allowArrows=0;verticalAlign=middle;horizontal=1;spacingTop=0;align=left;spacingLeft=4;spacingRight=0;html=1;comic=0;treeFolding=0;treeMoving=0;movable=1;resizable=0;rotatable=1;deletable=1;editable=1;connectable=1;movableLabel=1;spacing=2;aspect=fixed;metaEdit=1;" vertex="1" parent="sGnxYjfqu2Hk1xVGTKnI-409">
            <mxGeometry x="70" y="32.5" width="10" height="15" as="geometry">
              <mxPoint x="6" y="-7" as="offset" />
            </mxGeometry>
          </mxCell>
        </object>
        <object label="" placeholders="1" class_name="TrapezoidCalc" IC="0" id="sGnxYjfqu2Hk1xVGTKnI-361">
          <mxCell style="rounded=0;whiteSpace=wrap;html=1;fillColor=#fff2cc;strokeColor=#d6b656;container=0;connectable=0;allowArrows=0;treeFolding=0;moveCells=0;treeMoving=0;comic=0;rotatable=0;expand=1;autosize=1;resizeWidth=1;resizeHeight=1;metaEdit=1;fontSize=16;" vertex="1" parent="1">
            <mxGeometry x="340" y="90" width="760" height="360" as="geometry">
              <mxRectangle x="40" y="400" width="50" height="40" as="alternateBounds" />
            </mxGeometry>
          </mxCell>
        </object>
        <object label="TrapezoidCalc" placeholders="1" id="sGnxYjfqu2Hk1xVGTKnI-362">
          <mxCell style="rounded=0;whiteSpace=wrap;html=1;fillColor=#ffffff;fontSize=18;connectable=0;allowArrows=0;rotatable=0;cloneable=0;deletable=0;" vertex="1" parent="sGnxYjfqu2Hk1xVGTKnI-361">
            <mxGeometry x="11.515151515151516" y="20.003076923076918" width="736.969696969697" height="39.99692307692306" as="geometry" />
          </mxCell>
        </object>
        <mxCell id="sGnxYjfqu2Hk1xVGTKnI-363" value="" style="rounded=0;whiteSpace=wrap;html=1;fillColor=#ffffff;connectable=0;allowArrows=0;container=1;collapsible=0;portConstraintRotation=0;rotatable=0;cloneable=0;deletable=0;recursiveResize=0;fontSize=16;" vertex="1" parent="sGnxYjfqu2Hk1xVGTKnI-361">
          <mxGeometry x="11.515151515151516" y="69.99692307692305" width="736.969696969697" height="270" as="geometry">
            <mxRectangle x="10" y="70" width="50" height="40" as="alternateBounds" />
          </mxGeometry>
        </mxCell>
        <mxCell id="sGnxYjfqu2Hk1xVGTKnI-368" style="edgeStyle=none;curved=1;rounded=0;orthogonalLoop=1;jettySize=auto;html=1;exitX=1;exitY=0.5;exitDx=0;exitDy=0;fontSize=12;startSize=8;endSize=8;entryX=0;entryY=0.5;entryDx=0;entryDy=0;" edge="1" parent="sGnxYjfqu2Hk1xVGTKnI-363" source="sGnxYjfqu2Hk1xVGTKnI-373" target="sGnxYjfqu2Hk1xVGTKnI-400">
          <mxGeometry relative="1" as="geometry">
            <mxPoint x="368.4848484848485" y="183.50307692307695" as="sourcePoint" />
            <mxPoint x="448.4848484848485" y="182.910135746606" as="targetPoint" />
          </mxGeometry>
        </mxCell>
        <mxCell id="sGnxYjfqu2Hk1xVGTKnI-369" style="edgeStyle=orthogonalEdgeStyle;rounded=1;orthogonalLoop=1;jettySize=auto;html=1;exitX=1;exitY=0.5;exitDx=0;exitDy=0;entryX=0;entryY=0.5;entryDx=0;entryDy=0;fontSize=12;startSize=8;endSize=8;" edge="1" parent="sGnxYjfqu2Hk1xVGTKnI-363" source="sGnxYjfqu2Hk1xVGTKnI-412" target="sGnxYjfqu2Hk1xVGTKnI-399">
          <mxGeometry relative="1" as="geometry">
            <mxPoint x="368.4848484848485" y="87.50307692307695" as="sourcePoint" />
            <mxPoint x="448.4848484848485" y="150.12307692307684" as="targetPoint" />
          </mxGeometry>
        </mxCell>
        <object label="%name%" placeholders="1" name="I" class_name="OutputPort" id="sGnxYjfqu2Hk1xVGTKnI-370">
          <mxCell style="triangle;fillColor=#ffffff;fontSize=14;points=[[0,0.5],[1,0.5]];allowArrows=0;verticalAlign=middle;horizontal=1;spacingTop=0;align=left;spacingLeft=4;spacingRight=0;html=1;comic=0;treeFolding=0;treeMoving=0;movable=1;resizable=0;rotatable=1;deletable=1;editable=1;connectable=1;movableLabel=1;spacing=2;aspect=fixed;metaEdit=1;" vertex="1" parent="sGnxYjfqu2Hk1xVGTKnI-363">
            <mxGeometry x="578.4848484848485" y="159.00307692307695" width="10" height="15" as="geometry">
              <mxPoint x="5" y="-7" as="offset" />
            </mxGeometry>
          </mxCell>
        </object>
        <mxCell id="sGnxYjfqu2Hk1xVGTKnI-371" style="edgeStyle=none;curved=1;rounded=0;orthogonalLoop=1;jettySize=auto;html=1;exitX=1;exitY=0.5;exitDx=0;exitDy=0;entryX=0;entryY=0.5;entryDx=0;entryDy=0;fontSize=12;startSize=8;endSize=8;" edge="1" parent="sGnxYjfqu2Hk1xVGTKnI-363" source="sGnxYjfqu2Hk1xVGTKnI-398" target="sGnxYjfqu2Hk1xVGTKnI-370">
          <mxGeometry relative="1" as="geometry">
            <mxPoint x="528.4848484848485" y="166.75307692307695" as="sourcePoint" />
          </mxGeometry>
        </mxCell>
        <object label="%symbol%" placeholders="1" symbol="$$g(t)$$" class_name="AnalyticFunc" block_name="gt" id="sGnxYjfqu2Hk1xVGTKnI-372">
          <mxCell style="whiteSpace=wrap;html=1;aspect=fixed;comic=0;fillColor=#FFFFFF;fontSize=22;align=center;resizable=0;container=1;collapsible=0;points=[];allowArrows=0;spacingTop=0;metaEdit=1;connectable=0;" vertex="1" parent="sGnxYjfqu2Hk1xVGTKnI-363">
            <mxGeometry x="288.4848484848485" y="143.50307692307695" width="80" height="80" as="geometry" />
          </mxCell>
        </object>
        <object label="%name%" placeholders="1" name="gt" class_name="OutputPort" id="sGnxYjfqu2Hk1xVGTKnI-373">
          <mxCell style="triangle;fillColor=#ffffff;fontSize=14;points=[[1,0.5]];allowArrows=0;verticalAlign=middle;horizontal=1;spacingTop=0;align=left;spacingLeft=4;spacingRight=0;html=1;comic=0;treeFolding=0;treeMoving=0;movable=1;resizable=0;rotatable=1;deletable=1;editable=1;connectable=1;movableLabel=1;spacing=2;aspect=fixed;metaEdit=1;" vertex="1" parent="sGnxYjfqu2Hk1xVGTKnI-372">
            <mxGeometry x="70" y="32.5" width="10" height="15" as="geometry">
              <mxPoint x="7" y="-10" as="offset" />
            </mxGeometry>
          </mxCell>
        </object>
        <object label="%name%" placeholders="1" name="t" class_name="InputPort" id="sGnxYjfqu2Hk1xVGTKnI-374">
          <mxCell style="triangle;fontSize=14;points=[[0,0.5]];allowArrows=0;verticalAlign=middle;horizontal=1;spacingTop=0;align=right;spacingLeft=0;spacingRight=8;html=1;comic=0;treeFolding=0;treeMoving=0;resizable=0;movableLabel=1;spacing=2;aspect=fixed;fillColor=#000000;metaEdit=1;" vertex="1" parent="sGnxYjfqu2Hk1xVGTKnI-372">
            <mxGeometry y="32.5" width="10" height="15" as="geometry">
              <mxPoint x="-17" y="7" as="offset" />
            </mxGeometry>
          </mxCell>
        </object>
        <object label="&#x9;%symbol%" class_name="TimeBlock" block_name="time" placeholders="1" symbol="&amp;#128336;" id="sGnxYjfqu2Hk1xVGTKnI-375">
          <mxCell style="whiteSpace=wrap;html=1;aspect=fixed;connectable=0;allowArrows=0;container=1;collapsible=0;resizable=0;fontSize=45;metaEdit=1;" vertex="1" parent="sGnxYjfqu2Hk1xVGTKnI-363">
            <mxGeometry x="148.4848484848485" y="143.50307692307695" width="80" height="80" as="geometry" />
          </mxCell>
        </object>
        <object label="%name%" placeholders="1" name="OUT1" class_name="OutputPort" id="sGnxYjfqu2Hk1xVGTKnI-376">
          <mxCell style="triangle;fillColor=#ffffff;fontSize=14;points=[[1,0.5]];allowArrows=0;verticalAlign=middle;horizontal=1;spacingTop=0;align=left;spacingLeft=4;spacingRight=0;html=1;comic=0;treeFolding=0;treeMoving=0;movable=1;resizable=0;rotatable=1;deletable=1;editable=1;connectable=1;movableLabel=1;spacing=2;aspect=fixed;metaEdit=1;" vertex="1" parent="sGnxYjfqu2Hk1xVGTKnI-375">
            <mxGeometry x="70" y="33" width="10" height="15" as="geometry">
              <mxPoint x="5" y="-7" as="offset" />
            </mxGeometry>
          </mxCell>
        </object>
        <mxCell id="sGnxYjfqu2Hk1xVGTKnI-377" style="edgeStyle=none;curved=1;rounded=0;orthogonalLoop=1;jettySize=auto;html=1;exitX=1;exitY=0.5;exitDx=0;exitDy=0;entryX=0;entryY=0.5;entryDx=0;entryDy=0;fontSize=12;startSize=8;endSize=8;" edge="1" parent="sGnxYjfqu2Hk1xVGTKnI-363" source="sGnxYjfqu2Hk1xVGTKnI-376" target="sGnxYjfqu2Hk1xVGTKnI-374">
          <mxGeometry relative="1" as="geometry" />
        </mxCell>
        <object label="%symbol%" class_name="TrapezoidInt" block_name="trapezoid" symbol="$$\ \int^{TR}$$" placeholders="1" id="sGnxYjfqu2Hk1xVGTKnI-397">
          <mxCell style="shape=stencil(7ZVNDoMgEIVPw95IF24b294DFSuRggGq7e3LjzYSS6NRdybGMM7jyzi8CQCmskINBnFUAXgBcZxE+qXDzg+RbHCu3LcWCYIyil1GKsFr3JFC9QTCKiyIMll4BdFZa8zzXcA054xpGuFMepKJEMS3kHakylBe3wV/suIfbVA3yBQ60f1UD3sevDUterkf7Fvy9iJd6lIqJWxEhftgEx972qncZCvuZticcomXbbWGC/jDd2XAciNRyQWeb8qSUOoGKVjxYeTDyOuOe6eDWd/AWXM3SOeOiYUGplAvbNrdfTbzAQ==);whiteSpace=wrap;html=1;aspect=fixed;resizable=0;container=1;collapsible=0;spacingLeft=5;connectable=0;allowArrows=0;fontSize=11;spacingTop=7;metaEdit=1;align=center;fontStyle=0" vertex="1" parent="sGnxYjfqu2Hk1xVGTKnI-363">
            <mxGeometry x="448.4848484848485" y="126.50307692307695" width="80" height="80" as="geometry" />
          </mxCell>
        </object>
        <object label="%name%" placeholders="1" name="OUT1" class_name="OutputPort" id="sGnxYjfqu2Hk1xVGTKnI-398">
          <mxCell style="triangle;fillColor=#ffffff;fontSize=14;points=[[1,0.5]];allowArrows=0;verticalAlign=middle;horizontal=1;spacingTop=0;align=left;spacingLeft=4;spacingRight=0;html=1;comic=0;treeFolding=0;treeMoving=0;movable=1;resizable=0;rotatable=1;deletable=1;editable=1;connectable=1;movableLabel=1;spacing=2;aspect=fixed;metaEdit=1;" vertex="1" parent="sGnxYjfqu2Hk1xVGTKnI-397">
            <mxGeometry x="70" y="32.75" width="10" height="15" as="geometry">
              <mxPoint x="5" y="-7" as="offset" />
            </mxGeometry>
          </mxCell>
        </object>
        <object label="%name%" placeholders="1" name="IC" class_name="InputPort" id="sGnxYjfqu2Hk1xVGTKnI-399">
          <mxCell style="triangle;fontSize=14;points=[[0,0.5]];allowArrows=0;verticalAlign=middle;horizontal=1;spacingTop=0;align=right;spacingLeft=0;spacingRight=8;html=1;comic=0;treeFolding=0;treeMoving=0;resizable=0;movableLabel=1;spacing=2;aspect=fixed;fillColor=#000000;metaEdit=1;" vertex="1" parent="sGnxYjfqu2Hk1xVGTKnI-397">
            <mxGeometry y="16.120000000000005" width="10" height="15" as="geometry">
              <mxPoint x="-13" y="-7" as="offset" />
            </mxGeometry>
          </mxCell>
        </object>
        <object label="%name%" placeholders="1" name="IN1" class_name="InputPort" id="sGnxYjfqu2Hk1xVGTKnI-400">
          <mxCell style="triangle;fontSize=14;points=[[0,0.5]];allowArrows=0;verticalAlign=middle;horizontal=1;spacingTop=0;align=right;spacingLeft=0;spacingRight=8;html=1;comic=0;treeFolding=0;treeMoving=0;resizable=0;movableLabel=1;spacing=2;aspect=fixed;fillColor=#000000;metaEdit=1;" vertex="1" parent="sGnxYjfqu2Hk1xVGTKnI-397">
            <mxGeometry y="48.870000000000005" width="10" height="15" as="geometry">
              <mxPoint x="-13" y="-8" as="offset" />
            </mxGeometry>
          </mxCell>
        </object>
        <object label="%value%" placeholders="1" value="0" block_name="zeroCt" class_name="ConstantBlock" id="sGnxYjfqu2Hk1xVGTKnI-411">
          <mxCell style="ellipse;whiteSpace=wrap;html=1;comic=0;fillColor=#ffffff;fontSize=24;align=center;allowArrows=0;connectable=0;container=1;collapsible=0;recursiveResize=1;direction=west;resizable=0;metaEdit=1;" vertex="1" parent="sGnxYjfqu2Hk1xVGTKnI-363">
            <mxGeometry x="288.4848484848485" y="46.50307692307695" width="80" height="80" as="geometry" />
          </mxCell>
        </object>
        <object label="%name%" placeholders="1" name="OUT1" class_name="OutputPort" id="sGnxYjfqu2Hk1xVGTKnI-412">
          <mxCell style="triangle;fillColor=#ffffff;fontSize=14;points=[[1,0.5]];allowArrows=0;verticalAlign=middle;horizontal=1;spacingTop=0;align=left;spacingLeft=4;spacingRight=0;html=1;comic=0;treeFolding=0;treeMoving=0;movable=1;resizable=0;rotatable=1;deletable=1;editable=1;connectable=1;movableLabel=1;spacing=2;aspect=fixed;metaEdit=1;" vertex="1" parent="sGnxYjfqu2Hk1xVGTKnI-411">
            <mxGeometry x="70" y="32.5" width="10" height="15" as="geometry">
              <mxPoint x="6" y="-7" as="offset" />
            </mxGeometry>
          </mxCell>
        </object>
        <object label="" placeholders="1" class_name="BWDEulerCalc" IC="0" id="sGnxYjfqu2Hk1xVGTKnI-379">
          <mxCell style="rounded=0;whiteSpace=wrap;html=1;fillColor=#fff2cc;strokeColor=#d6b656;container=0;connectable=0;allowArrows=0;treeFolding=0;moveCells=0;treeMoving=0;comic=0;rotatable=0;expand=1;autosize=1;resizeWidth=1;resizeHeight=1;metaEdit=1;fontSize=16;" vertex="1" parent="1">
            <mxGeometry x="1420" y="90" width="760" height="360" as="geometry">
              <mxRectangle x="40" y="400" width="50" height="40" as="alternateBounds" />
            </mxGeometry>
          </mxCell>
        </object>
        <object label="BWDEulerCalc" placeholders="1" id="sGnxYjfqu2Hk1xVGTKnI-380">
          <mxCell style="rounded=0;whiteSpace=wrap;html=1;fillColor=#ffffff;fontSize=18;connectable=0;allowArrows=0;rotatable=0;cloneable=0;deletable=0;" vertex="1" parent="sGnxYjfqu2Hk1xVGTKnI-379">
            <mxGeometry x="11.515151515151516" y="20.003076923076918" width="736.969696969697" height="39.99692307692306" as="geometry" />
          </mxCell>
        </object>
        <mxCell id="sGnxYjfqu2Hk1xVGTKnI-381" value="" style="rounded=0;whiteSpace=wrap;html=1;fillColor=#ffffff;connectable=0;allowArrows=0;container=1;collapsible=0;portConstraintRotation=0;rotatable=0;cloneable=0;deletable=0;recursiveResize=0;fontSize=16;" vertex="1" parent="sGnxYjfqu2Hk1xVGTKnI-379">
          <mxGeometry x="11.515151515151516" y="69.99692307692305" width="736.969696969697" height="270" as="geometry">
            <mxRectangle x="10" y="70" width="50" height="40" as="alternateBounds" />
          </mxGeometry>
        </mxCell>
        <object label="%name%" placeholders="1" name="I" class_name="OutputPort" id="sGnxYjfqu2Hk1xVGTKnI-388">
          <mxCell style="triangle;fillColor=#ffffff;fontSize=14;points=[[0,0.5],[1,0.5]];allowArrows=0;verticalAlign=middle;horizontal=1;spacingTop=0;align=left;spacingLeft=4;spacingRight=0;html=1;comic=0;treeFolding=0;treeMoving=0;movable=1;resizable=0;rotatable=1;deletable=1;editable=1;connectable=1;movableLabel=1;spacing=2;aspect=fixed;metaEdit=1;" vertex="1" parent="sGnxYjfqu2Hk1xVGTKnI-381">
            <mxGeometry x="578.4848484848485" y="159.00307692307695" width="10" height="15" as="geometry">
              <mxPoint x="5" y="-7" as="offset" />
            </mxGeometry>
          </mxCell>
        </object>
        <object label="%symbol%" placeholders="1" symbol="$$g(t)$$" class_name="AnalyticFunc" block_name="gt" id="sGnxYjfqu2Hk1xVGTKnI-390">
          <mxCell style="whiteSpace=wrap;html=1;aspect=fixed;comic=0;fillColor=#FFFFFF;fontSize=22;align=center;resizable=0;container=1;collapsible=0;points=[];allowArrows=0;spacingTop=0;metaEdit=1;connectable=0;" vertex="1" parent="sGnxYjfqu2Hk1xVGTKnI-381">
            <mxGeometry x="288.4848484848485" y="143.50307692307695" width="80" height="80" as="geometry" />
          </mxCell>
        </object>
        <object label="%name%" placeholders="1" name="gt" class_name="OutputPort" id="sGnxYjfqu2Hk1xVGTKnI-391">
          <mxCell style="triangle;fillColor=#ffffff;fontSize=14;points=[[1,0.5]];allowArrows=0;verticalAlign=middle;horizontal=1;spacingTop=0;align=left;spacingLeft=4;spacingRight=0;html=1;comic=0;treeFolding=0;treeMoving=0;movable=1;resizable=0;rotatable=1;deletable=1;editable=1;connectable=1;movableLabel=1;spacing=2;aspect=fixed;metaEdit=1;" vertex="1" parent="sGnxYjfqu2Hk1xVGTKnI-390">
            <mxGeometry x="70" y="32.5" width="10" height="15" as="geometry">
              <mxPoint x="7" y="-10" as="offset" />
            </mxGeometry>
          </mxCell>
        </object>
        <object label="%name%" placeholders="1" name="t" class_name="InputPort" id="sGnxYjfqu2Hk1xVGTKnI-392">
          <mxCell style="triangle;fontSize=14;points=[[0,0.5]];allowArrows=0;verticalAlign=middle;horizontal=1;spacingTop=0;align=right;spacingLeft=0;spacingRight=8;html=1;comic=0;treeFolding=0;treeMoving=0;resizable=0;movableLabel=1;spacing=2;aspect=fixed;fillColor=#000000;metaEdit=1;" vertex="1" parent="sGnxYjfqu2Hk1xVGTKnI-390">
            <mxGeometry y="32.5" width="10" height="15" as="geometry">
              <mxPoint x="-17" y="7" as="offset" />
            </mxGeometry>
          </mxCell>
        </object>
        <object label="&#x9;%symbol%" class_name="TimeBlock" block_name="time" placeholders="1" symbol="&amp;#128336;" id="sGnxYjfqu2Hk1xVGTKnI-393">
          <mxCell style="whiteSpace=wrap;html=1;aspect=fixed;connectable=0;allowArrows=0;container=1;collapsible=0;resizable=0;fontSize=45;metaEdit=1;" vertex="1" parent="sGnxYjfqu2Hk1xVGTKnI-381">
            <mxGeometry x="148.4848484848485" y="143.50307692307695" width="80" height="80" as="geometry" />
          </mxCell>
        </object>
        <object label="%name%" placeholders="1" name="OUT1" class_name="OutputPort" id="sGnxYjfqu2Hk1xVGTKnI-394">
          <mxCell style="triangle;fillColor=#ffffff;fontSize=14;points=[[1,0.5]];allowArrows=0;verticalAlign=middle;horizontal=1;spacingTop=0;align=left;spacingLeft=4;spacingRight=0;html=1;comic=0;treeFolding=0;treeMoving=0;movable=1;resizable=0;rotatable=1;deletable=1;editable=1;connectable=1;movableLabel=1;spacing=2;aspect=fixed;metaEdit=1;" vertex="1" parent="sGnxYjfqu2Hk1xVGTKnI-393">
            <mxGeometry x="70" y="33" width="10" height="15" as="geometry">
              <mxPoint x="5" y="-7" as="offset" />
            </mxGeometry>
          </mxCell>
        </object>
        <mxCell id="sGnxYjfqu2Hk1xVGTKnI-406" style="edgeStyle=orthogonalEdgeStyle;rounded=1;orthogonalLoop=1;jettySize=auto;html=1;exitX=1;exitY=0.5;exitDx=0;exitDy=0;entryX=0;entryY=0.5;entryDx=0;entryDy=0;fontSize=12;startSize=8;endSize=8;" edge="1" parent="sGnxYjfqu2Hk1xVGTKnI-381" source="sGnxYjfqu2Hk1xVGTKnI-414" target="sGnxYjfqu2Hk1xVGTKnI-403">
          <mxGeometry relative="1" as="geometry">
            <mxPoint x="368.4848484848485" y="87.50307692307695" as="sourcePoint" />
          </mxGeometry>
        </mxCell>
        <object label="%symbol%" class_name="BWDEulerInt" block_name="bwdeuler" symbol="$$\ \int^{BW}$$" placeholders="1" id="sGnxYjfqu2Hk1xVGTKnI-401">
          <mxCell style="shape=stencil(7ZVNDoMgEIVPw95IF24b294DFSuRggGq7e3LjzYSS6NRdybGMM7jyzi8CQCmskINBnFUAXgBcZxE+qXDzg+RbHCu3LcWCYIyil1GKsFr3JFC9QTCKiyIMll4BdFZa8zzXcA054xpGuFMepKJEMS3kHakylBe3wV/suIfbVA3yBQ60f1UD3sevDUterkf7Fvy9iJd6lIqJWxEhftgEx972qncZCvuZticcomXbbWGC/jDd2XAciNRyQWeb8qSUOoGKVjxYeTDyOuOe6eDWd/AWXM3SOeOiYUGplAvbNrdfTbzAQ==);whiteSpace=wrap;html=1;aspect=fixed;resizable=0;container=1;collapsible=0;spacingLeft=5;connectable=0;allowArrows=0;fontSize=11;spacingTop=7;metaEdit=1;align=center;fontStyle=0" vertex="1" parent="sGnxYjfqu2Hk1xVGTKnI-381">
            <mxGeometry x="448.4848484848485" y="126.50307692307695" width="80" height="80" as="geometry" />
          </mxCell>
        </object>
        <object label="%name%" placeholders="1" name="OUT1" class_name="OutputPort" id="sGnxYjfqu2Hk1xVGTKnI-402">
          <mxCell style="triangle;fillColor=#ffffff;fontSize=14;points=[[1,0.5]];allowArrows=0;verticalAlign=middle;horizontal=1;spacingTop=0;align=left;spacingLeft=4;spacingRight=0;html=1;comic=0;treeFolding=0;treeMoving=0;movable=1;resizable=0;rotatable=1;deletable=1;editable=1;connectable=1;movableLabel=1;spacing=2;aspect=fixed;metaEdit=1;" vertex="1" parent="sGnxYjfqu2Hk1xVGTKnI-401">
            <mxGeometry x="70" y="32.75" width="10" height="15" as="geometry">
              <mxPoint x="5" y="-7" as="offset" />
            </mxGeometry>
          </mxCell>
        </object>
        <object label="%name%" placeholders="1" name="IC" class_name="InputPort" id="sGnxYjfqu2Hk1xVGTKnI-403">
          <mxCell style="triangle;fontSize=14;points=[[0,0.5]];allowArrows=0;verticalAlign=middle;horizontal=1;spacingTop=0;align=right;spacingLeft=0;spacingRight=8;html=1;comic=0;treeFolding=0;treeMoving=0;resizable=0;movableLabel=1;spacing=2;aspect=fixed;fillColor=#000000;metaEdit=1;" vertex="1" parent="sGnxYjfqu2Hk1xVGTKnI-401">
            <mxGeometry y="16.120000000000005" width="10" height="15" as="geometry">
              <mxPoint x="-14" y="-7" as="offset" />
            </mxGeometry>
          </mxCell>
        </object>
        <object label="%name%" placeholders="1" name="IN1" class_name="InputPort" id="sGnxYjfqu2Hk1xVGTKnI-404">
          <mxCell style="triangle;fontSize=14;points=[[0,0.5]];allowArrows=0;verticalAlign=middle;horizontal=1;spacingTop=0;align=right;spacingLeft=0;spacingRight=8;html=1;comic=0;treeFolding=0;treeMoving=0;resizable=0;movableLabel=1;spacing=2;aspect=fixed;fillColor=#000000;metaEdit=1;" vertex="1" parent="sGnxYjfqu2Hk1xVGTKnI-401">
            <mxGeometry y="48.870000000000005" width="10" height="15" as="geometry">
              <mxPoint x="-11" y="-7" as="offset" />
            </mxGeometry>
          </mxCell>
        </object>
        <mxCell id="sGnxYjfqu2Hk1xVGTKnI-405" style="edgeStyle=none;curved=1;rounded=0;orthogonalLoop=1;jettySize=auto;html=1;exitX=1;exitY=0.5;exitDx=0;exitDy=0;entryX=0;entryY=0.5;entryDx=0;entryDy=0;fontSize=12;startSize=8;endSize=8;" edge="1" parent="sGnxYjfqu2Hk1xVGTKnI-381" source="sGnxYjfqu2Hk1xVGTKnI-391" target="sGnxYjfqu2Hk1xVGTKnI-404">
          <mxGeometry relative="1" as="geometry" />
        </mxCell>
        <mxCell id="sGnxYjfqu2Hk1xVGTKnI-407" style="edgeStyle=none;curved=1;rounded=0;orthogonalLoop=1;jettySize=auto;html=1;exitX=1;exitY=0.5;exitDx=0;exitDy=0;entryX=0;entryY=0.5;entryDx=0;entryDy=0;fontSize=12;startSize=8;endSize=8;" edge="1" parent="sGnxYjfqu2Hk1xVGTKnI-381" source="sGnxYjfqu2Hk1xVGTKnI-402" target="sGnxYjfqu2Hk1xVGTKnI-388">
          <mxGeometry relative="1" as="geometry" />
        </mxCell>
        <mxCell id="sGnxYjfqu2Hk1xVGTKnI-408" style="edgeStyle=none;curved=1;rounded=0;orthogonalLoop=1;jettySize=auto;html=1;exitX=1;exitY=0.5;exitDx=0;exitDy=0;entryX=0;entryY=0.5;entryDx=0;entryDy=0;fontSize=12;startSize=8;endSize=8;" edge="1" parent="sGnxYjfqu2Hk1xVGTKnI-381" source="sGnxYjfqu2Hk1xVGTKnI-394" target="sGnxYjfqu2Hk1xVGTKnI-392">
          <mxGeometry relative="1" as="geometry" />
        </mxCell>
        <object label="%value%" placeholders="1" value="0" block_name="zeroCt" class_name="ConstantBlock" id="sGnxYjfqu2Hk1xVGTKnI-413">
          <mxCell style="ellipse;whiteSpace=wrap;html=1;comic=0;fillColor=#ffffff;fontSize=24;align=center;allowArrows=0;connectable=0;container=1;collapsible=0;recursiveResize=1;direction=west;resizable=0;metaEdit=1;" vertex="1" parent="sGnxYjfqu2Hk1xVGTKnI-381">
            <mxGeometry x="288.4848484848485" y="46.50307692307695" width="80" height="80" as="geometry" />
          </mxCell>
        </object>
        <object label="%name%" placeholders="1" name="OUT1" class_name="OutputPort" id="sGnxYjfqu2Hk1xVGTKnI-414">
          <mxCell style="triangle;fillColor=#ffffff;fontSize=14;points=[[1,0.5]];allowArrows=0;verticalAlign=middle;horizontal=1;spacingTop=0;align=left;spacingLeft=4;spacingRight=0;html=1;comic=0;treeFolding=0;treeMoving=0;movable=1;resizable=0;rotatable=1;deletable=1;editable=1;connectable=1;movableLabel=1;spacing=2;aspect=fixed;metaEdit=1;" vertex="1" parent="sGnxYjfqu2Hk1xVGTKnI-413">
            <mxGeometry x="70" y="32.5" width="10" height="15" as="geometry">
              <mxPoint x="6" y="-7" as="offset" />
            </mxGeometry>
          </mxCell>
        </object>
      </root>
    </mxGraphModel>
  </diagram>
</mxfile>
